<svg width="360" height="640" viewBox="0 0 360 640" fill="none" xmlns="http://www.w3.org/2000/svg">
<rect width="360" height="640" fill="black" fill-opacity="0.65"/>
<g clip-path="url(#clip0)">
<rect width="360" height="640" fill="#0D1117"/>
<path d="M74.043 74.3984H79.9766C82.1458 74.3984 84.1055 74.0885 85.8555 73.4688C87.6055 72.849 89.1003 71.9831 90.3398 70.8711C91.5612 69.7773 92.5 68.474 93.1562 66.9609C93.8307 65.4479 94.168 63.7982 94.168 62.0117C94.168 60.0977 93.8307 58.3568 93.1562 56.7891C92.5 55.2214 91.5612 53.8724 90.3398 52.7422C89.1003 51.6302 87.6055 50.7643 85.8555 50.1445C84.1055 49.5065 82.1458 49.1875 79.9766 49.1875H66.3594V89H74.043V74.3984ZM74.043 68.1641V55.4219H79.9766C81.0703 55.4219 82.0182 55.5951 82.8203 55.9414C83.6224 56.2878 84.2969 56.7617 84.8438 57.3633C85.3724 57.9648 85.7643 58.6667 86.0195 59.4688C86.293 60.2708 86.4297 61.1367 86.4297 62.0664C86.4297 62.8685 86.293 63.6432 86.0195 64.3906C85.7643 65.1198 85.3724 65.7669 84.8438 66.332C84.2969 66.8971 83.6224 67.3438 82.8203 67.6719C82.0182 68 81.0703 68.1641 79.9766 68.1641H74.043ZM121.02 58.8672C119.033 58.8672 117.201 59.3503 115.523 60.3164C113.846 61.2643 112.406 62.5768 111.203 64.2539L111.148 63.5977L110.848 59.4141H103.766V89H111.367V71.2266C111.714 70.388 112.151 69.6589 112.68 69.0391C113.208 68.4193 113.846 67.9089 114.594 67.5078C115.214 67.1615 115.915 66.9062 116.699 66.7422C117.501 66.5599 118.395 66.4688 119.379 66.4688C120.327 66.4688 121.32 66.5326 122.359 66.6602C123.417 66.7695 124.447 66.9427 125.449 67.1797L126.57 59.6055C125.969 59.4232 125.176 59.2591 124.191 59.1133C123.225 58.9492 122.168 58.8672 121.02 58.8672ZM132.367 73.9336V74.5078C132.367 76.6771 132.677 78.6823 133.297 80.5234C133.917 82.3464 134.828 83.9323 136.031 85.2812C137.216 86.6302 138.674 87.6875 140.406 88.4531C142.156 89.2005 144.143 89.5742 146.367 89.5742C148.573 89.5742 150.542 89.2005 152.273 88.4531C154.005 87.6875 155.464 86.6302 156.648 85.2812C157.833 83.9323 158.736 82.3464 159.355 80.5234C159.975 78.6823 160.285 76.6771 160.285 74.5078V73.9336C160.285 71.7826 159.975 69.7956 159.355 67.9727C158.736 66.1315 157.833 64.5365 156.648 63.1875C155.445 61.8385 153.978 60.7812 152.246 60.0156C150.514 59.25 148.536 58.8672 146.312 58.8672C144.089 58.8672 142.111 59.25 140.379 60.0156C138.665 60.7812 137.216 61.8385 136.031 63.1875C134.828 64.5365 133.917 66.1315 133.297 67.9727C132.677 69.7956 132.367 71.7826 132.367 73.9336ZM139.969 74.5078V73.9336C139.969 72.7305 140.087 71.5911 140.324 70.5156C140.561 69.4401 140.935 68.4922 141.445 67.6719C141.956 66.8516 142.612 66.2044 143.414 65.7305C144.216 65.2565 145.182 65.0195 146.312 65.0195C147.461 65.0195 148.436 65.2565 149.238 65.7305C150.04 66.2044 150.697 66.8516 151.207 67.6719C151.699 68.4922 152.064 69.4401 152.301 70.5156C152.538 71.5911 152.656 72.7305 152.656 73.9336V74.5078C152.656 75.7474 152.538 76.9141 152.301 78.0078C152.064 79.0833 151.699 80.0221 151.207 80.8242C150.697 81.6445 150.04 82.2917 149.238 82.7656C148.436 83.2396 147.479 83.4766 146.367 83.4766C145.219 83.4766 144.234 83.2396 143.414 82.7656C142.612 82.2917 141.956 81.6445 141.445 80.8242C140.935 80.0221 140.561 79.0833 140.324 78.0078C140.087 76.9141 139.969 75.7474 139.969 74.5078ZM166.246 73.9883V74.5625C166.246 76.7135 166.51 78.7096 167.039 80.5508C167.568 82.3737 168.333 83.9505 169.336 85.2812C170.32 86.612 171.523 87.6602 172.945 88.4258C174.385 89.1732 176.008 89.5469 177.812 89.5469C179.471 89.5469 180.93 89.2279 182.188 88.5898C183.445 87.9518 184.539 87.0586 185.469 85.9102L185.852 89H192.715V47H185.086V62.0664C184.174 61.0456 183.126 60.2617 181.941 59.7148C180.775 59.1497 179.417 58.8672 177.867 58.8672C176.026 58.8672 174.385 59.2318 172.945 59.9609C171.523 60.6901 170.311 61.7201 169.309 63.0508C168.306 64.3815 167.54 65.9766 167.012 67.8359C166.501 69.6953 166.246 71.7461 166.246 73.9883ZM173.848 74.5625V73.9883C173.848 72.7487 173.957 71.5911 174.176 70.5156C174.395 69.4219 174.741 68.4648 175.215 67.6445C175.689 66.8424 176.299 66.2135 177.047 65.7578C177.812 65.2839 178.733 65.0469 179.809 65.0469C181.103 65.0469 182.178 65.3294 183.035 65.8945C183.892 66.4414 184.576 67.2161 185.086 68.2188V80.1953C184.576 81.1797 183.883 81.9544 183.008 82.5195C182.151 83.0846 181.066 83.3672 179.754 83.3672C178.678 83.3672 177.767 83.1393 177.02 82.6836C176.272 82.2279 175.661 81.599 175.188 80.7969C174.714 80.013 174.367 79.0924 174.148 78.0352C173.948 76.9596 173.848 75.8021 173.848 74.5625ZM219.977 89H226.867V59.4141H219.238V80.168C219.001 80.6419 218.719 81.0703 218.391 81.4531C218.062 81.8359 217.689 82.1641 217.27 82.4375C216.777 82.7474 216.203 82.9844 215.547 83.1484C214.909 83.3125 214.189 83.3945 213.387 83.3945C212.493 83.3945 211.737 83.2852 211.117 83.0664C210.497 82.8477 209.996 82.4831 209.613 81.9727C209.23 81.4805 208.948 80.8242 208.766 80.0039C208.602 79.1836 208.52 78.1719 208.52 76.9688V59.4141H200.918V76.9141C200.918 79.1562 201.164 81.0794 201.656 82.6836C202.167 84.2695 202.878 85.5729 203.789 86.5938C204.701 87.6328 205.794 88.3893 207.07 88.8633C208.346 89.3372 209.75 89.5742 211.281 89.5742C212.958 89.5742 214.499 89.1549 215.902 88.3164C217.324 87.4779 218.536 86.3203 219.539 84.8438L219.977 89ZM247.402 83.4766C246.181 83.4766 245.169 83.2305 244.367 82.7383C243.583 82.2461 242.964 81.5898 242.508 80.7695C242.034 79.9674 241.706 79.0378 241.523 77.9805C241.341 76.9049 241.25 75.793 241.25 74.6445V73.8242C241.25 72.694 241.341 71.6003 241.523 70.543C241.724 69.4857 242.061 68.5469 242.535 67.7266C242.991 66.9062 243.611 66.25 244.395 65.7578C245.178 65.2656 246.172 65.0195 247.375 65.0195C248.195 65.0195 248.952 65.1654 249.645 65.457C250.337 65.7305 250.93 66.1042 251.422 66.5781C251.914 67.0521 252.288 67.6172 252.543 68.2734C252.798 68.9297 252.908 69.6224 252.871 70.3516H260.035C260.072 68.6016 259.78 67.0247 259.16 65.6211C258.54 64.1992 257.674 62.987 256.562 61.9844C255.432 61 254.092 60.2344 252.543 59.6875C250.993 59.1406 249.307 58.8672 247.484 58.8672C245.206 58.8672 243.201 59.2591 241.469 60.043C239.755 60.8268 238.315 61.8932 237.148 63.2422C235.982 64.5911 235.107 66.1771 234.523 68C233.94 69.8047 233.648 71.7461 233.648 73.8242V74.6445C233.648 76.7227 233.94 78.6732 234.523 80.4961C235.125 82.3008 236.009 83.8776 237.176 85.2266C238.324 86.5755 239.764 87.6419 241.496 88.4258C243.228 89.1914 245.242 89.5742 247.539 89.5742C249.234 89.5742 250.839 89.3099 252.352 88.7812C253.883 88.2344 255.223 87.487 256.371 86.5391C257.52 85.5911 258.422 84.4609 259.078 83.1484C259.753 81.8359 260.072 80.4141 260.035 78.8828H252.871C252.908 79.5755 252.78 80.2044 252.488 80.7695C252.215 81.3346 251.823 81.8177 251.312 82.2188C250.802 82.6198 250.21 82.9297 249.535 83.1484C248.861 83.3672 248.15 83.4766 247.402 83.4766ZM281.883 52.168H274.281V59.4141H267.527V65.0195H274.281V78.4727C274.281 80.4232 274.536 82.1003 275.047 83.5039C275.557 84.8893 276.286 86.0286 277.234 86.9219C278.164 87.8333 279.285 88.5078 280.598 88.9453C281.928 89.3646 283.405 89.5742 285.027 89.5742C285.866 89.5742 286.714 89.5286 287.57 89.4375C288.445 89.3646 289.284 89.2552 290.086 89.1094C290.888 88.9635 291.645 88.7812 292.355 88.5625C293.066 88.3255 293.686 88.0521 294.215 87.7422L293.477 82.5195C293.13 82.6107 292.711 82.7018 292.219 82.793C291.745 82.8841 291.234 82.9661 290.688 83.0391C290.122 83.1302 289.53 83.2031 288.91 83.2578C288.309 83.3125 287.716 83.3398 287.133 83.3398C286.331 83.3398 285.602 83.2487 284.945 83.0664C284.307 82.8841 283.76 82.5742 283.305 82.1367C282.849 81.7174 282.493 81.1523 282.238 80.4414C282.001 79.7122 281.883 78.8099 281.883 77.7344V65.0195H292.93V59.4141H281.883V52.168ZM69.7227 133.609C69.7227 134.32 69.5768 134.977 69.2852 135.578C68.9935 136.161 68.5742 136.663 68.0273 137.082C67.4805 137.501 66.806 137.829 66.0039 138.066C65.2201 138.303 64.3177 138.422 63.2969 138.422C62.1484 138.422 61.0911 138.294 60.125 138.039C59.1771 137.784 58.3659 137.383 57.6914 136.836C56.9987 136.289 56.4609 135.587 56.0781 134.73C55.6953 133.874 55.4857 132.844 55.4492 131.641H47.9023C47.9023 133.701 48.2943 135.496 49.0781 137.027C49.8802 138.559 50.9648 139.889 52.332 141.02C53.7721 142.168 55.4583 143.043 57.3906 143.645C59.3411 144.228 61.3099 144.52 63.2969 144.52C65.3203 144.52 67.1888 144.283 68.9023 143.809C70.6159 143.316 72.0924 142.596 73.332 141.648C74.5716 140.719 75.5378 139.579 76.2305 138.23C76.9414 136.863 77.2969 135.305 77.2969 133.555C77.2969 131.531 76.832 129.745 75.9023 128.195C74.9727 126.646 73.724 125.288 72.1562 124.121C71.1172 123.41 69.9779 122.781 68.7383 122.234C67.4987 121.688 66.1953 121.223 64.8281 120.84C63.5521 120.493 62.4036 120.12 61.3828 119.719C60.3802 119.318 59.5234 118.871 58.8125 118.379C58.1016 117.905 57.5547 117.367 57.1719 116.766C56.8073 116.164 56.625 115.49 56.625 114.742C56.625 114.031 56.7617 113.375 57.0352 112.773C57.3268 112.154 57.7461 111.616 58.293 111.16C58.8398 110.723 59.5052 110.385 60.2891 110.148C61.0911 109.893 62.0026 109.766 63.0234 109.766C64.1354 109.766 65.1016 109.921 65.9219 110.23C66.7604 110.522 67.4622 110.932 68.0273 111.461C68.5742 112.008 68.9844 112.655 69.2578 113.402C69.5495 114.15 69.7135 114.97 69.75 115.863H77.2422C77.2422 114.077 76.8958 112.436 76.2031 110.941C75.5104 109.447 74.5443 108.152 73.3047 107.059C72.0651 105.983 70.5794 105.145 68.8477 104.543C67.1341 103.941 65.2383 103.641 63.1602 103.641C61.1549 103.641 59.2956 103.905 57.582 104.434C55.8685 104.944 54.3828 105.682 53.125 106.648C51.8672 107.615 50.8828 108.781 50.1719 110.148C49.4609 111.516 49.1055 113.038 49.1055 114.715C49.1055 116.173 49.3698 117.522 49.8984 118.762C50.4453 120.001 51.2474 121.132 52.3047 122.152C53.362 123.173 54.7201 124.112 56.3789 124.969C58.056 125.826 59.9974 126.555 62.2031 127.156C63.625 127.539 64.8099 127.958 65.7578 128.414C66.724 128.852 67.5078 129.335 68.1094 129.863C68.6927 130.41 69.1029 130.993 69.3398 131.613C69.5951 132.233 69.7227 132.898 69.7227 133.609ZM90.5586 118.488V102H82.957V144H90.5586V122.645C90.8503 122.262 91.1693 121.915 91.5156 121.605C91.8802 121.296 92.2812 121.031 92.7188 120.812C93.1927 120.557 93.7214 120.366 94.3047 120.238C94.888 120.111 95.5169 120.047 96.1914 120.047C97.0664 120.047 97.8503 120.165 98.543 120.402C99.2357 120.621 99.8281 120.967 100.32 121.441C100.812 121.915 101.186 122.535 101.441 123.301C101.715 124.066 101.852 124.978 101.852 126.035V144H109.453V126.09C109.453 123.921 109.189 122.07 108.66 120.539C108.15 118.99 107.43 117.723 106.5 116.738C105.57 115.754 104.458 115.034 103.164 114.578C101.87 114.104 100.448 113.867 98.8984 113.867C97.8411 113.867 96.8385 114.022 95.8906 114.332C94.9427 114.642 94.0768 115.079 93.293 115.645C92.7826 116.009 92.2904 116.438 91.8164 116.93C91.3607 117.404 90.9414 117.923 90.5586 118.488ZM115.551 128.934V129.508C115.551 131.677 115.861 133.682 116.48 135.523C117.1 137.346 118.012 138.932 119.215 140.281C120.4 141.63 121.858 142.688 123.59 143.453C125.34 144.201 127.327 144.574 129.551 144.574C131.757 144.574 133.725 144.201 135.457 143.453C137.189 142.688 138.647 141.63 139.832 140.281C141.017 138.932 141.919 137.346 142.539 135.523C143.159 133.682 143.469 131.677 143.469 129.508V128.934C143.469 126.783 143.159 124.796 142.539 122.973C141.919 121.132 141.017 119.536 139.832 118.188C138.629 116.839 137.161 115.781 135.43 115.016C133.698 114.25 131.72 113.867 129.496 113.867C127.272 113.867 125.294 114.25 123.562 115.016C121.849 115.781 120.4 116.839 119.215 118.188C118.012 119.536 117.1 121.132 116.48 122.973C115.861 124.796 115.551 126.783 115.551 128.934ZM123.152 129.508V128.934C123.152 127.73 123.271 126.591 123.508 125.516C123.745 124.44 124.118 123.492 124.629 122.672C125.139 121.852 125.796 121.204 126.598 120.73C127.4 120.257 128.366 120.02 129.496 120.02C130.645 120.02 131.62 120.257 132.422 120.73C133.224 121.204 133.88 121.852 134.391 122.672C134.883 123.492 135.247 124.44 135.484 125.516C135.721 126.591 135.84 127.73 135.84 128.934V129.508C135.84 130.747 135.721 131.914 135.484 133.008C135.247 134.083 134.883 135.022 134.391 135.824C133.88 136.645 133.224 137.292 132.422 137.766C131.62 138.24 130.663 138.477 129.551 138.477C128.402 138.477 127.418 138.24 126.598 137.766C125.796 137.292 125.139 136.645 124.629 135.824C124.118 135.022 123.745 134.083 123.508 133.008C123.271 131.914 123.152 130.747 123.152 129.508ZM152.41 144H159.082L162.227 128.195L162.828 125.188L163.457 128.195L166.711 144H173.383L178.688 114.414H171.715L169.527 131.859L169.145 134.73L168.625 131.914L165.426 114.414H160.34L157.141 131.996L156.621 134.812L156.266 131.996L154.051 114.414H147.105L152.41 144ZM196.953 138.477C195.732 138.477 194.72 138.23 193.918 137.738C193.134 137.246 192.514 136.59 192.059 135.77C191.585 134.967 191.257 134.038 191.074 132.98C190.892 131.905 190.801 130.793 190.801 129.645V128.824C190.801 127.694 190.892 126.6 191.074 125.543C191.275 124.486 191.612 123.547 192.086 122.727C192.542 121.906 193.161 121.25 193.945 120.758C194.729 120.266 195.723 120.02 196.926 120.02C197.746 120.02 198.503 120.165 199.195 120.457C199.888 120.73 200.48 121.104 200.973 121.578C201.465 122.052 201.839 122.617 202.094 123.273C202.349 123.93 202.458 124.622 202.422 125.352H209.586C209.622 123.602 209.331 122.025 208.711 120.621C208.091 119.199 207.225 117.987 206.113 116.984C204.983 116 203.643 115.234 202.094 114.688C200.544 114.141 198.858 113.867 197.035 113.867C194.757 113.867 192.751 114.259 191.02 115.043C189.306 115.827 187.866 116.893 186.699 118.242C185.533 119.591 184.658 121.177 184.074 123C183.491 124.805 183.199 126.746 183.199 128.824V129.645C183.199 131.723 183.491 133.673 184.074 135.496C184.676 137.301 185.56 138.878 186.727 140.227C187.875 141.576 189.315 142.642 191.047 143.426C192.779 144.191 194.793 144.574 197.09 144.574C198.785 144.574 200.389 144.31 201.902 143.781C203.434 143.234 204.773 142.487 205.922 141.539C207.07 140.591 207.973 139.461 208.629 138.148C209.303 136.836 209.622 135.414 209.586 133.883H202.422C202.458 134.576 202.331 135.204 202.039 135.77C201.766 136.335 201.374 136.818 200.863 137.219C200.353 137.62 199.76 137.93 199.086 138.148C198.411 138.367 197.701 138.477 196.953 138.477ZM235.973 144H243.684V143.535C243.301 142.788 243.009 141.895 242.809 140.855C242.608 139.816 242.508 138.504 242.508 136.918V124.23C242.508 122.517 242.189 121.013 241.551 119.719C240.913 118.406 240.029 117.322 238.898 116.465C237.768 115.608 236.428 114.961 234.879 114.523C233.348 114.086 231.689 113.867 229.902 113.867C227.915 113.867 226.147 114.122 224.598 114.633C223.066 115.125 221.772 115.799 220.715 116.656C219.639 117.513 218.819 118.507 218.254 119.637C217.707 120.767 217.434 121.961 217.434 123.219H225.035C225.035 122.69 225.108 122.207 225.254 121.77C225.418 121.332 225.664 120.958 225.992 120.648C226.357 120.302 226.831 120.038 227.414 119.855C227.997 119.655 228.69 119.555 229.492 119.555C230.404 119.555 231.197 119.673 231.871 119.91C232.564 120.129 233.138 120.448 233.594 120.867C234.031 121.268 234.359 121.751 234.578 122.316C234.797 122.863 234.906 123.483 234.906 124.176V125.926H230.668C228.48 125.926 226.539 126.126 224.844 126.527C223.167 126.91 221.754 127.475 220.605 128.223C219.329 129.043 218.372 130.091 217.734 131.367C217.096 132.625 216.777 134.074 216.777 135.715C216.777 136.991 217.033 138.176 217.543 139.27C218.053 140.345 218.764 141.275 219.676 142.059C220.587 142.842 221.672 143.453 222.93 143.891C224.206 144.328 225.6 144.547 227.113 144.547C228.043 144.547 228.909 144.456 229.711 144.273C230.513 144.109 231.251 143.872 231.926 143.562C232.582 143.271 233.184 142.924 233.73 142.523C234.277 142.122 234.76 141.694 235.18 141.238C235.271 141.767 235.38 142.268 235.508 142.742C235.635 143.216 235.79 143.635 235.973 144ZM228.727 138.668C228.016 138.668 227.387 138.586 226.84 138.422C226.311 138.24 225.865 138.003 225.5 137.711C225.135 137.401 224.853 137.027 224.652 136.59C224.47 136.134 224.379 135.642 224.379 135.113C224.379 134.439 224.507 133.819 224.762 133.254C225.017 132.671 225.409 132.169 225.938 131.75C226.466 131.349 227.15 131.039 227.988 130.82C228.827 130.583 229.839 130.465 231.023 130.465H234.906V135.551C234.688 135.934 234.387 136.316 234.004 136.699C233.621 137.064 233.165 137.392 232.637 137.684C232.108 137.975 231.516 138.212 230.859 138.395C230.203 138.577 229.492 138.668 228.727 138.668ZM270.207 135.879C270.207 136.335 270.089 136.754 269.852 137.137C269.633 137.52 269.296 137.857 268.84 138.148C268.366 138.44 267.755 138.677 267.008 138.859C266.279 139.023 265.422 139.105 264.438 139.105C263.617 139.105 262.815 139.023 262.031 138.859C261.266 138.695 260.582 138.431 259.98 138.066C259.379 137.72 258.887 137.264 258.504 136.699C258.121 136.116 257.902 135.423 257.848 134.621H250.602C250.602 135.824 250.893 137.027 251.477 138.23C252.078 139.415 252.953 140.473 254.102 141.402C255.25 142.35 256.672 143.116 258.367 143.699C260.081 144.283 262.049 144.574 264.273 144.574C266.297 144.574 268.129 144.355 269.77 143.918C271.41 143.462 272.814 142.833 273.98 142.031C275.129 141.229 276.013 140.281 276.633 139.188C277.271 138.076 277.59 136.863 277.59 135.551C277.59 134.129 277.271 132.908 276.633 131.887C276.013 130.848 275.147 129.964 274.035 129.234C272.923 128.523 271.602 127.94 270.07 127.484C268.539 127.029 266.88 126.655 265.094 126.363C263.854 126.181 262.833 125.971 262.031 125.734C261.229 125.479 260.6 125.197 260.145 124.887C259.671 124.595 259.342 124.267 259.16 123.902C258.978 123.52 258.887 123.109 258.887 122.672C258.887 122.234 258.987 121.824 259.188 121.441C259.406 121.04 259.716 120.694 260.117 120.402C260.555 120.074 261.12 119.819 261.812 119.637C262.505 119.454 263.316 119.363 264.246 119.363C265.34 119.363 266.27 119.5 267.035 119.773C267.819 120.047 268.439 120.411 268.895 120.867C269.223 121.214 269.469 121.605 269.633 122.043C269.797 122.462 269.879 122.918 269.879 123.41H277.48C277.48 122.043 277.18 120.776 276.578 119.609C275.977 118.443 275.111 117.431 273.98 116.574C272.832 115.736 271.438 115.079 269.797 114.605C268.156 114.113 266.306 113.867 264.246 113.867C262.277 113.867 260.509 114.113 258.941 114.605C257.374 115.098 256.043 115.763 254.949 116.602C253.855 117.44 253.017 118.415 252.434 119.527C251.85 120.639 251.559 121.806 251.559 123.027C251.559 124.285 251.841 125.397 252.406 126.363C252.99 127.329 253.792 128.177 254.812 128.906C255.833 129.654 257.055 130.292 258.477 130.82C259.917 131.331 261.503 131.759 263.234 132.105C264.602 132.361 265.732 132.616 266.625 132.871C267.518 133.126 268.238 133.4 268.785 133.691C269.314 134.001 269.678 134.329 269.879 134.676C270.098 135.022 270.207 135.423 270.207 135.879ZM299.109 144.547C301.971 144.547 304.451 143.991 306.547 142.879C308.643 141.767 310.174 140.527 311.141 139.16L307.34 135.059C306.465 136.189 305.326 137.036 303.922 137.602C302.518 138.167 301.069 138.449 299.574 138.449C298.517 138.449 297.542 138.285 296.648 137.957C295.755 137.629 294.962 137.164 294.27 136.562C293.595 135.979 293.057 135.332 292.656 134.621C292.255 133.892 291.927 132.935 291.672 131.75V131.668H311.742V128.441C311.742 126.272 311.441 124.294 310.84 122.508C310.238 120.703 309.363 119.163 308.215 117.887C307.048 116.611 305.626 115.626 303.949 114.934C302.29 114.223 300.395 113.867 298.262 113.867C296.202 113.867 294.297 114.241 292.547 114.988C290.797 115.736 289.284 116.784 288.008 118.133C286.732 119.482 285.738 121.095 285.027 122.973C284.316 124.832 283.961 126.892 283.961 129.152V130.246C283.961 132.233 284.316 134.102 285.027 135.852C285.757 137.583 286.786 139.087 288.117 140.363C289.448 141.658 291.043 142.678 292.902 143.426C294.762 144.173 296.831 144.547 299.109 144.547ZM298.207 120.02C299.173 120.02 300.021 120.174 300.75 120.484C301.497 120.776 302.126 121.177 302.637 121.688C303.147 122.216 303.548 122.836 303.84 123.547C304.132 124.258 304.277 125.014 304.277 125.816V126.418H291.809C291.991 125.452 292.264 124.577 292.629 123.793C292.993 123.009 293.449 122.335 293.996 121.77C294.525 121.204 295.145 120.776 295.855 120.484C296.566 120.174 297.35 120.02 298.207 120.02Z" fill="white"/>
<rect x="185" y="549" width="165" height="165" rx="15" fill="#002B52"/>
<rect x="10" y="549" width="165" height="165" rx="15" fill="#002B52"/>
<rect x="185" y="370" width="165" height="165" rx="15" fill="#002B52"/>
<path d="M216.269 517.766C216.269 518.117 216.192 518.422 216.04 518.68C215.888 518.932 215.691 519.14 215.451 519.304C215.211 519.474 214.936 519.6 214.625 519.682C214.32 519.758 214.01 519.796 213.693 519.796C213.295 519.796 212.926 519.743 212.586 519.638C212.252 519.526 211.956 519.362 211.698 519.146C211.44 518.935 211.229 518.677 211.065 518.372C210.901 518.062 210.793 517.707 210.74 517.309H209.079C209.097 517.859 209.217 518.36 209.439 518.812C209.668 519.257 209.976 519.646 210.362 519.98C210.796 520.367 211.306 520.663 211.892 520.868C212.483 521.073 213.084 521.176 213.693 521.176C214.203 521.176 214.713 521.105 215.223 520.965C215.732 520.818 216.189 520.602 216.594 520.314C216.998 520.033 217.326 519.679 217.578 519.251C217.836 518.823 217.965 518.322 217.965 517.748C217.965 517.18 217.845 516.679 217.604 516.245C217.37 515.812 217.06 515.445 216.673 515.146C216.28 514.824 215.847 514.561 215.372 514.355C214.897 514.145 214.423 513.966 213.948 513.819C213.661 513.731 213.354 513.629 213.025 513.512C212.703 513.395 212.404 513.248 212.129 513.072C211.848 512.896 211.616 512.683 211.435 512.431C211.253 512.173 211.159 511.859 211.153 511.49C211.153 511.15 211.221 510.852 211.355 510.594C211.496 510.336 211.684 510.119 211.918 509.943C212.146 509.768 212.407 509.636 212.7 509.548C212.999 509.46 213.304 509.416 213.614 509.416C214.001 509.416 214.347 509.478 214.651 509.601C214.962 509.718 215.229 509.885 215.451 510.102C215.674 510.318 215.853 510.579 215.987 510.884C216.122 511.183 216.213 511.517 216.26 511.886H217.93C217.918 511.3 217.792 510.77 217.552 510.295C217.312 509.82 216.992 509.416 216.594 509.082C216.195 508.748 215.738 508.49 215.223 508.309C214.707 508.121 214.171 508.027 213.614 508.027C213.11 508.027 212.609 508.106 212.111 508.265C211.613 508.417 211.168 508.643 210.775 508.941C210.383 509.24 210.063 509.606 209.817 510.04C209.577 510.474 209.457 510.966 209.457 511.517C209.457 512.067 209.577 512.548 209.817 512.958C210.063 513.362 210.38 513.714 210.767 514.013C211.147 514.306 211.569 514.558 212.032 514.769C212.501 514.974 212.961 515.149 213.412 515.296C213.723 515.396 214.045 515.507 214.379 515.63C214.719 515.753 215.029 515.905 215.311 516.087C215.592 516.274 215.82 516.503 215.996 516.772C216.178 517.042 216.269 517.373 216.269 517.766ZM224.434 519.857C223.924 519.857 223.496 519.758 223.15 519.559C222.811 519.354 222.538 519.087 222.333 518.759C222.122 518.437 221.97 518.073 221.876 517.669C221.788 517.259 221.744 516.846 221.744 516.43V516.061C221.744 515.65 221.788 515.243 221.876 514.839C221.97 514.435 222.122 514.068 222.333 513.74C222.544 513.418 222.819 513.157 223.159 512.958C223.505 512.753 223.93 512.65 224.434 512.65C224.762 512.65 225.066 512.706 225.348 512.817C225.635 512.929 225.881 513.081 226.086 513.274C226.291 513.468 226.452 513.693 226.569 513.951C226.692 514.203 226.757 514.473 226.763 514.76H228.301C228.301 514.279 228.204 513.828 228.011 513.406C227.817 512.984 227.551 512.618 227.211 512.308C226.865 512.003 226.455 511.763 225.98 511.587C225.512 511.405 224.996 511.314 224.434 511.314C223.713 511.314 223.083 511.443 222.544 511.701C222.005 511.959 221.557 512.305 221.199 512.738C220.836 513.178 220.563 513.685 220.382 514.259C220.2 514.833 220.109 515.434 220.109 516.061V516.43C220.109 517.062 220.2 517.666 220.382 518.24C220.563 518.809 220.836 519.31 221.199 519.743C221.557 520.183 222.005 520.531 222.544 520.789C223.083 521.047 223.713 521.176 224.434 521.176C224.938 521.176 225.421 521.091 225.884 520.921C226.347 520.745 226.757 520.511 227.114 520.218C227.472 519.931 227.756 519.597 227.967 519.216C228.184 518.829 228.295 518.425 228.301 518.003H226.763C226.757 518.267 226.687 518.513 226.552 518.741C226.423 518.964 226.25 519.157 226.033 519.321C225.816 519.491 225.567 519.623 225.286 519.717C225.011 519.811 224.727 519.857 224.434 519.857ZM231.447 511.49V512.905H234.682V519.594H231.447V521H239.41V519.594H236.308V511.49H231.447ZM234.471 508.994C234.471 509.258 234.55 509.478 234.708 509.653C234.872 509.829 235.118 509.917 235.446 509.917C235.769 509.917 236.012 509.829 236.176 509.653C236.34 509.478 236.422 509.258 236.422 508.994C236.422 508.848 236.398 508.713 236.352 508.59C236.305 508.467 236.234 508.364 236.141 508.282C236.064 508.206 235.968 508.147 235.851 508.106C235.733 508.06 235.599 508.036 235.446 508.036C235.294 508.036 235.156 508.06 235.033 508.106C234.916 508.147 234.819 508.206 234.743 508.282C234.649 508.37 234.579 508.476 234.532 508.599C234.491 508.722 234.471 508.854 234.471 508.994ZM248.252 521H249.948V520.859C249.843 520.596 249.761 520.288 249.702 519.937C249.644 519.579 249.614 519.242 249.614 518.926V514.505C249.614 513.972 249.518 513.506 249.324 513.107C249.131 512.709 248.867 512.375 248.533 512.105C248.193 511.842 247.792 511.646 247.329 511.517C246.866 511.382 246.365 511.314 245.826 511.314C245.234 511.314 244.704 511.396 244.235 511.561C243.772 511.725 243.38 511.938 243.058 512.202C242.729 512.472 242.478 512.773 242.302 513.107C242.132 513.441 242.044 513.781 242.038 514.127H243.673C243.673 513.928 243.72 513.737 243.813 513.556C243.913 513.368 244.051 513.207 244.227 513.072C244.402 512.938 244.616 512.829 244.868 512.747C245.126 512.665 245.416 512.624 245.738 512.624C246.084 512.624 246.395 512.668 246.67 512.756C246.951 512.844 247.188 512.967 247.382 513.125C247.575 513.289 247.725 513.485 247.83 513.714C247.936 513.942 247.988 514.2 247.988 514.487V515.234H246.213C245.551 515.234 244.95 515.299 244.411 515.428C243.878 515.557 243.421 515.75 243.04 516.008C242.659 516.271 242.363 516.6 242.152 516.992C241.947 517.385 241.845 517.842 241.845 518.363C241.845 518.762 241.921 519.134 242.073 519.479C242.231 519.819 242.454 520.112 242.741 520.358C243.022 520.61 243.365 520.81 243.77 520.956C244.18 521.103 244.637 521.176 245.141 521.176C245.451 521.176 245.744 521.144 246.02 521.079C246.295 521.015 246.556 520.927 246.802 520.815C247.042 520.704 247.262 520.575 247.461 520.429C247.666 520.282 247.851 520.127 248.015 519.963C248.032 520.162 248.059 520.355 248.094 520.543C248.135 520.725 248.188 520.877 248.252 521ZM245.378 519.761C245.062 519.761 244.783 519.72 244.543 519.638C244.303 519.556 244.104 519.441 243.945 519.295C243.787 519.154 243.667 518.984 243.585 518.785C243.509 518.586 243.471 518.369 243.471 518.135C243.471 517.889 243.515 517.669 243.603 517.476C243.696 517.282 243.831 517.115 244.007 516.975C244.253 516.775 244.584 516.629 245 516.535C245.422 516.436 245.914 516.386 246.477 516.386H247.988V518.311C247.895 518.498 247.766 518.68 247.602 518.855C247.438 519.025 247.244 519.178 247.021 519.312C246.793 519.447 246.541 519.556 246.266 519.638C245.99 519.72 245.694 519.761 245.378 519.761ZM259.045 511.314C258.354 511.314 257.735 511.467 257.19 511.771C256.651 512.07 256.188 512.48 255.802 513.002L255.793 512.765L255.723 511.49H254.176V521H255.811V514.9C255.916 514.607 256.048 514.344 256.206 514.109C256.37 513.869 256.561 513.667 256.777 513.503C257.018 513.315 257.299 513.175 257.621 513.081C257.943 512.981 258.304 512.932 258.702 512.932C259.013 512.932 259.309 512.949 259.59 512.984C259.877 513.014 260.179 513.063 260.495 513.134L260.715 511.543C260.551 511.473 260.305 511.417 259.977 511.376C259.654 511.335 259.344 511.314 259.045 511.314ZM263.615 524.656H265.241V520.086C265.358 520.215 265.484 520.335 265.619 520.446C265.754 520.552 265.897 520.648 266.05 520.736C266.302 520.877 266.583 520.985 266.894 521.062C267.21 521.138 267.55 521.176 267.913 521.176C268.511 521.176 269.041 521.053 269.504 520.807C269.973 520.561 270.365 520.221 270.682 519.787C270.998 519.354 271.238 518.844 271.402 518.258C271.566 517.666 271.648 517.03 271.648 516.351V516.166C271.648 515.457 271.566 514.807 271.402 514.215C271.238 513.617 270.998 513.104 270.682 512.677C270.365 512.249 269.973 511.915 269.504 511.675C269.035 511.435 268.496 511.314 267.887 511.314C267.541 511.314 267.216 511.353 266.911 511.429C266.612 511.499 266.34 511.604 266.094 511.745C265.918 511.839 265.754 511.953 265.602 512.088C265.449 512.217 265.309 512.363 265.18 512.527L265.101 511.49H263.615V524.656ZM270.022 516.166V516.351C270.022 516.813 269.97 517.256 269.864 517.678C269.765 518.1 269.609 518.472 269.398 518.794C269.188 519.116 268.918 519.374 268.59 519.567C268.262 519.755 267.872 519.849 267.421 519.849C267.14 519.849 266.882 519.813 266.647 519.743C266.419 519.673 266.211 519.576 266.023 519.453C265.859 519.348 265.713 519.219 265.584 519.066C265.455 518.914 265.341 518.75 265.241 518.574V513.995C265.353 513.796 265.481 513.614 265.628 513.45C265.774 513.286 265.941 513.148 266.129 513.037C266.299 512.926 266.489 512.841 266.7 512.782C266.917 512.724 267.151 512.694 267.403 512.694C267.86 512.694 268.253 512.788 268.581 512.976C268.909 513.163 269.182 513.415 269.398 513.731C269.609 514.054 269.765 514.426 269.864 514.848C269.97 515.264 270.022 515.703 270.022 516.166ZM280.684 521H282.38V520.859C282.274 520.596 282.192 520.288 282.134 519.937C282.075 519.579 282.046 519.242 282.046 518.926V514.505C282.046 513.972 281.949 513.506 281.756 513.107C281.562 512.709 281.299 512.375 280.965 512.105C280.625 511.842 280.224 511.646 279.761 511.517C279.298 511.382 278.797 511.314 278.258 511.314C277.666 511.314 277.136 511.396 276.667 511.561C276.204 511.725 275.812 511.938 275.489 512.202C275.161 512.472 274.909 512.773 274.733 513.107C274.563 513.441 274.476 513.781 274.47 514.127H276.104C276.104 513.928 276.151 513.737 276.245 513.556C276.345 513.368 276.482 513.207 276.658 513.072C276.834 512.938 277.048 512.829 277.3 512.747C277.558 512.665 277.848 512.624 278.17 512.624C278.516 512.624 278.826 512.668 279.102 512.756C279.383 512.844 279.62 512.967 279.813 513.125C280.007 513.289 280.156 513.485 280.262 513.714C280.367 513.942 280.42 514.2 280.42 514.487V515.234H278.645C277.982 515.234 277.382 515.299 276.843 515.428C276.31 515.557 275.853 515.75 275.472 516.008C275.091 516.271 274.795 516.6 274.584 516.992C274.379 517.385 274.276 517.842 274.276 518.363C274.276 518.762 274.353 519.134 274.505 519.479C274.663 519.819 274.886 520.112 275.173 520.358C275.454 520.61 275.797 520.81 276.201 520.956C276.611 521.103 277.068 521.176 277.572 521.176C277.883 521.176 278.176 521.144 278.451 521.079C278.727 521.015 278.987 520.927 279.233 520.815C279.474 520.704 279.693 520.575 279.893 520.429C280.098 520.282 280.282 520.127 280.446 519.963C280.464 520.162 280.49 520.355 280.525 520.543C280.566 520.725 280.619 520.877 280.684 521ZM277.81 519.761C277.493 519.761 277.215 519.72 276.975 519.638C276.734 519.556 276.535 519.441 276.377 519.295C276.219 519.154 276.099 518.984 276.017 518.785C275.94 518.586 275.902 518.369 275.902 518.135C275.902 517.889 275.946 517.669 276.034 517.476C276.128 517.282 276.263 517.115 276.438 516.975C276.685 516.775 277.016 516.629 277.432 516.535C277.854 516.436 278.346 516.386 278.908 516.386H280.42V518.311C280.326 518.498 280.197 518.68 280.033 518.855C279.869 519.025 279.676 519.178 279.453 519.312C279.225 519.447 278.973 519.556 278.697 519.638C278.422 519.72 278.126 519.761 277.81 519.761ZM296.038 521H300.134C300.679 520.994 301.206 520.909 301.716 520.745C302.231 520.581 302.686 520.344 303.078 520.033C303.471 519.729 303.784 519.348 304.019 518.891C304.253 518.434 304.367 517.906 304.361 517.309C304.361 516.928 304.303 516.573 304.186 516.245C304.074 515.917 303.916 515.621 303.711 515.357C303.518 515.117 303.271 514.897 302.973 514.698C302.674 514.499 302.363 514.361 302.041 514.285V514.259C302.352 514.124 302.615 513.98 302.832 513.828C303.055 513.676 303.257 513.488 303.438 513.266C303.614 513.049 303.752 512.803 303.852 512.527C303.957 512.252 304.013 511.947 304.019 511.613C304.024 511.016 303.91 510.503 303.676 510.075C303.441 509.647 303.128 509.296 302.735 509.021C302.343 508.745 301.895 508.543 301.391 508.414C300.887 508.279 300.371 508.209 299.844 508.203H296.038V521ZM297.673 515.015H300.266C300.611 515.026 300.934 515.085 301.232 515.19C301.531 515.296 301.792 515.445 302.015 515.639C302.237 515.838 302.41 516.078 302.533 516.359C302.662 516.641 302.724 516.963 302.718 517.326C302.718 517.684 302.647 518.003 302.507 518.284C302.372 518.565 302.188 518.803 301.953 518.996C301.719 519.189 301.449 519.342 301.145 519.453C300.84 519.559 300.518 519.614 300.178 519.62H297.673V515.015ZM297.673 513.661V509.592H299.896C300.213 509.598 300.521 509.639 300.819 509.715C301.124 509.791 301.394 509.908 301.628 510.066C301.856 510.23 302.038 510.438 302.173 510.69C302.313 510.942 302.384 511.247 302.384 511.604C302.384 511.938 302.313 512.231 302.173 512.483C302.032 512.735 301.848 512.946 301.619 513.116C301.391 513.292 301.13 513.427 300.837 513.521C300.544 513.608 300.245 513.655 299.94 513.661H297.673ZM307.121 507.5V508.915H310.355V519.594H307.121V521H315.084V519.594H311.981V507.5H307.121ZM323.943 521H325.42V511.49H323.785V518.311C323.697 518.516 323.586 518.706 323.451 518.882C323.322 519.052 323.17 519.198 322.994 519.321C322.783 519.474 322.534 519.594 322.247 519.682C321.96 519.764 321.635 519.805 321.271 519.805C320.961 519.805 320.686 519.764 320.445 519.682C320.211 519.6 320.012 519.456 319.848 519.251C319.684 519.052 319.561 518.782 319.479 518.442C319.396 518.103 319.355 517.675 319.355 517.159V511.49H317.729V517.142C317.729 517.851 317.806 518.46 317.958 518.97C318.116 519.474 318.339 519.89 318.626 520.218C318.913 520.546 319.259 520.789 319.663 520.947C320.067 521.1 320.519 521.176 321.017 521.176C321.638 521.176 322.186 521.047 322.66 520.789C323.135 520.525 323.53 520.159 323.847 519.69L323.943 521Z" fill="#C8C8C8"/>
<rect x="10" y="370" width="165" height="165" rx="15" fill="#002B52"/>
<path d="M41.2686 517.766C41.2686 518.117 41.1924 518.422 41.04 518.68C40.8877 518.932 40.6914 519.14 40.4512 519.304C40.2109 519.474 39.9355 519.6 39.625 519.682C39.3203 519.758 39.0098 519.796 38.6934 519.796C38.2949 519.796 37.9258 519.743 37.5859 519.638C37.252 519.526 36.9561 519.362 36.6982 519.146C36.4404 518.935 36.2295 518.677 36.0654 518.372C35.9014 518.062 35.793 517.707 35.7402 517.309H34.0791C34.0967 517.859 34.2168 518.36 34.4395 518.812C34.668 519.257 34.9756 519.646 35.3623 519.98C35.7959 520.367 36.3057 520.663 36.8916 520.868C37.4834 521.073 38.084 521.176 38.6934 521.176C39.2031 521.176 39.7129 521.105 40.2227 520.965C40.7324 520.818 41.1895 520.602 41.5938 520.314C41.998 520.033 42.3262 519.679 42.5781 519.251C42.8359 518.823 42.9648 518.322 42.9648 517.748C42.9648 517.18 42.8447 516.679 42.6045 516.245C42.3701 515.812 42.0596 515.445 41.6729 515.146C41.2803 514.824 40.8467 514.561 40.3721 514.355C39.8975 514.145 39.4229 513.966 38.9482 513.819C38.6611 513.731 38.3535 513.629 38.0254 513.512C37.7031 513.395 37.4043 513.248 37.1289 513.072C36.8477 512.896 36.6162 512.683 36.4346 512.431C36.2529 512.173 36.1592 511.859 36.1533 511.49C36.1533 511.15 36.2207 510.852 36.3555 510.594C36.4961 510.336 36.6836 510.119 36.918 509.943C37.1465 509.768 37.4072 509.636 37.7002 509.548C37.999 509.46 38.3037 509.416 38.6143 509.416C39.001 509.416 39.3467 509.478 39.6514 509.601C39.9619 509.718 40.2285 509.885 40.4512 510.102C40.6738 510.318 40.8525 510.579 40.9873 510.884C41.1221 511.183 41.2129 511.517 41.2598 511.886H42.9297C42.918 511.3 42.792 510.77 42.5518 510.295C42.3115 509.82 41.9922 509.416 41.5938 509.082C41.1953 508.748 40.7383 508.49 40.2227 508.309C39.707 508.121 39.1709 508.027 38.6143 508.027C38.1104 508.027 37.6094 508.106 37.1113 508.265C36.6133 508.417 36.168 508.643 35.7754 508.941C35.3828 509.24 35.0635 509.606 34.8174 510.04C34.5771 510.474 34.457 510.966 34.457 511.517C34.457 512.067 34.5771 512.548 34.8174 512.958C35.0635 513.362 35.3799 513.714 35.7666 514.013C36.1475 514.306 36.5693 514.558 37.0322 514.769C37.501 514.974 37.9609 515.149 38.4121 515.296C38.7227 515.396 39.0449 515.507 39.3789 515.63C39.7188 515.753 40.0293 515.905 40.3105 516.087C40.5918 516.274 40.8203 516.503 40.9961 516.772C41.1777 517.042 41.2686 517.373 41.2686 517.766ZM49.4336 519.857C48.9238 519.857 48.4961 519.758 48.1504 519.559C47.8105 519.354 47.5381 519.087 47.333 518.759C47.1221 518.437 46.9697 518.073 46.876 517.669C46.7881 517.259 46.7441 516.846 46.7441 516.43V516.061C46.7441 515.65 46.7881 515.243 46.876 514.839C46.9697 514.435 47.1221 514.068 47.333 513.74C47.5439 513.418 47.8193 513.157 48.1592 512.958C48.5049 512.753 48.9297 512.65 49.4336 512.65C49.7617 512.65 50.0664 512.706 50.3477 512.817C50.6348 512.929 50.8809 513.081 51.0859 513.274C51.291 513.468 51.4521 513.693 51.5693 513.951C51.6924 514.203 51.7568 514.473 51.7627 514.76H53.3008C53.3008 514.279 53.2041 513.828 53.0107 513.406C52.8174 512.984 52.5508 512.618 52.2109 512.308C51.8652 512.003 51.4551 511.763 50.9805 511.587C50.5117 511.405 49.9961 511.314 49.4336 511.314C48.7129 511.314 48.083 511.443 47.5439 511.701C47.0049 511.959 46.5566 512.305 46.1992 512.738C45.8359 513.178 45.5635 513.685 45.3818 514.259C45.2002 514.833 45.1094 515.434 45.1094 516.061V516.43C45.1094 517.062 45.2002 517.666 45.3818 518.24C45.5635 518.809 45.8359 519.31 46.1992 519.743C46.5566 520.183 47.0049 520.531 47.5439 520.789C48.083 521.047 48.7129 521.176 49.4336 521.176C49.9375 521.176 50.4209 521.091 50.8838 520.921C51.3467 520.745 51.7568 520.511 52.1143 520.218C52.4717 519.931 52.7559 519.597 52.9668 519.216C53.1836 518.829 53.2949 518.425 53.3008 518.003H51.7627C51.7568 518.267 51.6865 518.513 51.5518 518.741C51.4229 518.964 51.25 519.157 51.0332 519.321C50.8164 519.491 50.5674 519.623 50.2861 519.717C50.0107 519.811 49.7266 519.857 49.4336 519.857ZM56.4473 511.49V512.905H59.6816V519.594H56.4473V521H64.4102V519.594H61.3076V511.49H56.4473ZM59.4707 508.994C59.4707 509.258 59.5498 509.478 59.708 509.653C59.8721 509.829 60.1182 509.917 60.4463 509.917C60.7686 509.917 61.0117 509.829 61.1758 509.653C61.3398 509.478 61.4219 509.258 61.4219 508.994C61.4219 508.848 61.3984 508.713 61.3516 508.59C61.3047 508.467 61.2344 508.364 61.1406 508.282C61.0645 508.206 60.9678 508.147 60.8506 508.106C60.7334 508.06 60.5986 508.036 60.4463 508.036C60.2939 508.036 60.1562 508.06 60.0332 508.106C59.916 508.147 59.8193 508.206 59.7432 508.282C59.6494 508.37 59.5791 508.476 59.5322 508.599C59.4912 508.722 59.4707 508.854 59.4707 508.994ZM73.252 521H74.9482V520.859C74.8428 520.596 74.7607 520.288 74.7021 519.937C74.6436 519.579 74.6143 519.242 74.6143 518.926V514.505C74.6143 513.972 74.5176 513.506 74.3242 513.107C74.1309 512.709 73.8672 512.375 73.5332 512.105C73.1934 511.842 72.792 511.646 72.3291 511.517C71.8662 511.382 71.3652 511.314 70.8262 511.314C70.2344 511.314 69.7041 511.396 69.2354 511.561C68.7725 511.725 68.3799 511.938 68.0576 512.202C67.7295 512.472 67.4775 512.773 67.3018 513.107C67.1318 513.441 67.0439 513.781 67.0381 514.127H68.6729C68.6729 513.928 68.7197 513.737 68.8135 513.556C68.9131 513.368 69.0508 513.207 69.2266 513.072C69.4023 512.938 69.6162 512.829 69.8682 512.747C70.126 512.665 70.416 512.624 70.7383 512.624C71.084 512.624 71.3945 512.668 71.6699 512.756C71.9512 512.844 72.1885 512.967 72.3818 513.125C72.5752 513.289 72.7246 513.485 72.8301 513.714C72.9355 513.942 72.9883 514.2 72.9883 514.487V515.234H71.2129C70.5508 515.234 69.9502 515.299 69.4111 515.428C68.8779 515.557 68.4209 515.75 68.04 516.008C67.6592 516.271 67.3633 516.6 67.1523 516.992C66.9473 517.385 66.8447 517.842 66.8447 518.363C66.8447 518.762 66.9209 519.134 67.0732 519.479C67.2314 519.819 67.4541 520.112 67.7412 520.358C68.0225 520.61 68.3652 520.81 68.7695 520.956C69.1797 521.103 69.6367 521.176 70.1406 521.176C70.4512 521.176 70.7441 521.144 71.0195 521.079C71.2949 521.015 71.5557 520.927 71.8018 520.815C72.042 520.704 72.2617 520.575 72.4609 520.429C72.666 520.282 72.8506 520.127 73.0146 519.963C73.0322 520.162 73.0586 520.355 73.0938 520.543C73.1348 520.725 73.1875 520.877 73.252 521ZM70.3779 519.761C70.0615 519.761 69.7832 519.72 69.543 519.638C69.3027 519.556 69.1035 519.441 68.9453 519.295C68.7871 519.154 68.667 518.984 68.585 518.785C68.5088 518.586 68.4707 518.369 68.4707 518.135C68.4707 517.889 68.5146 517.669 68.6025 517.476C68.6963 517.282 68.8311 517.115 69.0068 516.975C69.2529 516.775 69.584 516.629 70 516.535C70.4219 516.436 70.9141 516.386 71.4766 516.386H72.9883V518.311C72.8945 518.498 72.7656 518.68 72.6016 518.855C72.4375 519.025 72.2441 519.178 72.0215 519.312C71.793 519.447 71.541 519.556 71.2656 519.638C70.9902 519.72 70.6943 519.761 70.3779 519.761ZM84.0449 511.314C83.3535 511.314 82.7354 511.467 82.1904 511.771C81.6514 512.07 81.1885 512.48 80.8018 513.002L80.793 512.765L80.7227 511.49H79.1758V521H80.8105V514.9C80.916 514.607 81.0479 514.344 81.2061 514.109C81.3701 513.869 81.5605 513.667 81.7773 513.503C82.0176 513.315 82.2988 513.175 82.6211 513.081C82.9434 512.981 83.3037 512.932 83.7021 512.932C84.0127 512.932 84.3086 512.949 84.5898 512.984C84.877 513.014 85.1787 513.063 85.4951 513.134L85.7148 511.543C85.5508 511.473 85.3047 511.417 84.9766 511.376C84.6543 511.335 84.3438 511.314 84.0449 511.314ZM88.6152 524.656H90.2412V520.086C90.3584 520.215 90.4844 520.335 90.6191 520.446C90.7539 520.552 90.8975 520.648 91.0498 520.736C91.3018 520.877 91.583 520.985 91.8936 521.062C92.21 521.138 92.5498 521.176 92.9131 521.176C93.5107 521.176 94.041 521.053 94.5039 520.807C94.9727 520.561 95.3652 520.221 95.6816 519.787C95.998 519.354 96.2383 518.844 96.4023 518.258C96.5664 517.666 96.6484 517.03 96.6484 516.351V516.166C96.6484 515.457 96.5664 514.807 96.4023 514.215C96.2383 513.617 95.998 513.104 95.6816 512.677C95.3652 512.249 94.9727 511.915 94.5039 511.675C94.0352 511.435 93.4961 511.314 92.8867 511.314C92.541 511.314 92.2158 511.353 91.9111 511.429C91.6123 511.499 91.3398 511.604 91.0938 511.745C90.918 511.839 90.7539 511.953 90.6016 512.088C90.4492 512.217 90.3086 512.363 90.1797 512.527L90.1006 511.49H88.6152V524.656ZM95.0225 516.166V516.351C95.0225 516.813 94.9697 517.256 94.8643 517.678C94.7646 518.1 94.6094 518.472 94.3984 518.794C94.1875 519.116 93.918 519.374 93.5898 519.567C93.2617 519.755 92.8721 519.849 92.4209 519.849C92.1396 519.849 91.8818 519.813 91.6475 519.743C91.4189 519.673 91.2109 519.576 91.0234 519.453C90.8594 519.348 90.7129 519.219 90.584 519.066C90.4551 518.914 90.3408 518.75 90.2412 518.574V513.995C90.3525 513.796 90.4814 513.614 90.6279 513.45C90.7744 513.286 90.9414 513.148 91.1289 513.037C91.2988 512.926 91.4893 512.841 91.7002 512.782C91.917 512.724 92.1514 512.694 92.4033 512.694C92.8604 512.694 93.2529 512.788 93.5811 512.976C93.9092 513.163 94.1816 513.415 94.3984 513.731C94.6094 514.054 94.7646 514.426 94.8643 514.848C94.9697 515.264 95.0225 515.703 95.0225 516.166ZM105.684 521H107.38V520.859C107.274 520.596 107.192 520.288 107.134 519.937C107.075 519.579 107.046 519.242 107.046 518.926V514.505C107.046 513.972 106.949 513.506 106.756 513.107C106.562 512.709 106.299 512.375 105.965 512.105C105.625 511.842 105.224 511.646 104.761 511.517C104.298 511.382 103.797 511.314 103.258 511.314C102.666 511.314 102.136 511.396 101.667 511.561C101.204 511.725 100.812 511.938 100.489 512.202C100.161 512.472 99.9092 512.773 99.7334 513.107C99.5635 513.441 99.4756 513.781 99.4697 514.127H101.104C101.104 513.928 101.151 513.737 101.245 513.556C101.345 513.368 101.482 513.207 101.658 513.072C101.834 512.938 102.048 512.829 102.3 512.747C102.558 512.665 102.848 512.624 103.17 512.624C103.516 512.624 103.826 512.668 104.102 512.756C104.383 512.844 104.62 512.967 104.813 513.125C105.007 513.289 105.156 513.485 105.262 513.714C105.367 513.942 105.42 514.2 105.42 514.487V515.234H103.645C102.982 515.234 102.382 515.299 101.843 515.428C101.31 515.557 100.853 515.75 100.472 516.008C100.091 516.271 99.7949 516.6 99.584 516.992C99.3789 517.385 99.2764 517.842 99.2764 518.363C99.2764 518.762 99.3525 519.134 99.5049 519.479C99.6631 519.819 99.8857 520.112 100.173 520.358C100.454 520.61 100.797 520.81 101.201 520.956C101.611 521.103 102.068 521.176 102.572 521.176C102.883 521.176 103.176 521.144 103.451 521.079C103.727 521.015 103.987 520.927 104.233 520.815C104.474 520.704 104.693 520.575 104.893 520.429C105.098 520.282 105.282 520.127 105.446 519.963C105.464 520.162 105.49 520.355 105.525 520.543C105.566 520.725 105.619 520.877 105.684 521ZM102.81 519.761C102.493 519.761 102.215 519.72 101.975 519.638C101.734 519.556 101.535 519.441 101.377 519.295C101.219 519.154 101.099 518.984 101.017 518.785C100.94 518.586 100.902 518.369 100.902 518.135C100.902 517.889 100.946 517.669 101.034 517.476C101.128 517.282 101.263 517.115 101.438 516.975C101.685 516.775 102.016 516.629 102.432 516.535C102.854 516.436 103.346 516.386 103.908 516.386H105.42V518.311C105.326 518.498 105.197 518.68 105.033 518.855C104.869 519.025 104.676 519.178 104.453 519.312C104.225 519.447 103.973 519.556 103.697 519.638C103.422 519.72 103.126 519.761 102.81 519.761ZM121.038 521H125.134C125.679 520.994 126.206 520.909 126.716 520.745C127.231 520.581 127.686 520.344 128.078 520.033C128.471 519.729 128.784 519.348 129.019 518.891C129.253 518.434 129.367 517.906 129.361 517.309C129.361 516.928 129.303 516.573 129.186 516.245C129.074 515.917 128.916 515.621 128.711 515.357C128.518 515.117 128.271 514.897 127.973 514.698C127.674 514.499 127.363 514.361 127.041 514.285V514.259C127.352 514.124 127.615 513.98 127.832 513.828C128.055 513.676 128.257 513.488 128.438 513.266C128.614 513.049 128.752 512.803 128.852 512.527C128.957 512.252 129.013 511.947 129.019 511.613C129.024 511.016 128.91 510.503 128.676 510.075C128.441 509.647 128.128 509.296 127.735 509.021C127.343 508.745 126.895 508.543 126.391 508.414C125.887 508.279 125.371 508.209 124.844 508.203H121.038V521ZM122.673 515.015H125.266C125.611 515.026 125.934 515.085 126.232 515.19C126.531 515.296 126.792 515.445 127.015 515.639C127.237 515.838 127.41 516.078 127.533 516.359C127.662 516.641 127.724 516.963 127.718 517.326C127.718 517.684 127.647 518.003 127.507 518.284C127.372 518.565 127.188 518.803 126.953 518.996C126.719 519.189 126.449 519.342 126.145 519.453C125.84 519.559 125.518 519.614 125.178 519.62H122.673V515.015ZM122.673 513.661V509.592H124.896C125.213 509.598 125.521 509.639 125.819 509.715C126.124 509.791 126.394 509.908 126.628 510.066C126.856 510.23 127.038 510.438 127.173 510.69C127.313 510.942 127.384 511.247 127.384 511.604C127.384 511.938 127.313 512.231 127.173 512.483C127.032 512.735 126.848 512.946 126.619 513.116C126.391 513.292 126.13 513.427 125.837 513.521C125.544 513.608 125.245 513.655 124.94 513.661H122.673ZM132.121 507.5V508.915H135.355V519.594H132.121V521H140.084V519.594H136.981V507.5H132.121ZM148.943 521H150.42V511.49H148.785V518.311C148.697 518.516 148.586 518.706 148.451 518.882C148.322 519.052 148.17 519.198 147.994 519.321C147.783 519.474 147.534 519.594 147.247 519.682C146.96 519.764 146.635 519.805 146.271 519.805C145.961 519.805 145.686 519.764 145.445 519.682C145.211 519.6 145.012 519.456 144.848 519.251C144.684 519.052 144.561 518.782 144.479 518.442C144.396 518.103 144.355 517.675 144.355 517.159V511.49H142.729V517.142C142.729 517.851 142.806 518.46 142.958 518.97C143.116 519.474 143.339 519.89 143.626 520.218C143.913 520.546 144.259 520.789 144.663 520.947C145.067 521.1 145.519 521.176 146.017 521.176C146.638 521.176 147.186 521.047 147.66 520.789C148.135 520.525 148.53 520.159 148.847 519.69L148.943 521Z" fill="#C8C8C8"/>
<rect x="185" y="191" width="165" height="165" rx="15" fill="#002B52"/>
<path d="M216.269 338.766C216.269 339.117 216.192 339.422 216.04 339.68C215.888 339.932 215.691 340.14 215.451 340.304C215.211 340.474 214.936 340.6 214.625 340.682C214.32 340.758 214.01 340.796 213.693 340.796C213.295 340.796 212.926 340.743 212.586 340.638C212.252 340.526 211.956 340.362 211.698 340.146C211.44 339.935 211.229 339.677 211.065 339.372C210.901 339.062 210.793 338.707 210.74 338.309H209.079C209.097 338.859 209.217 339.36 209.439 339.812C209.668 340.257 209.976 340.646 210.362 340.98C210.796 341.367 211.306 341.663 211.892 341.868C212.483 342.073 213.084 342.176 213.693 342.176C214.203 342.176 214.713 342.105 215.223 341.965C215.732 341.818 216.189 341.602 216.594 341.314C216.998 341.033 217.326 340.679 217.578 340.251C217.836 339.823 217.965 339.322 217.965 338.748C217.965 338.18 217.845 337.679 217.604 337.245C217.37 336.812 217.06 336.445 216.673 336.146C216.28 335.824 215.847 335.561 215.372 335.355C214.897 335.145 214.423 334.966 213.948 334.819C213.661 334.731 213.354 334.629 213.025 334.512C212.703 334.395 212.404 334.248 212.129 334.072C211.848 333.896 211.616 333.683 211.435 333.431C211.253 333.173 211.159 332.859 211.153 332.49C211.153 332.15 211.221 331.852 211.355 331.594C211.496 331.336 211.684 331.119 211.918 330.943C212.146 330.768 212.407 330.636 212.7 330.548C212.999 330.46 213.304 330.416 213.614 330.416C214.001 330.416 214.347 330.478 214.651 330.601C214.962 330.718 215.229 330.885 215.451 331.102C215.674 331.318 215.853 331.579 215.987 331.884C216.122 332.183 216.213 332.517 216.26 332.886H217.93C217.918 332.3 217.792 331.77 217.552 331.295C217.312 330.82 216.992 330.416 216.594 330.082C216.195 329.748 215.738 329.49 215.223 329.309C214.707 329.121 214.171 329.027 213.614 329.027C213.11 329.027 212.609 329.106 212.111 329.265C211.613 329.417 211.168 329.643 210.775 329.941C210.383 330.24 210.063 330.606 209.817 331.04C209.577 331.474 209.457 331.966 209.457 332.517C209.457 333.067 209.577 333.548 209.817 333.958C210.063 334.362 210.38 334.714 210.767 335.013C211.147 335.306 211.569 335.558 212.032 335.769C212.501 335.974 212.961 336.149 213.412 336.296C213.723 336.396 214.045 336.507 214.379 336.63C214.719 336.753 215.029 336.905 215.311 337.087C215.592 337.274 215.82 337.503 215.996 337.772C216.178 338.042 216.269 338.373 216.269 338.766ZM224.434 340.857C223.924 340.857 223.496 340.758 223.15 340.559C222.811 340.354 222.538 340.087 222.333 339.759C222.122 339.437 221.97 339.073 221.876 338.669C221.788 338.259 221.744 337.846 221.744 337.43V337.061C221.744 336.65 221.788 336.243 221.876 335.839C221.97 335.435 222.122 335.068 222.333 334.74C222.544 334.418 222.819 334.157 223.159 333.958C223.505 333.753 223.93 333.65 224.434 333.65C224.762 333.65 225.066 333.706 225.348 333.817C225.635 333.929 225.881 334.081 226.086 334.274C226.291 334.468 226.452 334.693 226.569 334.951C226.692 335.203 226.757 335.473 226.763 335.76H228.301C228.301 335.279 228.204 334.828 228.011 334.406C227.817 333.984 227.551 333.618 227.211 333.308C226.865 333.003 226.455 332.763 225.98 332.587C225.512 332.405 224.996 332.314 224.434 332.314C223.713 332.314 223.083 332.443 222.544 332.701C222.005 332.959 221.557 333.305 221.199 333.738C220.836 334.178 220.563 334.685 220.382 335.259C220.2 335.833 220.109 336.434 220.109 337.061V337.43C220.109 338.062 220.2 338.666 220.382 339.24C220.563 339.809 220.836 340.31 221.199 340.743C221.557 341.183 222.005 341.531 222.544 341.789C223.083 342.047 223.713 342.176 224.434 342.176C224.938 342.176 225.421 342.091 225.884 341.921C226.347 341.745 226.757 341.511 227.114 341.218C227.472 340.931 227.756 340.597 227.967 340.216C228.184 339.829 228.295 339.425 228.301 339.003H226.763C226.757 339.267 226.687 339.513 226.552 339.741C226.423 339.964 226.25 340.157 226.033 340.321C225.816 340.491 225.567 340.623 225.286 340.717C225.011 340.811 224.727 340.857 224.434 340.857ZM231.447 332.49V333.905H234.682V340.594H231.447V342H239.41V340.594H236.308V332.49H231.447ZM234.471 329.994C234.471 330.258 234.55 330.478 234.708 330.653C234.872 330.829 235.118 330.917 235.446 330.917C235.769 330.917 236.012 330.829 236.176 330.653C236.34 330.478 236.422 330.258 236.422 329.994C236.422 329.848 236.398 329.713 236.352 329.59C236.305 329.467 236.234 329.364 236.141 329.282C236.064 329.206 235.968 329.147 235.851 329.106C235.733 329.06 235.599 329.036 235.446 329.036C235.294 329.036 235.156 329.06 235.033 329.106C234.916 329.147 234.819 329.206 234.743 329.282C234.649 329.37 234.579 329.476 234.532 329.599C234.491 329.722 234.471 329.854 234.471 329.994ZM248.252 342H249.948V341.859C249.843 341.596 249.761 341.288 249.702 340.937C249.644 340.579 249.614 340.242 249.614 339.926V335.505C249.614 334.972 249.518 334.506 249.324 334.107C249.131 333.709 248.867 333.375 248.533 333.105C248.193 332.842 247.792 332.646 247.329 332.517C246.866 332.382 246.365 332.314 245.826 332.314C245.234 332.314 244.704 332.396 244.235 332.561C243.772 332.725 243.38 332.938 243.058 333.202C242.729 333.472 242.478 333.773 242.302 334.107C242.132 334.441 242.044 334.781 242.038 335.127H243.673C243.673 334.928 243.72 334.737 243.813 334.556C243.913 334.368 244.051 334.207 244.227 334.072C244.402 333.938 244.616 333.829 244.868 333.747C245.126 333.665 245.416 333.624 245.738 333.624C246.084 333.624 246.395 333.668 246.67 333.756C246.951 333.844 247.188 333.967 247.382 334.125C247.575 334.289 247.725 334.485 247.83 334.714C247.936 334.942 247.988 335.2 247.988 335.487V336.234H246.213C245.551 336.234 244.95 336.299 244.411 336.428C243.878 336.557 243.421 336.75 243.04 337.008C242.659 337.271 242.363 337.6 242.152 337.992C241.947 338.385 241.845 338.842 241.845 339.363C241.845 339.762 241.921 340.134 242.073 340.479C242.231 340.819 242.454 341.112 242.741 341.358C243.022 341.61 243.365 341.81 243.77 341.956C244.18 342.103 244.637 342.176 245.141 342.176C245.451 342.176 245.744 342.144 246.02 342.079C246.295 342.015 246.556 341.927 246.802 341.815C247.042 341.704 247.262 341.575 247.461 341.429C247.666 341.282 247.851 341.127 248.015 340.963C248.032 341.162 248.059 341.355 248.094 341.543C248.135 341.725 248.188 341.877 248.252 342ZM245.378 340.761C245.062 340.761 244.783 340.72 244.543 340.638C244.303 340.556 244.104 340.441 243.945 340.295C243.787 340.154 243.667 339.984 243.585 339.785C243.509 339.586 243.471 339.369 243.471 339.135C243.471 338.889 243.515 338.669 243.603 338.476C243.696 338.282 243.831 338.115 244.007 337.975C244.253 337.775 244.584 337.629 245 337.535C245.422 337.436 245.914 337.386 246.477 337.386H247.988V339.311C247.895 339.498 247.766 339.68 247.602 339.855C247.438 340.025 247.244 340.178 247.021 340.312C246.793 340.447 246.541 340.556 246.266 340.638C245.99 340.72 245.694 340.761 245.378 340.761ZM259.045 332.314C258.354 332.314 257.735 332.467 257.19 332.771C256.651 333.07 256.188 333.48 255.802 334.002L255.793 333.765L255.723 332.49H254.176V342H255.811V335.9C255.916 335.607 256.048 335.344 256.206 335.109C256.37 334.869 256.561 334.667 256.777 334.503C257.018 334.315 257.299 334.175 257.621 334.081C257.943 333.981 258.304 333.932 258.702 333.932C259.013 333.932 259.309 333.949 259.59 333.984C259.877 334.014 260.179 334.063 260.495 334.134L260.715 332.543C260.551 332.473 260.305 332.417 259.977 332.376C259.654 332.335 259.344 332.314 259.045 332.314ZM263.615 345.656H265.241V341.086C265.358 341.215 265.484 341.335 265.619 341.446C265.754 341.552 265.897 341.648 266.05 341.736C266.302 341.877 266.583 341.985 266.894 342.062C267.21 342.138 267.55 342.176 267.913 342.176C268.511 342.176 269.041 342.053 269.504 341.807C269.973 341.561 270.365 341.221 270.682 340.787C270.998 340.354 271.238 339.844 271.402 339.258C271.566 338.666 271.648 338.03 271.648 337.351V337.166C271.648 336.457 271.566 335.807 271.402 335.215C271.238 334.617 270.998 334.104 270.682 333.677C270.365 333.249 269.973 332.915 269.504 332.675C269.035 332.435 268.496 332.314 267.887 332.314C267.541 332.314 267.216 332.353 266.911 332.429C266.612 332.499 266.34 332.604 266.094 332.745C265.918 332.839 265.754 332.953 265.602 333.088C265.449 333.217 265.309 333.363 265.18 333.527L265.101 332.49H263.615V345.656ZM270.022 337.166V337.351C270.022 337.813 269.97 338.256 269.864 338.678C269.765 339.1 269.609 339.472 269.398 339.794C269.188 340.116 268.918 340.374 268.59 340.567C268.262 340.755 267.872 340.849 267.421 340.849C267.14 340.849 266.882 340.813 266.647 340.743C266.419 340.673 266.211 340.576 266.023 340.453C265.859 340.348 265.713 340.219 265.584 340.066C265.455 339.914 265.341 339.75 265.241 339.574V334.995C265.353 334.796 265.481 334.614 265.628 334.45C265.774 334.286 265.941 334.148 266.129 334.037C266.299 333.926 266.489 333.841 266.7 333.782C266.917 333.724 267.151 333.694 267.403 333.694C267.86 333.694 268.253 333.788 268.581 333.976C268.909 334.163 269.182 334.415 269.398 334.731C269.609 335.054 269.765 335.426 269.864 335.848C269.97 336.264 270.022 336.703 270.022 337.166ZM280.684 342H282.38V341.859C282.274 341.596 282.192 341.288 282.134 340.937C282.075 340.579 282.046 340.242 282.046 339.926V335.505C282.046 334.972 281.949 334.506 281.756 334.107C281.562 333.709 281.299 333.375 280.965 333.105C280.625 332.842 280.224 332.646 279.761 332.517C279.298 332.382 278.797 332.314 278.258 332.314C277.666 332.314 277.136 332.396 276.667 332.561C276.204 332.725 275.812 332.938 275.489 333.202C275.161 333.472 274.909 333.773 274.733 334.107C274.563 334.441 274.476 334.781 274.47 335.127H276.104C276.104 334.928 276.151 334.737 276.245 334.556C276.345 334.368 276.482 334.207 276.658 334.072C276.834 333.938 277.048 333.829 277.3 333.747C277.558 333.665 277.848 333.624 278.17 333.624C278.516 333.624 278.826 333.668 279.102 333.756C279.383 333.844 279.62 333.967 279.813 334.125C280.007 334.289 280.156 334.485 280.262 334.714C280.367 334.942 280.42 335.2 280.42 335.487V336.234H278.645C277.982 336.234 277.382 336.299 276.843 336.428C276.31 336.557 275.853 336.75 275.472 337.008C275.091 337.271 274.795 337.6 274.584 337.992C274.379 338.385 274.276 338.842 274.276 339.363C274.276 339.762 274.353 340.134 274.505 340.479C274.663 340.819 274.886 341.112 275.173 341.358C275.454 341.61 275.797 341.81 276.201 341.956C276.611 342.103 277.068 342.176 277.572 342.176C277.883 342.176 278.176 342.144 278.451 342.079C278.727 342.015 278.987 341.927 279.233 341.815C279.474 341.704 279.693 341.575 279.893 341.429C280.098 341.282 280.282 341.127 280.446 340.963C280.464 341.162 280.49 341.355 280.525 341.543C280.566 341.725 280.619 341.877 280.684 342ZM277.81 340.761C277.493 340.761 277.215 340.72 276.975 340.638C276.734 340.556 276.535 340.441 276.377 340.295C276.219 340.154 276.099 339.984 276.017 339.785C275.94 339.586 275.902 339.369 275.902 339.135C275.902 338.889 275.946 338.669 276.034 338.476C276.128 338.282 276.263 338.115 276.438 337.975C276.685 337.775 277.016 337.629 277.432 337.535C277.854 337.436 278.346 337.386 278.908 337.386H280.42V339.311C280.326 339.498 280.197 339.68 280.033 339.855C279.869 340.025 279.676 340.178 279.453 340.312C279.225 340.447 278.973 340.556 278.697 340.638C278.422 340.72 278.126 340.761 277.81 340.761ZM296.038 342H300.134C300.679 341.994 301.206 341.909 301.716 341.745C302.231 341.581 302.686 341.344 303.078 341.033C303.471 340.729 303.784 340.348 304.019 339.891C304.253 339.434 304.367 338.906 304.361 338.309C304.361 337.928 304.303 337.573 304.186 337.245C304.074 336.917 303.916 336.621 303.711 336.357C303.518 336.117 303.271 335.897 302.973 335.698C302.674 335.499 302.363 335.361 302.041 335.285V335.259C302.352 335.124 302.615 334.98 302.832 334.828C303.055 334.676 303.257 334.488 303.438 334.266C303.614 334.049 303.752 333.803 303.852 333.527C303.957 333.252 304.013 332.947 304.019 332.613C304.024 332.016 303.91 331.503 303.676 331.075C303.441 330.647 303.128 330.296 302.735 330.021C302.343 329.745 301.895 329.543 301.391 329.414C300.887 329.279 300.371 329.209 299.844 329.203H296.038V342ZM297.673 336.015H300.266C300.611 336.026 300.934 336.085 301.232 336.19C301.531 336.296 301.792 336.445 302.015 336.639C302.237 336.838 302.41 337.078 302.533 337.359C302.662 337.641 302.724 337.963 302.718 338.326C302.718 338.684 302.647 339.003 302.507 339.284C302.372 339.565 302.188 339.803 301.953 339.996C301.719 340.189 301.449 340.342 301.145 340.453C300.84 340.559 300.518 340.614 300.178 340.62H297.673V336.015ZM297.673 334.661V330.592H299.896C300.213 330.598 300.521 330.639 300.819 330.715C301.124 330.791 301.394 330.908 301.628 331.066C301.856 331.23 302.038 331.438 302.173 331.69C302.313 331.942 302.384 332.247 302.384 332.604C302.384 332.938 302.313 333.231 302.173 333.483C302.032 333.735 301.848 333.946 301.619 334.116C301.391 334.292 301.13 334.427 300.837 334.521C300.544 334.608 300.245 334.655 299.94 334.661H297.673ZM307.121 328.5V329.915H310.355V340.594H307.121V342H315.084V340.594H311.981V328.5H307.121ZM323.943 342H325.42V332.49H323.785V339.311C323.697 339.516 323.586 339.706 323.451 339.882C323.322 340.052 323.17 340.198 322.994 340.321C322.783 340.474 322.534 340.594 322.247 340.682C321.96 340.764 321.635 340.805 321.271 340.805C320.961 340.805 320.686 340.764 320.445 340.682C320.211 340.6 320.012 340.456 319.848 340.251C319.684 340.052 319.561 339.782 319.479 339.442C319.396 339.103 319.355 338.675 319.355 338.159V332.49H317.729V338.142C317.729 338.851 317.806 339.46 317.958 339.97C318.116 340.474 318.339 340.89 318.626 341.218C318.913 341.546 319.259 341.789 319.663 341.947C320.067 342.1 320.519 342.176 321.017 342.176C321.638 342.176 322.186 342.047 322.66 341.789C323.135 341.525 323.53 341.159 323.847 340.69L323.943 342Z" fill="#C8C8C8"/>
<rect x="10" y="191" width="165" height="165" rx="15" fill="#002B52"/>
<path d="M41.2686 338.766C41.2686 339.117 41.1924 339.422 41.04 339.68C40.8877 339.932 40.6914 340.14 40.4512 340.304C40.2109 340.474 39.9355 340.6 39.625 340.682C39.3203 340.758 39.0098 340.796 38.6934 340.796C38.2949 340.796 37.9258 340.743 37.5859 340.638C37.252 340.526 36.9561 340.362 36.6982 340.146C36.4404 339.935 36.2295 339.677 36.0654 339.372C35.9014 339.062 35.793 338.707 35.7402 338.309H34.0791C34.0967 338.859 34.2168 339.36 34.4395 339.812C34.668 340.257 34.9756 340.646 35.3623 340.98C35.7959 341.367 36.3057 341.663 36.8916 341.868C37.4834 342.073 38.084 342.176 38.6934 342.176C39.2031 342.176 39.7129 342.105 40.2227 341.965C40.7324 341.818 41.1895 341.602 41.5938 341.314C41.998 341.033 42.3262 340.679 42.5781 340.251C42.8359 339.823 42.9648 339.322 42.9648 338.748C42.9648 338.18 42.8447 337.679 42.6045 337.245C42.3701 336.812 42.0596 336.445 41.6729 336.146C41.2803 335.824 40.8467 335.561 40.3721 335.355C39.8975 335.145 39.4229 334.966 38.9482 334.819C38.6611 334.731 38.3535 334.629 38.0254 334.512C37.7031 334.395 37.4043 334.248 37.1289 334.072C36.8477 333.896 36.6162 333.683 36.4346 333.431C36.2529 333.173 36.1592 332.859 36.1533 332.49C36.1533 332.15 36.2207 331.852 36.3555 331.594C36.4961 331.336 36.6836 331.119 36.918 330.943C37.1465 330.768 37.4072 330.636 37.7002 330.548C37.999 330.46 38.3037 330.416 38.6143 330.416C39.001 330.416 39.3467 330.478 39.6514 330.601C39.9619 330.718 40.2285 330.885 40.4512 331.102C40.6738 331.318 40.8525 331.579 40.9873 331.884C41.1221 332.183 41.2129 332.517 41.2598 332.886H42.9297C42.918 332.3 42.792 331.77 42.5518 331.295C42.3115 330.82 41.9922 330.416 41.5938 330.082C41.1953 329.748 40.7383 329.49 40.2227 329.309C39.707 329.121 39.1709 329.027 38.6143 329.027C38.1104 329.027 37.6094 329.106 37.1113 329.265C36.6133 329.417 36.168 329.643 35.7754 329.941C35.3828 330.24 35.0635 330.606 34.8174 331.04C34.5771 331.474 34.457 331.966 34.457 332.517C34.457 333.067 34.5771 333.548 34.8174 333.958C35.0635 334.362 35.3799 334.714 35.7666 335.013C36.1475 335.306 36.5693 335.558 37.0322 335.769C37.501 335.974 37.9609 336.149 38.4121 336.296C38.7227 336.396 39.0449 336.507 39.3789 336.63C39.7188 336.753 40.0293 336.905 40.3105 337.087C40.5918 337.274 40.8203 337.503 40.9961 337.772C41.1777 338.042 41.2686 338.373 41.2686 338.766ZM49.4336 340.857C48.9238 340.857 48.4961 340.758 48.1504 340.559C47.8105 340.354 47.5381 340.087 47.333 339.759C47.1221 339.437 46.9697 339.073 46.876 338.669C46.7881 338.259 46.7441 337.846 46.7441 337.43V337.061C46.7441 336.65 46.7881 336.243 46.876 335.839C46.9697 335.435 47.1221 335.068 47.333 334.74C47.5439 334.418 47.8193 334.157 48.1592 333.958C48.5049 333.753 48.9297 333.65 49.4336 333.65C49.7617 333.65 50.0664 333.706 50.3477 333.817C50.6348 333.929 50.8809 334.081 51.0859 334.274C51.291 334.468 51.4521 334.693 51.5693 334.951C51.6924 335.203 51.7568 335.473 51.7627 335.76H53.3008C53.3008 335.279 53.2041 334.828 53.0107 334.406C52.8174 333.984 52.5508 333.618 52.2109 333.308C51.8652 333.003 51.4551 332.763 50.9805 332.587C50.5117 332.405 49.9961 332.314 49.4336 332.314C48.7129 332.314 48.083 332.443 47.5439 332.701C47.0049 332.959 46.5566 333.305 46.1992 333.738C45.8359 334.178 45.5635 334.685 45.3818 335.259C45.2002 335.833 45.1094 336.434 45.1094 337.061V337.43C45.1094 338.062 45.2002 338.666 45.3818 339.24C45.5635 339.809 45.8359 340.31 46.1992 340.743C46.5566 341.183 47.0049 341.531 47.5439 341.789C48.083 342.047 48.7129 342.176 49.4336 342.176C49.9375 342.176 50.4209 342.091 50.8838 341.921C51.3467 341.745 51.7568 341.511 52.1143 341.218C52.4717 340.931 52.7559 340.597 52.9668 340.216C53.1836 339.829 53.2949 339.425 53.3008 339.003H51.7627C51.7568 339.267 51.6865 339.513 51.5518 339.741C51.4229 339.964 51.25 340.157 51.0332 340.321C50.8164 340.491 50.5674 340.623 50.2861 340.717C50.0107 340.811 49.7266 340.857 49.4336 340.857ZM56.4473 332.49V333.905H59.6816V340.594H56.4473V342H64.4102V340.594H61.3076V332.49H56.4473ZM59.4707 329.994C59.4707 330.258 59.5498 330.478 59.708 330.653C59.8721 330.829 60.1182 330.917 60.4463 330.917C60.7686 330.917 61.0117 330.829 61.1758 330.653C61.3398 330.478 61.4219 330.258 61.4219 329.994C61.4219 329.848 61.3984 329.713 61.3516 329.59C61.3047 329.467 61.2344 329.364 61.1406 329.282C61.0645 329.206 60.9678 329.147 60.8506 329.106C60.7334 329.06 60.5986 329.036 60.4463 329.036C60.2939 329.036 60.1562 329.06 60.0332 329.106C59.916 329.147 59.8193 329.206 59.7432 329.282C59.6494 329.37 59.5791 329.476 59.5322 329.599C59.4912 329.722 59.4707 329.854 59.4707 329.994ZM73.252 342H74.9482V341.859C74.8428 341.596 74.7607 341.288 74.7021 340.937C74.6436 340.579 74.6143 340.242 74.6143 339.926V335.505C74.6143 334.972 74.5176 334.506 74.3242 334.107C74.1309 333.709 73.8672 333.375 73.5332 333.105C73.1934 332.842 72.792 332.646 72.3291 332.517C71.8662 332.382 71.3652 332.314 70.8262 332.314C70.2344 332.314 69.7041 332.396 69.2354 332.561C68.7725 332.725 68.3799 332.938 68.0576 333.202C67.7295 333.472 67.4775 333.773 67.3018 334.107C67.1318 334.441 67.0439 334.781 67.0381 335.127H68.6729C68.6729 334.928 68.7197 334.737 68.8135 334.556C68.9131 334.368 69.0508 334.207 69.2266 334.072C69.4023 333.938 69.6162 333.829 69.8682 333.747C70.126 333.665 70.416 333.624 70.7383 333.624C71.084 333.624 71.3945 333.668 71.6699 333.756C71.9512 333.844 72.1885 333.967 72.3818 334.125C72.5752 334.289 72.7246 334.485 72.8301 334.714C72.9355 334.942 72.9883 335.2 72.9883 335.487V336.234H71.2129C70.5508 336.234 69.9502 336.299 69.4111 336.428C68.8779 336.557 68.4209 336.75 68.04 337.008C67.6592 337.271 67.3633 337.6 67.1523 337.992C66.9473 338.385 66.8447 338.842 66.8447 339.363C66.8447 339.762 66.9209 340.134 67.0732 340.479C67.2314 340.819 67.4541 341.112 67.7412 341.358C68.0225 341.61 68.3652 341.81 68.7695 341.956C69.1797 342.103 69.6367 342.176 70.1406 342.176C70.4512 342.176 70.7441 342.144 71.0195 342.079C71.2949 342.015 71.5557 341.927 71.8018 341.815C72.042 341.704 72.2617 341.575 72.4609 341.429C72.666 341.282 72.8506 341.127 73.0146 340.963C73.0322 341.162 73.0586 341.355 73.0938 341.543C73.1348 341.725 73.1875 341.877 73.252 342ZM70.3779 340.761C70.0615 340.761 69.7832 340.72 69.543 340.638C69.3027 340.556 69.1035 340.441 68.9453 340.295C68.7871 340.154 68.667 339.984 68.585 339.785C68.5088 339.586 68.4707 339.369 68.4707 339.135C68.4707 338.889 68.5146 338.669 68.6025 338.476C68.6963 338.282 68.8311 338.115 69.0068 337.975C69.2529 337.775 69.584 337.629 70 337.535C70.4219 337.436 70.9141 337.386 71.4766 337.386H72.9883V339.311C72.8945 339.498 72.7656 339.68 72.6016 339.855C72.4375 340.025 72.2441 340.178 72.0215 340.312C71.793 340.447 71.541 340.556 71.2656 340.638C70.9902 340.72 70.6943 340.761 70.3779 340.761ZM84.0449 332.314C83.3535 332.314 82.7354 332.467 82.1904 332.771C81.6514 333.07 81.1885 333.48 80.8018 334.002L80.793 333.765L80.7227 332.49H79.1758V342H80.8105V335.9C80.916 335.607 81.0479 335.344 81.2061 335.109C81.3701 334.869 81.5605 334.667 81.7773 334.503C82.0176 334.315 82.2988 334.175 82.6211 334.081C82.9434 333.981 83.3037 333.932 83.7021 333.932C84.0127 333.932 84.3086 333.949 84.5898 333.984C84.877 334.014 85.1787 334.063 85.4951 334.134L85.7148 332.543C85.5508 332.473 85.3047 332.417 84.9766 332.376C84.6543 332.335 84.3438 332.314 84.0449 332.314ZM88.6152 345.656H90.2412V341.086C90.3584 341.215 90.4844 341.335 90.6191 341.446C90.7539 341.552 90.8975 341.648 91.0498 341.736C91.3018 341.877 91.583 341.985 91.8936 342.062C92.21 342.138 92.5498 342.176 92.9131 342.176C93.5107 342.176 94.041 342.053 94.5039 341.807C94.9727 341.561 95.3652 341.221 95.6816 340.787C95.998 340.354 96.2383 339.844 96.4023 339.258C96.5664 338.666 96.6484 338.03 96.6484 337.351V337.166C96.6484 336.457 96.5664 335.807 96.4023 335.215C96.2383 334.617 95.998 334.104 95.6816 333.677C95.3652 333.249 94.9727 332.915 94.5039 332.675C94.0352 332.435 93.4961 332.314 92.8867 332.314C92.541 332.314 92.2158 332.353 91.9111 332.429C91.6123 332.499 91.3398 332.604 91.0938 332.745C90.918 332.839 90.7539 332.953 90.6016 333.088C90.4492 333.217 90.3086 333.363 90.1797 333.527L90.1006 332.49H88.6152V345.656ZM95.0225 337.166V337.351C95.0225 337.813 94.9697 338.256 94.8643 338.678C94.7646 339.1 94.6094 339.472 94.3984 339.794C94.1875 340.116 93.918 340.374 93.5898 340.567C93.2617 340.755 92.8721 340.849 92.4209 340.849C92.1396 340.849 91.8818 340.813 91.6475 340.743C91.4189 340.673 91.2109 340.576 91.0234 340.453C90.8594 340.348 90.7129 340.219 90.584 340.066C90.4551 339.914 90.3408 339.75 90.2412 339.574V334.995C90.3525 334.796 90.4814 334.614 90.6279 334.45C90.7744 334.286 90.9414 334.148 91.1289 334.037C91.2988 333.926 91.4893 333.841 91.7002 333.782C91.917 333.724 92.1514 333.694 92.4033 333.694C92.8604 333.694 93.2529 333.788 93.5811 333.976C93.9092 334.163 94.1816 334.415 94.3984 334.731C94.6094 335.054 94.7646 335.426 94.8643 335.848C94.9697 336.264 95.0225 336.703 95.0225 337.166ZM105.684 342H107.38V341.859C107.274 341.596 107.192 341.288 107.134 340.937C107.075 340.579 107.046 340.242 107.046 339.926V335.505C107.046 334.972 106.949 334.506 106.756 334.107C106.562 333.709 106.299 333.375 105.965 333.105C105.625 332.842 105.224 332.646 104.761 332.517C104.298 332.382 103.797 332.314 103.258 332.314C102.666 332.314 102.136 332.396 101.667 332.561C101.204 332.725 100.812 332.938 100.489 333.202C100.161 333.472 99.9092 333.773 99.7334 334.107C99.5635 334.441 99.4756 334.781 99.4697 335.127H101.104C101.104 334.928 101.151 334.737 101.245 334.556C101.345 334.368 101.482 334.207 101.658 334.072C101.834 333.938 102.048 333.829 102.3 333.747C102.558 333.665 102.848 333.624 103.17 333.624C103.516 333.624 103.826 333.668 104.102 333.756C104.383 333.844 104.62 333.967 104.813 334.125C105.007 334.289 105.156 334.485 105.262 334.714C105.367 334.942 105.42 335.2 105.42 335.487V336.234H103.645C102.982 336.234 102.382 336.299 101.843 336.428C101.31 336.557 100.853 336.75 100.472 337.008C100.091 337.271 99.7949 337.6 99.584 337.992C99.3789 338.385 99.2764 338.842 99.2764 339.363C99.2764 339.762 99.3525 340.134 99.5049 340.479C99.6631 340.819 99.8857 341.112 100.173 341.358C100.454 341.61 100.797 341.81 101.201 341.956C101.611 342.103 102.068 342.176 102.572 342.176C102.883 342.176 103.176 342.144 103.451 342.079C103.727 342.015 103.987 341.927 104.233 341.815C104.474 341.704 104.693 341.575 104.893 341.429C105.098 341.282 105.282 341.127 105.446 340.963C105.464 341.162 105.49 341.355 105.525 341.543C105.566 341.725 105.619 341.877 105.684 342ZM102.81 340.761C102.493 340.761 102.215 340.72 101.975 340.638C101.734 340.556 101.535 340.441 101.377 340.295C101.219 340.154 101.099 339.984 101.017 339.785C100.94 339.586 100.902 339.369 100.902 339.135C100.902 338.889 100.946 338.669 101.034 338.476C101.128 338.282 101.263 338.115 101.438 337.975C101.685 337.775 102.016 337.629 102.432 337.535C102.854 337.436 103.346 337.386 103.908 337.386H105.42V339.311C105.326 339.498 105.197 339.68 105.033 339.855C104.869 340.025 104.676 340.178 104.453 340.312C104.225 340.447 103.973 340.556 103.697 340.638C103.422 340.72 103.126 340.761 102.81 340.761ZM121.038 342H125.134C125.679 341.994 126.206 341.909 126.716 341.745C127.231 341.581 127.686 341.344 128.078 341.033C128.471 340.729 128.784 340.348 129.019 339.891C129.253 339.434 129.367 338.906 129.361 338.309C129.361 337.928 129.303 337.573 129.186 337.245C129.074 336.917 128.916 336.621 128.711 336.357C128.518 336.117 128.271 335.897 127.973 335.698C127.674 335.499 127.363 335.361 127.041 335.285V335.259C127.352 335.124 127.615 334.98 127.832 334.828C128.055 334.676 128.257 334.488 128.438 334.266C128.614 334.049 128.752 333.803 128.852 333.527C128.957 333.252 129.013 332.947 129.019 332.613C129.024 332.016 128.91 331.503 128.676 331.075C128.441 330.647 128.128 330.296 127.735 330.021C127.343 329.745 126.895 329.543 126.391 329.414C125.887 329.279 125.371 329.209 124.844 329.203H121.038V342ZM122.673 336.015H125.266C125.611 336.026 125.934 336.085 126.232 336.19C126.531 336.296 126.792 336.445 127.015 336.639C127.237 336.838 127.41 337.078 127.533 337.359C127.662 337.641 127.724 337.963 127.718 338.326C127.718 338.684 127.647 339.003 127.507 339.284C127.372 339.565 127.188 339.803 126.953 339.996C126.719 340.189 126.449 340.342 126.145 340.453C125.84 340.559 125.518 340.614 125.178 340.62H122.673V336.015ZM122.673 334.661V330.592H124.896C125.213 330.598 125.521 330.639 125.819 330.715C126.124 330.791 126.394 330.908 126.628 331.066C126.856 331.23 127.038 331.438 127.173 331.69C127.313 331.942 127.384 332.247 127.384 332.604C127.384 332.938 127.313 333.231 127.173 333.483C127.032 333.735 126.848 333.946 126.619 334.116C126.391 334.292 126.13 334.427 125.837 334.521C125.544 334.608 125.245 334.655 124.94 334.661H122.673ZM132.121 328.5V329.915H135.355V340.594H132.121V342H140.084V340.594H136.981V328.5H132.121ZM148.943 342H150.42V332.49H148.785V339.311C148.697 339.516 148.586 339.706 148.451 339.882C148.322 340.052 148.17 340.198 147.994 340.321C147.783 340.474 147.534 340.594 147.247 340.682C146.96 340.764 146.635 340.805 146.271 340.805C145.961 340.805 145.686 340.764 145.445 340.682C145.211 340.6 145.012 340.456 144.848 340.251C144.684 340.052 144.561 339.782 144.479 339.442C144.396 339.103 144.355 338.675 144.355 338.159V332.49H142.729V338.142C142.729 338.851 142.806 339.46 142.958 339.97C143.116 340.474 143.339 340.89 143.626 341.218C143.913 341.546 144.259 341.789 144.663 341.947C145.067 342.1 145.519 342.176 146.017 342.176C146.638 342.176 147.186 342.047 147.66 341.789C148.135 341.525 148.53 341.159 148.847 340.69L148.943 342Z" fill="#C8C8C8"/>
<path d="M344.333 7C345.571 7 346.758 7.49166 347.633 8.36683C348.508 9.242 349 10.429 349 11.6667C349 12.9043 348.508 14.0913 347.633 14.9665C346.758 15.8417 345.571 16.3333 344.333 16.3333C343.096 16.3333 341.909 15.8417 341.034 14.9665C340.158 14.0913 339.667 12.9043 339.667 11.6667C339.667 10.429 340.158 9.242 341.034 8.36683C341.909 7.49166 343.096 7 344.333 7ZM344.333 18.6667C349.49 18.6667 353.667 20.755 353.667 23.3333V25.6667H335V23.3333C335 20.755 339.177 18.6667 344.333 18.6667Z" fill="#006ACB"/>
</g>
<defs>
<clipPath id="clip0">
<rect width="360" height="640" fill="white"/>
</clipPath>
</defs>
</svg>
