<svg width="360" height="640" viewBox="0 0 360 640" fill="none" xmlns="http://www.w3.org/2000/svg">
<rect width="360" height="640" fill="#0D1117"/>
<rect x="10" y="302" width="340" height="36" rx="5" fill="#006ACB"/>
<path d="M145.828 324.361C145.828 324.679 145.763 324.972 145.632 325.24C145.502 325.501 145.315 325.724 145.071 325.912C144.827 326.099 144.526 326.245 144.167 326.351C143.818 326.457 143.415 326.51 142.959 326.51C142.446 326.51 141.974 326.453 141.543 326.339C141.12 326.225 140.758 326.046 140.457 325.802C140.147 325.558 139.907 325.244 139.736 324.862C139.565 324.479 139.472 324.02 139.456 323.482H136.086C136.086 324.402 136.261 325.204 136.611 325.887C136.969 326.571 137.454 327.165 138.064 327.669C138.707 328.182 139.46 328.573 140.322 328.841C141.193 329.102 142.072 329.232 142.959 329.232C143.862 329.232 144.696 329.126 145.461 328.915C146.226 328.695 146.886 328.373 147.439 327.95C147.992 327.535 148.424 327.027 148.733 326.424C149.05 325.814 149.209 325.118 149.209 324.337C149.209 323.434 149.001 322.636 148.586 321.944C148.171 321.253 147.614 320.646 146.914 320.125C146.45 319.808 145.942 319.527 145.388 319.283C144.835 319.039 144.253 318.832 143.643 318.661C143.073 318.506 142.56 318.339 142.104 318.16C141.657 317.981 141.274 317.782 140.957 317.562C140.64 317.35 140.396 317.11 140.225 316.842C140.062 316.573 139.98 316.272 139.98 315.938C139.98 315.621 140.042 315.328 140.164 315.06C140.294 314.783 140.481 314.543 140.725 314.339C140.969 314.144 141.266 313.993 141.616 313.888C141.974 313.774 142.381 313.717 142.837 313.717C143.333 313.717 143.765 313.786 144.131 313.924C144.505 314.055 144.819 314.238 145.071 314.474C145.315 314.718 145.498 315.007 145.62 315.34C145.75 315.674 145.824 316.04 145.84 316.439H149.185C149.185 315.641 149.03 314.909 148.721 314.242C148.411 313.574 147.98 312.997 147.427 312.508C146.873 312.028 146.21 311.654 145.437 311.385C144.672 311.117 143.826 310.982 142.898 310.982C142.003 310.982 141.173 311.1 140.408 311.336C139.643 311.564 138.979 311.894 138.418 312.325C137.856 312.757 137.417 313.277 137.1 313.888C136.782 314.498 136.624 315.178 136.624 315.926C136.624 316.577 136.742 317.18 136.978 317.733C137.222 318.286 137.58 318.791 138.052 319.247C138.524 319.702 139.13 320.121 139.871 320.504C140.619 320.886 141.486 321.212 142.471 321.48C143.105 321.651 143.634 321.839 144.058 322.042C144.489 322.237 144.839 322.453 145.107 322.689C145.368 322.933 145.551 323.194 145.657 323.47C145.771 323.747 145.828 324.044 145.828 324.361ZM160.354 329H163.43V315.792H160.024V325.057C159.919 325.269 159.792 325.46 159.646 325.631C159.5 325.802 159.333 325.948 159.146 326.07C158.926 326.209 158.669 326.314 158.376 326.388C158.092 326.461 157.77 326.498 157.412 326.498C157.013 326.498 156.676 326.449 156.399 326.351C156.122 326.253 155.898 326.091 155.728 325.863C155.557 325.643 155.431 325.35 155.349 324.984C155.276 324.618 155.239 324.166 155.239 323.629V315.792H151.846V323.604C151.846 324.605 151.956 325.464 152.175 326.18C152.403 326.888 152.721 327.47 153.127 327.926C153.534 328.39 154.023 328.727 154.592 328.939C155.162 329.151 155.789 329.256 156.472 329.256C157.221 329.256 157.909 329.069 158.535 328.695C159.17 328.32 159.711 327.804 160.159 327.145L160.354 329ZM178.652 322.53V322.274C178.652 321.476 178.579 320.728 178.433 320.028C178.294 319.328 178.079 318.697 177.786 318.136C177.598 317.786 177.383 317.464 177.139 317.171C176.895 316.87 176.622 316.614 176.321 316.402C175.946 316.126 175.519 315.914 175.039 315.768C174.567 315.621 174.046 315.548 173.477 315.548C173.062 315.548 172.675 315.593 172.317 315.682C171.967 315.764 171.641 315.89 171.34 316.061C171.129 316.174 170.929 316.313 170.742 316.476C170.555 316.63 170.38 316.801 170.217 316.988V310.25H166.824V329H169.875L170.034 327.596C170.173 327.775 170.319 327.942 170.474 328.097C170.628 328.243 170.795 328.377 170.974 328.5C171.308 328.744 171.682 328.927 172.097 329.049C172.52 329.179 172.988 329.244 173.501 329.244C174.062 329.244 174.575 329.171 175.039 329.024C175.511 328.886 175.934 328.683 176.309 328.414C176.724 328.129 177.082 327.771 177.383 327.34C177.692 326.909 177.94 326.428 178.127 325.899C178.298 325.419 178.429 324.898 178.518 324.337C178.608 323.767 178.652 323.165 178.652 322.53ZM175.259 322.274V322.53C175.259 322.872 175.243 323.202 175.21 323.519C175.186 323.836 175.141 324.129 175.076 324.398C174.994 324.764 174.872 325.094 174.709 325.387C174.555 325.672 174.351 325.903 174.099 326.083C173.92 326.213 173.708 326.314 173.464 326.388C173.22 326.461 172.948 326.498 172.646 326.498C172.297 326.498 171.983 326.457 171.707 326.375C171.438 326.294 171.202 326.176 170.999 326.021C170.828 325.899 170.677 325.757 170.547 325.594C170.425 325.423 170.315 325.236 170.217 325.033V319.771C170.291 319.617 170.372 319.474 170.461 319.344C170.551 319.206 170.649 319.084 170.754 318.978C170.974 318.758 171.239 318.591 171.548 318.478C171.857 318.364 172.215 318.307 172.622 318.307C172.923 318.307 173.192 318.343 173.428 318.417C173.664 318.482 173.875 318.583 174.062 318.722C174.347 318.941 174.559 319.186 174.697 319.454C174.844 319.715 174.962 320.012 175.051 320.345C175.125 320.63 175.177 320.935 175.21 321.261C175.243 321.586 175.259 321.924 175.259 322.274ZM183.877 315.792H180.959V329H184.048V319.112C184.089 319.007 184.133 318.909 184.182 318.819C184.231 318.73 184.288 318.653 184.353 318.587C184.443 318.498 184.544 318.429 184.658 318.38C184.772 318.331 184.902 318.307 185.049 318.307C185.179 318.307 185.301 318.327 185.415 318.368C185.529 318.4 185.631 318.461 185.72 318.551C185.802 318.64 185.867 318.766 185.916 318.929C185.964 319.092 185.989 319.299 185.989 319.552V329H188.979V319.259C188.979 319.161 188.979 319.084 188.979 319.027C188.979 318.97 188.979 318.933 188.979 318.917C189.02 318.827 189.069 318.75 189.126 318.685C189.183 318.612 189.248 318.547 189.321 318.49C189.411 318.433 189.504 318.388 189.602 318.355C189.708 318.323 189.826 318.307 189.956 318.307C190.078 318.307 190.196 318.327 190.31 318.368C190.432 318.4 190.538 318.461 190.627 318.551C190.717 318.648 190.786 318.779 190.835 318.941C190.892 319.104 190.92 319.312 190.92 319.564V329H194.009V319.576C194.009 318.844 193.936 318.225 193.789 317.721C193.651 317.208 193.455 316.789 193.203 316.463C192.943 316.146 192.638 315.914 192.288 315.768C191.946 315.621 191.576 315.548 191.177 315.548C190.859 315.548 190.566 315.589 190.298 315.67C190.029 315.751 189.789 315.865 189.578 316.012C189.407 316.126 189.248 316.264 189.102 316.427C188.963 316.581 188.837 316.756 188.723 316.952C188.65 316.748 188.56 316.569 188.455 316.415C188.357 316.252 188.239 316.113 188.101 316C187.922 315.845 187.71 315.731 187.466 315.658C187.222 315.584 186.945 315.548 186.636 315.548C186.001 315.548 185.46 315.715 185.012 316.048C184.573 316.374 184.227 316.821 183.975 317.391L183.877 315.792ZM197.683 315.792V318.563H201.443V326.241H197.683V329H208.45V326.241H204.873V315.792H197.683ZM201.199 312.411C201.199 312.671 201.243 312.915 201.333 313.143C201.431 313.363 201.565 313.55 201.736 313.705C201.907 313.867 202.11 313.993 202.346 314.083C202.59 314.173 202.859 314.217 203.152 314.217C203.754 314.217 204.23 314.05 204.58 313.717C204.938 313.375 205.117 312.94 205.117 312.411C205.117 311.882 204.938 311.45 204.58 311.117C204.23 310.775 203.754 310.604 203.152 310.604C202.859 310.604 202.59 310.649 202.346 310.738C202.11 310.828 201.907 310.95 201.736 311.104C201.565 311.267 201.431 311.463 201.333 311.69C201.243 311.91 201.199 312.15 201.199 312.411ZM218.02 312.557H214.626V315.792H211.611V318.294H214.626V324.3C214.626 325.171 214.74 325.92 214.968 326.546C215.196 327.165 215.522 327.674 215.945 328.072C216.36 328.479 216.86 328.78 217.446 328.976C218.04 329.163 218.7 329.256 219.424 329.256C219.798 329.256 220.177 329.236 220.559 329.195C220.95 329.163 221.324 329.114 221.682 329.049C222.04 328.984 222.378 328.902 222.695 328.805C223.013 328.699 223.289 328.577 223.525 328.438L223.196 326.107C223.041 326.148 222.854 326.188 222.634 326.229C222.423 326.27 222.195 326.306 221.951 326.339C221.698 326.38 221.434 326.412 221.157 326.437C220.889 326.461 220.624 326.473 220.364 326.473C220.006 326.473 219.68 326.432 219.387 326.351C219.102 326.27 218.858 326.131 218.655 325.936C218.451 325.749 218.293 325.497 218.179 325.179C218.073 324.854 218.02 324.451 218.02 323.971V318.294H222.952V315.792H218.02V312.557Z" fill="white"/>
<rect x="9" y="238" width="342" height="38" rx="6" fill="white" stroke="#006ACB" stroke-width="2"/>
<path d="M18.1118 271.078H20.3701V264.73C20.5329 264.91 20.7078 265.076 20.895 265.231C21.0822 265.377 21.2816 265.512 21.4932 265.634C21.8431 265.829 22.2337 265.98 22.665 266.085C23.1045 266.191 23.5765 266.244 24.0811 266.244C24.9111 266.244 25.6476 266.073 26.2905 265.731C26.9416 265.39 27.4868 264.918 27.9263 264.315C28.3657 263.713 28.6994 263.005 28.9272 262.191C29.1551 261.369 29.269 260.486 29.269 259.542V259.286C29.269 258.301 29.1551 257.398 28.9272 256.576C28.6994 255.746 28.3657 255.034 27.9263 254.44C27.4868 253.846 26.9416 253.382 26.2905 253.048C25.6395 252.715 24.8908 252.548 24.0444 252.548C23.5643 252.548 23.1126 252.601 22.6895 252.707C22.2744 252.804 21.896 252.951 21.5542 253.146C21.3101 253.276 21.0822 253.435 20.8706 253.622C20.659 253.801 20.4637 254.005 20.2847 254.232L20.1748 252.792H18.1118V271.078ZM27.0107 259.286V259.542C27.0107 260.185 26.9375 260.8 26.791 261.386C26.6527 261.972 26.437 262.488 26.144 262.936C25.8511 263.384 25.4767 263.742 25.021 264.01C24.5653 264.271 24.0241 264.401 23.3975 264.401C23.0068 264.401 22.6488 264.352 22.3232 264.254C22.0059 264.157 21.717 264.022 21.4565 263.852C21.2287 263.705 21.0252 263.526 20.8462 263.314C20.6672 263.103 20.5085 262.875 20.3701 262.631V256.271C20.5247 255.994 20.7038 255.742 20.9072 255.514C21.1107 255.286 21.3426 255.095 21.603 254.94C21.839 254.786 22.1035 254.668 22.3965 254.586C22.6976 254.505 23.0231 254.464 23.373 254.464C24.0078 254.464 24.5531 254.595 25.0088 254.855C25.4645 255.115 25.8429 255.465 26.144 255.905C26.437 256.352 26.6527 256.869 26.791 257.455C26.9375 258.033 27.0107 258.643 27.0107 259.286ZM41.8179 266H44.1738V265.805C44.0273 265.438 43.9134 265.011 43.832 264.523C43.7507 264.027 43.71 263.559 43.71 263.119V256.979C43.71 256.238 43.5757 255.591 43.3071 255.038C43.0386 254.485 42.6724 254.021 42.2085 253.646C41.7365 253.28 41.179 253.008 40.5361 252.829C39.8932 252.641 39.1974 252.548 38.4487 252.548C37.6268 252.548 36.8903 252.662 36.2393 252.89C35.5964 253.118 35.0511 253.415 34.6035 253.781C34.1478 254.155 33.7979 254.574 33.5537 255.038C33.3177 255.502 33.1956 255.974 33.1875 256.454H35.458C35.458 256.177 35.5231 255.913 35.6533 255.661C35.7917 255.4 35.9829 255.176 36.2271 254.989C36.4712 254.802 36.7682 254.652 37.1182 254.538C37.4762 254.424 37.8791 254.367 38.3267 254.367C38.8068 254.367 39.2381 254.428 39.6206 254.55C40.0112 254.672 40.3408 254.843 40.6094 255.062C40.8779 255.29 41.0854 255.563 41.2319 255.88C41.3784 256.198 41.4517 256.556 41.4517 256.955V257.992H38.9858C38.0662 257.992 37.2321 258.082 36.4834 258.261C35.7428 258.44 35.1081 258.708 34.5791 259.066C34.0501 259.433 33.6392 259.888 33.3462 260.434C33.0614 260.979 32.9189 261.614 32.9189 262.338C32.9189 262.891 33.0247 263.408 33.2363 263.888C33.4561 264.36 33.7653 264.767 34.1641 265.109C34.5547 265.459 35.0308 265.736 35.5923 265.939C36.1619 266.142 36.7967 266.244 37.4966 266.244C37.9279 266.244 38.3348 266.199 38.7173 266.11C39.0998 266.02 39.4619 265.898 39.8037 265.744C40.1374 265.589 40.4425 265.41 40.7192 265.207C41.0041 265.003 41.2604 264.787 41.4883 264.56C41.5127 264.836 41.5493 265.105 41.5981 265.365C41.6551 265.618 41.7284 265.829 41.8179 266ZM37.8262 264.279C37.3867 264.279 37.0002 264.222 36.6665 264.108C36.3328 263.994 36.0562 263.835 35.8364 263.632C35.6167 263.437 35.4499 263.201 35.3359 262.924C35.2301 262.647 35.1772 262.346 35.1772 262.021C35.1772 261.679 35.2383 261.374 35.3604 261.105C35.4906 260.836 35.6777 260.604 35.9219 260.409C36.2637 260.132 36.7235 259.929 37.3013 259.799C37.8872 259.66 38.5708 259.591 39.3521 259.591H41.4517V262.265C41.3215 262.525 41.1424 262.777 40.9146 263.021C40.6867 263.257 40.4181 263.469 40.1089 263.656C39.7915 263.843 39.4416 263.994 39.0591 264.108C38.6766 264.222 38.2656 264.279 37.8262 264.279ZM56.9302 262.497C56.9302 262.708 56.8895 262.908 56.8081 263.095C56.7267 263.282 56.6087 263.453 56.4541 263.607C56.2018 263.86 55.8519 264.059 55.4043 264.206C54.9567 264.344 54.4318 264.413 53.8296 264.413C53.4471 264.413 53.0605 264.372 52.6699 264.291C52.2793 264.21 51.9253 264.071 51.6079 263.876C51.2824 263.681 51.0098 263.424 50.79 263.107C50.5785 262.79 50.4564 262.399 50.4238 261.935H48.1655C48.1655 262.497 48.2917 263.038 48.5439 263.559C48.8044 264.079 49.1787 264.535 49.667 264.926C50.1471 265.325 50.7371 265.646 51.437 265.89C52.1369 266.126 52.9344 266.244 53.8296 266.244C54.6108 266.244 55.3311 266.151 55.9902 265.963C56.6494 265.776 57.215 265.512 57.687 265.17C58.159 264.828 58.5252 264.417 58.7856 263.937C59.0542 263.457 59.1885 262.924 59.1885 262.338C59.1885 261.793 59.0705 261.312 58.8345 260.897C58.6066 260.482 58.2729 260.116 57.8335 259.799C57.394 259.49 56.8529 259.225 56.21 259.005C55.5671 258.778 54.8387 258.578 54.0249 258.407C53.4064 258.285 52.8937 258.159 52.4868 258.029C52.0881 257.899 51.7707 257.752 51.5347 257.589C51.2905 257.427 51.1196 257.243 51.022 257.04C50.9243 256.837 50.8755 256.605 50.8755 256.344C50.8755 256.092 50.9365 255.848 51.0586 255.612C51.1807 255.376 51.3638 255.168 51.6079 254.989C51.8439 254.81 52.141 254.668 52.499 254.562C52.8652 254.456 53.2884 254.403 53.7686 254.403C54.2324 254.403 54.6475 254.468 55.0137 254.599C55.388 254.729 55.7054 254.9 55.9658 255.111C56.2262 255.323 56.4297 255.567 56.5762 255.844C56.7227 256.112 56.7959 256.389 56.7959 256.674H59.0542C59.0542 256.096 58.9281 255.559 58.6758 255.062C58.4316 254.558 58.0817 254.118 57.626 253.744C57.1702 253.37 56.6169 253.077 55.9658 252.865C55.3148 252.654 54.5824 252.548 53.7686 252.548C53.0117 252.548 52.3159 252.65 51.6812 252.853C51.0545 253.056 50.5133 253.333 50.0576 253.683C49.6019 254.033 49.2479 254.444 48.9956 254.916C48.7433 255.38 48.6172 255.88 48.6172 256.417C48.6172 256.963 48.7393 257.443 48.9834 257.858C49.2275 258.265 49.5734 258.619 50.021 258.92C50.4604 259.229 50.9894 259.494 51.6079 259.713C52.2345 259.933 52.9263 260.12 53.6831 260.275C54.3016 260.397 54.8184 260.535 55.2334 260.69C55.6484 260.836 55.9821 260.999 56.2344 261.178C56.4867 261.357 56.6657 261.557 56.7715 261.776C56.8773 261.988 56.9302 262.228 56.9302 262.497ZM71.9448 262.497C71.9448 262.708 71.9041 262.908 71.8228 263.095C71.7414 263.282 71.6234 263.453 71.4688 263.607C71.2165 263.86 70.8665 264.059 70.4189 264.206C69.9714 264.344 69.4465 264.413 68.8442 264.413C68.4618 264.413 68.0752 264.372 67.6846 264.291C67.2939 264.21 66.9399 264.071 66.6226 263.876C66.297 263.681 66.0244 263.424 65.8047 263.107C65.5931 262.79 65.471 262.399 65.4385 261.935H63.1802C63.1802 262.497 63.3063 263.038 63.5586 263.559C63.819 264.079 64.1934 264.535 64.6816 264.926C65.1618 265.325 65.7518 265.646 66.4517 265.89C67.1515 266.126 67.9491 266.244 68.8442 266.244C69.6255 266.244 70.3457 266.151 71.0049 265.963C71.6641 265.776 72.2297 265.512 72.7017 265.17C73.1737 264.828 73.5399 264.417 73.8003 263.937C74.0688 263.457 74.2031 262.924 74.2031 262.338C74.2031 261.793 74.0851 261.312 73.8491 260.897C73.6213 260.482 73.2876 260.116 72.8481 259.799C72.4087 259.49 71.8675 259.225 71.2246 259.005C70.5817 258.778 69.8534 258.578 69.0396 258.407C68.4211 258.285 67.9084 258.159 67.5015 258.029C67.1027 257.899 66.7853 257.752 66.5493 257.589C66.3052 257.427 66.1343 257.243 66.0366 257.04C65.939 256.837 65.8901 256.605 65.8901 256.344C65.8901 256.092 65.9512 255.848 66.0732 255.612C66.1953 255.376 66.3784 255.168 66.6226 254.989C66.8586 254.81 67.1556 254.668 67.5137 254.562C67.8799 254.456 68.3031 254.403 68.7832 254.403C69.2471 254.403 69.6621 254.468 70.0283 254.599C70.4027 254.729 70.7201 254.9 70.9805 255.111C71.2409 255.323 71.4443 255.567 71.5908 255.844C71.7373 256.112 71.8105 256.389 71.8105 256.674H74.0688C74.0688 256.096 73.9427 255.559 73.6904 255.062C73.4463 254.558 73.0964 254.118 72.6406 253.744C72.1849 253.37 71.6315 253.077 70.9805 252.865C70.3294 252.654 69.597 252.548 68.7832 252.548C68.0264 252.548 67.3306 252.65 66.6958 252.853C66.0692 253.056 65.528 253.333 65.0723 253.683C64.6165 254.033 64.2625 254.444 64.0103 254.916C63.758 255.38 63.6318 255.88 63.6318 256.417C63.6318 256.963 63.7539 257.443 63.998 257.858C64.2422 258.265 64.5881 258.619 65.0356 258.92C65.4751 259.229 66.0041 259.494 66.6226 259.713C67.2492 259.933 67.9409 260.12 68.6978 260.275C69.3162 260.397 69.833 260.535 70.248 260.69C70.6631 260.836 70.9967 260.999 71.249 261.178C71.5013 261.357 71.6803 261.557 71.7861 261.776C71.8919 261.988 71.9448 262.228 71.9448 262.497ZM79.4521 266H81.2344L83.2729 257.907L83.6025 255.856L83.9443 257.907L86.0073 266H87.7896L90.5972 252.792H88.5952L87.1304 261.215L86.8008 263.29L86.4468 261.215L84.3472 252.792H82.8945L80.7827 261.215L80.4531 263.107L80.1846 261.215L78.6465 252.792H76.6445L79.4521 266ZM92.5625 259.274V259.542C92.5625 260.495 92.7008 261.378 92.9775 262.191C93.2542 263.005 93.653 263.713 94.1738 264.315C94.6865 264.918 95.3132 265.39 96.0537 265.731C96.8024 266.073 97.6447 266.244 98.5806 266.244C99.5083 266.244 100.342 266.073 101.083 265.731C101.824 265.39 102.454 264.918 102.975 264.315C103.488 263.713 103.882 263.005 104.159 262.191C104.436 261.378 104.574 260.495 104.574 259.542V259.274C104.574 258.322 104.436 257.439 104.159 256.625C103.882 255.803 103.488 255.091 102.975 254.489C102.454 253.887 101.819 253.415 101.071 253.073C100.33 252.723 99.492 252.548 98.5562 252.548C97.6284 252.548 96.7943 252.723 96.0537 253.073C95.3132 253.415 94.6865 253.887 94.1738 254.489C93.653 255.091 93.2542 255.803 92.9775 256.625C92.7008 257.439 92.5625 258.322 92.5625 259.274ZM94.8208 259.542V259.274C94.8208 258.631 94.8981 258.017 95.0527 257.431C95.2074 256.837 95.4434 256.316 95.7607 255.868C96.07 255.421 96.4565 255.067 96.9204 254.806C97.3843 254.538 97.9295 254.403 98.5562 254.403C99.1828 254.403 99.728 254.538 100.192 254.806C100.664 255.067 101.059 255.421 101.376 255.868C101.685 256.316 101.917 256.837 102.072 257.431C102.235 258.017 102.316 258.631 102.316 259.274V259.542C102.316 260.194 102.239 260.816 102.084 261.41C101.929 261.996 101.697 262.513 101.388 262.96C101.071 263.408 100.676 263.762 100.204 264.022C99.7402 264.283 99.1991 264.413 98.5806 264.413C97.9539 264.413 97.4046 264.283 96.9326 264.022C96.4606 263.762 96.07 263.408 95.7607 262.96C95.4434 262.513 95.2074 261.996 95.0527 261.41C94.8981 260.816 94.8208 260.194 94.8208 259.542ZM116.867 252.548C115.906 252.548 115.048 252.759 114.291 253.183C113.542 253.598 112.899 254.167 112.362 254.892L112.35 254.562L112.252 252.792H110.104V266H112.375V257.528C112.521 257.121 112.704 256.755 112.924 256.43C113.152 256.096 113.416 255.815 113.717 255.587C114.051 255.327 114.442 255.132 114.889 255.001C115.337 254.863 115.837 254.794 116.391 254.794C116.822 254.794 117.233 254.818 117.624 254.867C118.022 254.908 118.441 254.977 118.881 255.075L119.186 252.865C118.958 252.768 118.616 252.69 118.161 252.633C117.713 252.576 117.282 252.548 116.867 252.548ZM122.799 259.286V259.542C122.799 260.486 122.925 261.369 123.178 262.191C123.43 263.005 123.784 263.713 124.24 264.315C124.695 264.918 125.245 265.39 125.888 265.731C126.539 266.073 127.263 266.244 128.061 266.244C128.874 266.244 129.586 266.106 130.197 265.829C130.807 265.552 131.332 265.146 131.771 264.608L131.869 266H133.944V247.25H131.686V254.098C131.255 253.594 130.742 253.211 130.148 252.951C129.562 252.682 128.874 252.548 128.085 252.548C127.279 252.548 126.551 252.715 125.9 253.048C125.249 253.382 124.695 253.846 124.24 254.44C123.776 255.034 123.418 255.746 123.166 256.576C122.921 257.398 122.799 258.301 122.799 259.286ZM125.058 259.542V259.286C125.058 258.643 125.127 258.033 125.265 257.455C125.403 256.869 125.619 256.352 125.912 255.905C126.197 255.465 126.563 255.115 127.011 254.855C127.466 254.595 128.012 254.464 128.646 254.464C129.387 254.464 130.006 254.639 130.502 254.989C130.998 255.331 131.393 255.771 131.686 256.308V262.436C131.393 263.013 130.998 263.473 130.502 263.815C130.006 264.157 129.379 264.328 128.622 264.328C127.995 264.328 127.458 264.201 127.011 263.949C126.563 263.689 126.197 263.339 125.912 262.899C125.619 262.46 125.403 261.951 125.265 261.374C125.127 260.796 125.058 260.185 125.058 259.542Z" fill="#B6B6B6"/>
<rect x="9" y="175" width="342" height="38" rx="6" fill="white" stroke="#006ACB" stroke-width="2"/>
<path d="M18.124 203H20.3823V193.527C20.5369 193.243 20.716 192.982 20.9194 192.746C21.131 192.51 21.3589 192.303 21.603 192.124C21.9041 191.92 22.2337 191.761 22.5918 191.647C22.9499 191.525 23.3364 191.464 23.7515 191.464C24.2316 191.464 24.6548 191.521 25.021 191.635C25.3953 191.749 25.7127 191.932 25.9731 192.185C26.2254 192.437 26.4167 192.766 26.5469 193.173C26.6771 193.58 26.7422 194.077 26.7422 194.663V203H29.0005V194.614C29.0005 193.735 28.8906 192.978 28.6709 192.343C28.4593 191.7 28.1541 191.171 27.7554 190.756C27.3566 190.341 26.8724 190.036 26.3027 189.841C25.7412 189.646 25.1146 189.548 24.4229 189.548C23.9102 189.556 23.4219 189.633 22.958 189.78C22.5023 189.918 22.0791 190.118 21.6885 190.378C21.4281 190.549 21.1799 190.752 20.9438 190.988C20.716 191.216 20.5044 191.468 20.3091 191.745L20.1504 189.792H18.124V203ZM41.8179 203H44.1738V202.805C44.0273 202.438 43.9134 202.011 43.832 201.523C43.7507 201.027 43.71 200.559 43.71 200.119V193.979C43.71 193.238 43.5757 192.591 43.3071 192.038C43.0386 191.485 42.6724 191.021 42.2085 190.646C41.7365 190.28 41.179 190.008 40.5361 189.829C39.8932 189.641 39.1974 189.548 38.4487 189.548C37.6268 189.548 36.8903 189.662 36.2393 189.89C35.5964 190.118 35.0511 190.415 34.6035 190.781C34.1478 191.155 33.7979 191.574 33.5537 192.038C33.3177 192.502 33.1956 192.974 33.1875 193.454H35.458C35.458 193.177 35.5231 192.913 35.6533 192.661C35.7917 192.4 35.9829 192.176 36.2271 191.989C36.4712 191.802 36.7682 191.652 37.1182 191.538C37.4762 191.424 37.8791 191.367 38.3267 191.367C38.8068 191.367 39.2381 191.428 39.6206 191.55C40.0112 191.672 40.3408 191.843 40.6094 192.062C40.8779 192.29 41.0854 192.563 41.2319 192.88C41.3784 193.198 41.4517 193.556 41.4517 193.955V194.992H38.9858C38.0662 194.992 37.2321 195.082 36.4834 195.261C35.7428 195.44 35.1081 195.708 34.5791 196.066C34.0501 196.433 33.6392 196.888 33.3462 197.434C33.0614 197.979 32.9189 198.614 32.9189 199.338C32.9189 199.891 33.0247 200.408 33.2363 200.888C33.4561 201.36 33.7653 201.767 34.1641 202.109C34.5547 202.459 35.0308 202.736 35.5923 202.939C36.1619 203.142 36.7967 203.244 37.4966 203.244C37.9279 203.244 38.3348 203.199 38.7173 203.11C39.0998 203.02 39.4619 202.898 39.8037 202.744C40.1374 202.589 40.4425 202.41 40.7192 202.207C41.0041 202.003 41.2604 201.787 41.4883 201.56C41.5127 201.836 41.5493 202.105 41.5981 202.365C41.6551 202.618 41.7284 202.829 41.8179 203ZM37.8262 201.279C37.3867 201.279 37.0002 201.222 36.6665 201.108C36.3328 200.994 36.0562 200.835 35.8364 200.632C35.6167 200.437 35.4499 200.201 35.3359 199.924C35.2301 199.647 35.1772 199.346 35.1772 199.021C35.1772 198.679 35.2383 198.374 35.3604 198.105C35.4906 197.836 35.6777 197.604 35.9219 197.409C36.2637 197.132 36.7235 196.929 37.3013 196.799C37.8872 196.66 38.5708 196.591 39.3521 196.591H41.4517V199.265C41.3215 199.525 41.1424 199.777 40.9146 200.021C40.6867 200.257 40.4181 200.469 40.1089 200.656C39.7915 200.843 39.4416 200.994 39.0591 201.108C38.6766 201.222 38.2656 201.279 37.8262 201.279ZM49.1909 189.792H47.1646V203H49.313V192.49C49.3618 192.36 49.4229 192.237 49.4961 192.124C49.5775 192.01 49.6711 191.908 49.7769 191.818C49.9152 191.704 50.082 191.619 50.2773 191.562C50.4808 191.497 50.7168 191.464 50.9854 191.464C51.2295 191.464 51.4411 191.497 51.6201 191.562C51.8073 191.619 51.9619 191.713 52.084 191.843C52.2142 191.981 52.3078 192.156 52.3647 192.368C52.4299 192.579 52.4624 192.823 52.4624 193.1V203H54.6108V193.112C54.6108 193.063 54.6108 193.023 54.6108 192.99C54.6108 192.95 54.6108 192.909 54.6108 192.868C54.6353 192.665 54.6841 192.482 54.7573 192.319C54.8306 192.148 54.9323 191.997 55.0625 191.867C55.1927 191.745 55.3555 191.647 55.5508 191.574C55.7461 191.501 55.978 191.464 56.2466 191.464C56.4989 191.464 56.7186 191.497 56.9058 191.562C57.1011 191.627 57.2638 191.725 57.394 191.855C57.5161 191.993 57.6097 192.168 57.6748 192.38C57.7399 192.591 57.7725 192.836 57.7725 193.112V203H59.9209V193.137C59.9209 192.502 59.8477 191.953 59.7012 191.489C59.5547 191.017 59.3431 190.634 59.0664 190.341C58.8141 190.081 58.5049 189.886 58.1387 189.755C57.7725 189.617 57.3615 189.548 56.9058 189.548C56.5721 189.556 56.2629 189.601 55.978 189.682C55.7013 189.764 55.4491 189.873 55.2212 190.012C55.0422 190.134 54.8753 190.276 54.7207 190.439C54.5661 190.602 54.4318 190.777 54.3179 190.964C54.2284 190.76 54.1185 190.577 53.9883 190.415C53.8662 190.252 53.7279 190.113 53.5732 190C53.3617 189.853 53.1134 189.743 52.8286 189.67C52.5519 189.589 52.2386 189.548 51.8887 189.548C51.2702 189.556 50.7412 189.69 50.3018 189.951C49.8704 190.211 49.5205 190.573 49.252 191.037L49.1909 189.792ZM69.0029 203.244C70.2887 203.244 71.367 202.988 72.2378 202.475C73.1167 201.954 73.7759 201.36 74.2153 200.693L72.8359 199.619C72.4209 200.156 71.9001 200.587 71.2734 200.913C70.6468 201.238 69.9307 201.401 69.125 201.401C68.5146 201.401 67.9572 201.287 67.4526 201.059C66.9481 200.831 66.5168 200.518 66.1587 200.119C65.8088 199.745 65.5321 199.313 65.3286 198.825C65.1333 198.337 65.0072 197.771 64.9502 197.128V197.043H74.3862V196.03C74.3862 195.11 74.2682 194.256 74.0322 193.466C73.8044 192.677 73.4544 191.989 72.9824 191.403C72.5104 190.826 71.9163 190.374 71.2002 190.048C70.4922 189.715 69.6621 189.548 68.71 189.548C67.9531 189.548 67.2126 189.702 66.4883 190.012C65.7721 190.321 65.1333 190.764 64.5718 191.342C64.0021 191.928 63.5464 192.644 63.2046 193.491C62.8628 194.329 62.6919 195.281 62.6919 196.347V196.86C62.6919 197.779 62.8465 198.63 63.1558 199.411C63.465 200.192 63.8963 200.868 64.4497 201.438C65.0031 202.007 65.6663 202.451 66.4395 202.768C67.2207 203.085 68.0752 203.244 69.0029 203.244ZM68.71 191.403C69.2878 191.403 69.7842 191.509 70.1992 191.721C70.6224 191.932 70.9723 192.209 71.249 192.551C71.5257 192.893 71.7414 193.299 71.896 193.771C72.0506 194.235 72.1279 194.671 72.1279 195.078V195.188H65.0234C65.113 194.577 65.2676 194.04 65.4873 193.576C65.7152 193.104 65.9919 192.705 66.3174 192.38C66.6429 192.062 67.0091 191.822 67.416 191.66C67.8229 191.489 68.2542 191.403 68.71 191.403Z" fill="#B6B6B6"/>
<path d="M108.23 82.793V49.1875H100.52V89H126.879V82.793H108.23ZM132.867 73.9336V74.5078C132.867 76.6771 133.177 78.6823 133.797 80.5234C134.417 82.3464 135.328 83.9323 136.531 85.2812C137.716 86.6302 139.174 87.6875 140.906 88.4531C142.656 89.2005 144.643 89.5742 146.867 89.5742C149.073 89.5742 151.042 89.2005 152.773 88.4531C154.505 87.6875 155.964 86.6302 157.148 85.2812C158.333 83.9323 159.236 82.3464 159.855 80.5234C160.475 78.6823 160.785 76.6771 160.785 74.5078V73.9336C160.785 71.7826 160.475 69.7956 159.855 67.9727C159.236 66.1315 158.333 64.5365 157.148 63.1875C155.945 61.8385 154.478 60.7812 152.746 60.0156C151.014 59.25 149.036 58.8672 146.812 58.8672C144.589 58.8672 142.611 59.25 140.879 60.0156C139.165 60.7812 137.716 61.8385 136.531 63.1875C135.328 64.5365 134.417 66.1315 133.797 67.9727C133.177 69.7956 132.867 71.7826 132.867 73.9336ZM140.469 74.5078V73.9336C140.469 72.7305 140.587 71.5911 140.824 70.5156C141.061 69.4401 141.435 68.4922 141.945 67.6719C142.456 66.8516 143.112 66.2044 143.914 65.7305C144.716 65.2565 145.682 65.0195 146.812 65.0195C147.961 65.0195 148.936 65.2565 149.738 65.7305C150.54 66.2044 151.197 66.8516 151.707 67.6719C152.199 68.4922 152.564 69.4401 152.801 70.5156C153.038 71.5911 153.156 72.7305 153.156 73.9336V74.5078C153.156 75.7474 153.038 76.9141 152.801 78.0078C152.564 79.0833 152.199 80.0221 151.707 80.8242C151.197 81.6445 150.54 82.2917 149.738 82.7656C148.936 83.2396 147.979 83.4766 146.867 83.4766C145.719 83.4766 144.734 83.2396 143.914 82.7656C143.112 82.2917 142.456 81.6445 141.945 80.8242C141.435 80.0221 141.061 79.0833 140.824 78.0078C140.587 76.9141 140.469 75.7474 140.469 74.5078ZM166.773 73.9883V74.5625C166.773 76.7135 167.047 78.7096 167.594 80.5508C168.159 82.3737 168.961 83.9505 170 85.2812C171.039 86.612 172.288 87.6602 173.746 88.4258C175.223 89.1732 176.882 89.5469 178.723 89.5469C179.652 89.5469 180.518 89.4466 181.32 89.2461C182.141 89.0456 182.888 88.763 183.562 88.3984C184.018 88.1432 184.447 87.8516 184.848 87.5234C185.249 87.1953 185.632 86.8307 185.996 86.4297V88.125C185.996 89.1276 185.85 90.0299 185.559 90.832C185.285 91.6341 184.884 92.3086 184.355 92.8555C183.772 93.457 183.043 93.9128 182.168 94.2227C181.311 94.5326 180.327 94.6875 179.215 94.6875C178.522 94.6875 177.848 94.6146 177.191 94.4688C176.553 94.3411 175.934 94.1406 175.332 93.8672C174.712 93.5938 174.12 93.2383 173.555 92.8008C172.99 92.3815 172.461 91.8893 171.969 91.3242L168.551 95.9453C169.189 96.7656 169.954 97.4674 170.848 98.0508C171.741 98.6523 172.689 99.1445 173.691 99.5273C174.694 99.9102 175.706 100.193 176.727 100.375C177.747 100.557 178.704 100.648 179.598 100.648C181.676 100.648 183.572 100.366 185.285 99.8008C187.017 99.2539 188.503 98.4427 189.742 97.3672C190.964 96.2917 191.911 94.9701 192.586 93.4023C193.279 91.8346 193.625 90.0482 193.625 88.043V59.4141H186.707L186.406 62.2305C186.042 61.7747 185.641 61.3646 185.203 61C184.766 60.6172 184.292 60.2891 183.781 60.0156C183.107 59.6328 182.35 59.3503 181.512 59.168C180.691 58.9674 179.78 58.8672 178.777 58.8672C176.918 58.8672 175.25 59.2318 173.773 59.9609C172.297 60.6901 171.039 61.7201 170 63.0508C168.961 64.3815 168.159 65.9766 167.594 67.8359C167.047 69.6953 166.773 71.7461 166.773 73.9883ZM174.402 74.5625V73.9883C174.402 72.7487 174.53 71.5911 174.785 70.5156C175.04 69.4219 175.432 68.4648 175.961 67.6445C176.471 66.8424 177.118 66.2135 177.902 65.7578C178.686 65.2839 179.616 65.0469 180.691 65.0469C181.275 65.0469 181.812 65.1016 182.305 65.2109C182.815 65.3203 183.28 65.4753 183.699 65.6758C184.191 65.9128 184.629 66.2227 185.012 66.6055C185.395 66.9883 185.723 67.4349 185.996 67.9453V80.4688C185.741 80.9245 185.44 81.3346 185.094 81.6992C184.747 82.0638 184.346 82.3737 183.891 82.6289C183.453 82.8659 182.961 83.0482 182.414 83.1758C181.885 83.3034 181.293 83.3672 180.637 83.3672C179.561 83.3672 178.632 83.1393 177.848 82.6836C177.064 82.2279 176.417 81.599 175.906 80.7969C175.396 80.013 175.013 79.0924 174.758 78.0352C174.521 76.9596 174.402 75.8021 174.402 74.5625ZM203.195 59.4141V65.6211H211.617V82.8203H203.195V89H227.312V82.8203H219.301V59.4141H203.195ZM211.07 51.8398C211.07 52.4232 211.171 52.9701 211.371 53.4805C211.59 53.9727 211.891 54.3919 212.273 54.7383C212.656 55.1029 213.112 55.3854 213.641 55.5859C214.188 55.7865 214.789 55.8867 215.445 55.8867C216.794 55.8867 217.861 55.513 218.645 54.7656C219.447 54 219.848 53.0247 219.848 51.8398C219.848 50.6549 219.447 49.6888 218.645 48.9414C217.861 48.1758 216.794 47.793 215.445 47.793C214.789 47.793 214.188 47.8932 213.641 48.0938C213.112 48.2943 212.656 48.5677 212.273 48.9141C211.891 49.2786 211.59 49.7161 211.371 50.2266C211.171 50.7188 211.07 51.2565 211.07 51.8398ZM234.805 89H242.434V67.9727C242.689 67.5716 242.971 67.207 243.281 66.8789C243.591 66.5508 243.938 66.2682 244.32 66.0312C244.794 65.7031 245.332 65.457 245.934 65.293C246.553 65.1289 247.228 65.0469 247.957 65.0469C248.832 65.0469 249.616 65.138 250.309 65.3203C251.001 65.4844 251.594 65.7852 252.086 66.2227C252.578 66.6602 252.952 67.2617 253.207 68.0273C253.48 68.7747 253.617 69.7318 253.617 70.8984V89H261.219V70.7891C261.219 68.638 260.964 66.8151 260.453 65.3203C259.961 63.8073 259.268 62.5677 258.375 61.6016C257.464 60.6536 256.388 59.9609 255.148 59.5234C253.909 59.0859 252.542 58.8672 251.047 58.8672C249.88 58.8672 248.777 59.0312 247.738 59.3594C246.699 59.6875 245.742 60.1615 244.867 60.7812C244.357 61.1458 243.874 61.556 243.418 62.0117C242.962 62.4674 242.543 62.9688 242.16 63.5156L241.695 59.4141H234.805V89Z" fill="white"/>
<path d="M350 12.91L347.09 10L342 15.09L336.91 10L334 12.91L339.09 18L334 23.09L336.91 26L342 20.91L347.09 26L350 23.09L344.91 18L350 12.91Z" fill="white"/>
</svg>
