<svg width="360" height="640" viewBox="0 0 360 640" fill="none" xmlns="http://www.w3.org/2000/svg">
<rect width="360" height="640" fill="#0D1117"/>
<rect x="10" y="441" width="340" height="36" rx="5" fill="#A40000"/>
<path d="M98.5259 468H103.299C104.088 468 104.829 467.902 105.521 467.707C106.22 467.512 106.859 467.231 107.437 466.865C107.933 466.556 108.389 466.173 108.804 465.717C109.219 465.253 109.581 464.749 109.891 464.204C110.216 463.593 110.468 462.922 110.647 462.189C110.826 461.457 110.916 460.68 110.916 459.858V458.393C110.916 457.539 110.818 456.733 110.623 455.976C110.436 455.219 110.167 454.528 109.817 453.901C109.516 453.388 109.162 452.916 108.755 452.485C108.357 452.045 107.901 451.675 107.388 451.374C106.802 451.008 106.151 450.727 105.435 450.532C104.719 450.328 103.95 450.227 103.128 450.227H98.5259V468ZM101.98 453.01H103.128C103.543 453.01 103.925 453.059 104.275 453.156C104.633 453.246 104.959 453.376 105.252 453.547C105.634 453.775 105.968 454.068 106.253 454.426C106.546 454.784 106.782 455.191 106.961 455.646C107.107 456.029 107.217 456.452 107.291 456.916C107.372 457.372 107.413 457.856 107.413 458.369V459.858C107.413 460.403 107.372 460.912 107.291 461.384C107.217 461.848 107.107 462.271 106.961 462.653C106.782 463.093 106.566 463.479 106.314 463.813C106.07 464.139 105.793 464.407 105.484 464.619C105.183 464.822 104.849 464.977 104.483 465.083C104.117 465.188 103.722 465.241 103.299 465.241H101.98V453.01ZM120.145 468.244C121.422 468.244 122.529 467.996 123.465 467.5C124.401 467.003 125.084 466.45 125.516 465.839L123.819 464.008C123.428 464.513 122.92 464.891 122.293 465.144C121.666 465.396 121.019 465.522 120.352 465.522C119.88 465.522 119.445 465.449 119.046 465.302C118.647 465.156 118.293 464.948 117.984 464.68C117.683 464.419 117.443 464.13 117.264 463.813C117.085 463.487 116.938 463.06 116.824 462.531V462.495H125.784V461.054C125.784 460.086 125.65 459.203 125.381 458.405C125.113 457.6 124.722 456.912 124.209 456.342C123.689 455.773 123.054 455.333 122.305 455.024C121.565 454.707 120.718 454.548 119.766 454.548C118.847 454.548 117.996 454.715 117.215 455.048C116.434 455.382 115.758 455.85 115.188 456.452C114.619 457.054 114.175 457.775 113.858 458.613C113.541 459.443 113.382 460.362 113.382 461.372V461.86C113.382 462.747 113.541 463.581 113.858 464.362C114.183 465.135 114.643 465.807 115.237 466.376C115.831 466.954 116.543 467.41 117.374 467.744C118.204 468.077 119.127 468.244 120.145 468.244ZM119.742 457.294C120.173 457.294 120.551 457.364 120.877 457.502C121.211 457.632 121.491 457.811 121.719 458.039C121.947 458.275 122.126 458.552 122.256 458.869C122.387 459.187 122.452 459.524 122.452 459.882V460.151H116.885C116.967 459.72 117.089 459.329 117.251 458.979C117.414 458.629 117.618 458.328 117.862 458.076C118.098 457.823 118.375 457.632 118.692 457.502C119.009 457.364 119.359 457.294 119.742 457.294ZM129.458 449.25V452.021H133.414V465.241H129.458V468H140.628V465.241H136.844V449.25H129.458ZM150.174 468.244C151.451 468.244 152.558 467.996 153.494 467.5C154.43 467.003 155.114 466.45 155.545 465.839L153.848 464.008C153.458 464.513 152.949 464.891 152.322 465.144C151.696 465.396 151.049 465.522 150.381 465.522C149.909 465.522 149.474 465.449 149.075 465.302C148.676 465.156 148.322 464.948 148.013 464.68C147.712 464.419 147.472 464.13 147.293 463.813C147.114 463.487 146.967 463.06 146.854 462.531V462.495H155.813V461.054C155.813 460.086 155.679 459.203 155.411 458.405C155.142 457.6 154.751 456.912 154.239 456.342C153.718 455.773 153.083 455.333 152.334 455.024C151.594 454.707 150.748 454.548 149.795 454.548C148.876 454.548 148.025 454.715 147.244 455.048C146.463 455.382 145.787 455.85 145.218 456.452C144.648 457.054 144.205 457.775 143.887 458.613C143.57 459.443 143.411 460.362 143.411 461.372V461.86C143.411 462.747 143.57 463.581 143.887 464.362C144.213 465.135 144.673 465.807 145.267 466.376C145.861 466.954 146.573 467.41 147.403 467.744C148.233 468.077 149.157 468.244 150.174 468.244ZM149.771 457.294C150.202 457.294 150.581 457.364 150.906 457.502C151.24 457.632 151.521 457.811 151.749 458.039C151.976 458.275 152.155 458.552 152.286 458.869C152.416 459.187 152.481 459.524 152.481 459.882V460.151H146.915C146.996 459.72 147.118 459.329 147.281 458.979C147.444 458.629 147.647 458.328 147.891 458.076C148.127 457.823 148.404 457.632 148.721 457.502C149.039 457.364 149.389 457.294 149.771 457.294ZM165.005 451.557H161.612V454.792H158.597V457.294H161.612V463.3C161.612 464.171 161.726 464.92 161.954 465.546C162.181 466.165 162.507 466.674 162.93 467.072C163.345 467.479 163.846 467.78 164.432 467.976C165.026 468.163 165.685 468.256 166.409 468.256C166.784 468.256 167.162 468.236 167.544 468.195C167.935 468.163 168.309 468.114 168.667 468.049C169.026 467.984 169.363 467.902 169.681 467.805C169.998 467.699 170.275 467.577 170.511 467.438L170.181 465.107C170.027 465.148 169.839 465.188 169.62 465.229C169.408 465.27 169.18 465.306 168.936 465.339C168.684 465.38 168.419 465.412 168.143 465.437C167.874 465.461 167.61 465.473 167.349 465.473C166.991 465.473 166.666 465.432 166.373 465.351C166.088 465.27 165.844 465.131 165.64 464.936C165.437 464.749 165.278 464.497 165.164 464.179C165.058 463.854 165.005 463.451 165.005 462.971V457.294H169.937V454.792H165.005V451.557ZM180.203 468.244C181.481 468.244 182.588 467.996 183.523 467.5C184.459 467.003 185.143 466.45 185.574 465.839L183.877 464.008C183.487 464.513 182.978 464.891 182.352 465.144C181.725 465.396 181.078 465.522 180.411 465.522C179.939 465.522 179.503 465.449 179.104 465.302C178.706 465.156 178.352 464.948 178.042 464.68C177.741 464.419 177.501 464.13 177.322 463.813C177.143 463.487 176.997 463.06 176.883 462.531V462.495H185.843V461.054C185.843 460.086 185.708 459.203 185.44 458.405C185.171 457.6 184.781 456.912 184.268 456.342C183.747 455.773 183.112 455.333 182.364 455.024C181.623 454.707 180.777 454.548 179.825 454.548C178.905 454.548 178.055 454.715 177.273 455.048C176.492 455.382 175.817 455.85 175.247 456.452C174.677 457.054 174.234 457.775 173.917 458.613C173.599 459.443 173.44 460.362 173.44 461.372V461.86C173.44 462.747 173.599 463.581 173.917 464.362C174.242 465.135 174.702 465.807 175.296 466.376C175.89 466.954 176.602 467.41 177.432 467.744C178.262 468.077 179.186 468.244 180.203 468.244ZM179.8 457.294C180.232 457.294 180.61 457.364 180.936 457.502C181.269 457.632 181.55 457.811 181.778 458.039C182.006 458.275 182.185 458.552 182.315 458.869C182.445 459.187 182.51 459.524 182.51 459.882V460.151H176.944C177.025 459.72 177.147 459.329 177.31 458.979C177.473 458.629 177.676 458.328 177.92 458.076C178.156 457.823 178.433 457.632 178.75 457.502C179.068 457.364 179.418 457.294 179.8 457.294ZM215.542 450.227H212.137L212.125 462.006C212.116 462.584 212.055 463.093 211.941 463.532C211.827 463.972 211.657 464.338 211.429 464.631C211.217 464.916 210.949 465.131 210.623 465.278C210.306 465.416 209.939 465.485 209.524 465.485C209.142 465.485 208.804 465.42 208.511 465.29C208.218 465.152 207.97 464.948 207.767 464.68C207.547 464.387 207.38 464.016 207.266 463.569C207.16 463.121 207.103 462.6 207.095 462.006L207.083 450.227H203.653L203.641 462.006C203.641 462.999 203.779 463.886 204.056 464.667C204.34 465.441 204.739 466.092 205.252 466.621C205.765 467.15 206.379 467.552 207.095 467.829C207.819 468.106 208.629 468.244 209.524 468.244C210.477 468.244 211.323 468.106 212.063 467.829C212.812 467.552 213.447 467.146 213.968 466.608C214.48 466.079 214.871 465.428 215.14 464.655C215.416 463.882 215.555 462.999 215.555 462.006L215.542 450.227ZM227.359 464.375C227.359 464.578 227.306 464.765 227.2 464.936C227.103 465.107 226.952 465.257 226.749 465.388C226.537 465.518 226.264 465.624 225.931 465.705C225.605 465.778 225.223 465.815 224.783 465.815C224.417 465.815 224.059 465.778 223.709 465.705C223.367 465.632 223.062 465.514 222.793 465.351C222.525 465.196 222.305 464.993 222.134 464.741C221.963 464.48 221.866 464.171 221.841 463.813H218.606C218.606 464.35 218.737 464.887 218.997 465.424C219.266 465.953 219.656 466.425 220.169 466.84C220.682 467.264 221.316 467.605 222.073 467.866C222.838 468.126 223.717 468.256 224.71 468.256C225.613 468.256 226.431 468.159 227.164 467.963C227.896 467.76 228.523 467.479 229.043 467.121C229.556 466.763 229.951 466.34 230.228 465.852C230.512 465.355 230.655 464.814 230.655 464.228C230.655 463.593 230.512 463.048 230.228 462.592C229.951 462.128 229.564 461.734 229.068 461.408C228.571 461.091 227.981 460.83 227.298 460.627C226.614 460.424 225.874 460.257 225.076 460.126C224.523 460.045 224.067 459.951 223.709 459.846C223.351 459.732 223.07 459.606 222.867 459.467C222.655 459.337 222.509 459.191 222.427 459.028C222.346 458.857 222.305 458.674 222.305 458.479C222.305 458.283 222.35 458.1 222.439 457.929C222.537 457.75 222.675 457.596 222.854 457.465C223.05 457.319 223.302 457.205 223.611 457.124C223.921 457.042 224.283 457.001 224.698 457.001C225.186 457.001 225.601 457.062 225.943 457.185C226.293 457.307 226.569 457.469 226.773 457.673C226.919 457.827 227.029 458.002 227.103 458.198C227.176 458.385 227.212 458.588 227.212 458.808H230.606C230.606 458.198 230.472 457.632 230.203 457.111C229.935 456.59 229.548 456.139 229.043 455.756C228.531 455.382 227.908 455.089 227.176 454.877C226.443 454.658 225.617 454.548 224.698 454.548C223.819 454.548 223.029 454.658 222.33 454.877C221.63 455.097 221.036 455.394 220.547 455.769C220.059 456.143 219.685 456.578 219.424 457.075C219.164 457.571 219.034 458.092 219.034 458.637C219.034 459.199 219.16 459.695 219.412 460.126C219.673 460.558 220.031 460.936 220.486 461.262C220.942 461.595 221.487 461.88 222.122 462.116C222.765 462.344 223.473 462.535 224.246 462.69C224.856 462.804 225.361 462.918 225.76 463.032C226.159 463.146 226.48 463.268 226.724 463.398C226.96 463.536 227.123 463.683 227.212 463.837C227.31 463.992 227.359 464.171 227.359 464.375ZM240.262 468.244C241.539 468.244 242.646 467.996 243.582 467.5C244.518 467.003 245.201 466.45 245.633 465.839L243.936 464.008C243.545 464.513 243.037 464.891 242.41 465.144C241.784 465.396 241.137 465.522 240.469 465.522C239.997 465.522 239.562 465.449 239.163 465.302C238.764 465.156 238.41 464.948 238.101 464.68C237.8 464.419 237.56 464.13 237.381 463.813C237.202 463.487 237.055 463.06 236.941 462.531V462.495H245.901V461.054C245.901 460.086 245.767 459.203 245.499 458.405C245.23 457.6 244.839 456.912 244.327 456.342C243.806 455.773 243.171 455.333 242.422 455.024C241.682 454.707 240.835 454.548 239.883 454.548C238.964 454.548 238.113 454.715 237.332 455.048C236.551 455.382 235.875 455.85 235.306 456.452C234.736 457.054 234.292 457.775 233.975 458.613C233.658 459.443 233.499 460.362 233.499 461.372V461.86C233.499 462.747 233.658 463.581 233.975 464.362C234.301 465.135 234.76 465.807 235.354 466.376C235.949 466.954 236.661 467.41 237.491 467.744C238.321 468.077 239.244 468.244 240.262 468.244ZM239.859 457.294C240.29 457.294 240.669 457.364 240.994 457.502C241.328 457.632 241.609 457.811 241.836 458.039C242.064 458.275 242.243 458.552 242.374 458.869C242.504 459.187 242.569 459.524 242.569 459.882V460.151H237.002C237.084 459.72 237.206 459.329 237.369 458.979C237.531 458.629 237.735 458.328 237.979 458.076C238.215 457.823 238.492 457.632 238.809 457.502C239.126 457.364 239.476 457.294 239.859 457.294ZM258.353 454.548C257.465 454.548 256.648 454.764 255.899 455.195C255.15 455.618 254.507 456.204 253.97 456.953L253.946 456.66L253.812 454.792H250.65V468H254.043V460.065C254.198 459.691 254.393 459.366 254.629 459.089C254.865 458.812 255.15 458.584 255.484 458.405C255.761 458.251 256.074 458.137 256.424 458.063C256.782 457.982 257.181 457.941 257.62 457.941C258.043 457.941 258.487 457.97 258.951 458.027C259.423 458.076 259.882 458.153 260.33 458.259L260.831 454.877C260.562 454.796 260.208 454.723 259.769 454.658C259.337 454.584 258.865 454.548 258.353 454.548Z" fill="white"/>
<rect x="10" y="356" width="340" height="72" rx="5" fill="#007C00"/>
<path d="M160.828 397.361C160.828 397.679 160.763 397.972 160.632 398.24C160.502 398.501 160.315 398.724 160.071 398.912C159.827 399.099 159.526 399.245 159.167 399.351C158.818 399.457 158.415 399.51 157.959 399.51C157.446 399.51 156.974 399.453 156.543 399.339C156.12 399.225 155.758 399.046 155.457 398.802C155.147 398.558 154.907 398.244 154.736 397.862C154.565 397.479 154.472 397.02 154.456 396.482H151.086C151.086 397.402 151.261 398.204 151.611 398.887C151.969 399.571 152.454 400.165 153.064 400.669C153.707 401.182 154.46 401.573 155.322 401.841C156.193 402.102 157.072 402.232 157.959 402.232C158.862 402.232 159.696 402.126 160.461 401.915C161.226 401.695 161.886 401.373 162.439 400.95C162.992 400.535 163.424 400.027 163.733 399.424C164.05 398.814 164.209 398.118 164.209 397.337C164.209 396.434 164.001 395.636 163.586 394.944C163.171 394.253 162.614 393.646 161.914 393.125C161.45 392.808 160.942 392.527 160.388 392.283C159.835 392.039 159.253 391.832 158.643 391.661C158.073 391.506 157.56 391.339 157.104 391.16C156.657 390.981 156.274 390.782 155.957 390.562C155.64 390.35 155.396 390.11 155.225 389.842C155.062 389.573 154.98 389.272 154.98 388.938C154.98 388.621 155.042 388.328 155.164 388.06C155.294 387.783 155.481 387.543 155.725 387.339C155.969 387.144 156.266 386.993 156.616 386.888C156.974 386.774 157.381 386.717 157.837 386.717C158.333 386.717 158.765 386.786 159.131 386.924C159.505 387.055 159.819 387.238 160.071 387.474C160.315 387.718 160.498 388.007 160.62 388.34C160.75 388.674 160.824 389.04 160.84 389.439H164.185C164.185 388.641 164.03 387.909 163.721 387.242C163.411 386.574 162.98 385.997 162.427 385.508C161.873 385.028 161.21 384.654 160.437 384.385C159.672 384.117 158.826 383.982 157.898 383.982C157.003 383.982 156.173 384.1 155.408 384.336C154.643 384.564 153.979 384.894 153.418 385.325C152.856 385.757 152.417 386.277 152.1 386.888C151.782 387.498 151.624 388.178 151.624 388.926C151.624 389.577 151.742 390.18 151.978 390.733C152.222 391.286 152.58 391.791 153.052 392.247C153.524 392.702 154.13 393.121 154.871 393.504C155.619 393.886 156.486 394.212 157.471 394.48C158.105 394.651 158.634 394.839 159.058 395.042C159.489 395.237 159.839 395.453 160.107 395.689C160.368 395.933 160.551 396.194 160.657 396.47C160.771 396.747 160.828 397.044 160.828 397.361ZM174.988 402H178.43V401.792C178.259 401.459 178.129 401.06 178.04 400.596C177.95 400.132 177.905 399.546 177.905 398.838V393.174C177.905 392.409 177.763 391.738 177.478 391.16C177.193 390.574 176.799 390.09 176.294 389.708C175.789 389.325 175.191 389.036 174.5 388.841C173.816 388.646 173.075 388.548 172.278 388.548C171.391 388.548 170.601 388.662 169.91 388.89C169.226 389.109 168.648 389.41 168.176 389.793C167.696 390.175 167.33 390.619 167.078 391.124C166.833 391.628 166.711 392.161 166.711 392.723H170.105C170.105 392.487 170.138 392.271 170.203 392.076C170.276 391.88 170.386 391.714 170.532 391.575C170.695 391.421 170.907 391.303 171.167 391.221C171.427 391.132 171.737 391.087 172.095 391.087C172.502 391.087 172.856 391.14 173.157 391.246C173.466 391.343 173.722 391.486 173.926 391.673C174.121 391.852 174.268 392.068 174.365 392.32C174.463 392.564 174.512 392.841 174.512 393.15V393.931H172.62C171.643 393.931 170.776 394.021 170.02 394.2C169.271 394.371 168.64 394.623 168.127 394.957C167.558 395.323 167.131 395.791 166.846 396.36C166.561 396.922 166.418 397.569 166.418 398.301C166.418 398.871 166.532 399.4 166.76 399.888C166.988 400.368 167.306 400.783 167.712 401.133C168.119 401.483 168.604 401.756 169.165 401.951C169.735 402.146 170.357 402.244 171.033 402.244C171.448 402.244 171.834 402.203 172.192 402.122C172.55 402.049 172.88 401.943 173.181 401.805C173.474 401.674 173.743 401.52 173.987 401.341C174.231 401.162 174.447 400.971 174.634 400.767C174.674 401.003 174.723 401.227 174.78 401.438C174.837 401.65 174.906 401.837 174.988 402ZM171.753 399.62C171.436 399.62 171.155 399.583 170.911 399.51C170.675 399.428 170.475 399.323 170.312 399.192C170.15 399.054 170.024 398.887 169.934 398.692C169.853 398.488 169.812 398.269 169.812 398.033C169.812 397.732 169.869 397.455 169.983 397.203C170.097 396.942 170.272 396.718 170.508 396.531C170.744 396.352 171.049 396.214 171.423 396.116C171.798 396.01 172.249 395.958 172.778 395.958H174.512V398.228C174.414 398.399 174.28 398.57 174.109 398.741C173.938 398.903 173.735 399.05 173.499 399.18C173.263 399.31 172.998 399.416 172.705 399.498C172.412 399.579 172.095 399.62 171.753 399.62ZM185.95 402H189.136L194.153 388.792H190.613L187.72 398.106L187.537 399.034L187.354 398.106L184.448 388.792H180.908L185.95 402ZM203.174 402.244C204.451 402.244 205.558 401.996 206.494 401.5C207.43 401.003 208.114 400.45 208.545 399.839L206.848 398.008C206.458 398.513 205.949 398.891 205.322 399.144C204.696 399.396 204.049 399.522 203.381 399.522C202.909 399.522 202.474 399.449 202.075 399.302C201.676 399.156 201.322 398.948 201.013 398.68C200.712 398.419 200.472 398.13 200.293 397.813C200.114 397.487 199.967 397.06 199.854 396.531V396.495H208.813V395.054C208.813 394.086 208.679 393.203 208.411 392.405C208.142 391.6 207.751 390.912 207.239 390.342C206.718 389.773 206.083 389.333 205.334 389.024C204.594 388.707 203.748 388.548 202.795 388.548C201.876 388.548 201.025 388.715 200.244 389.048C199.463 389.382 198.787 389.85 198.218 390.452C197.648 391.054 197.205 391.775 196.887 392.613C196.57 393.443 196.411 394.362 196.411 395.372V395.86C196.411 396.747 196.57 397.581 196.887 398.362C197.213 399.135 197.673 399.807 198.267 400.376C198.861 400.954 199.573 401.41 200.403 401.744C201.233 402.077 202.157 402.244 203.174 402.244ZM202.771 391.294C203.202 391.294 203.581 391.364 203.906 391.502C204.24 391.632 204.521 391.811 204.749 392.039C204.976 392.275 205.155 392.552 205.286 392.869C205.416 393.187 205.481 393.524 205.481 393.882V394.151H199.915C199.996 393.72 200.118 393.329 200.281 392.979C200.444 392.629 200.647 392.328 200.891 392.076C201.127 391.823 201.404 391.632 201.721 391.502C202.039 391.364 202.389 391.294 202.771 391.294Z" fill="white"/>
<path d="M340.745 300L341.998 301.253L329.893 313.333H328.666V312.107L340.745 300ZM345.544 292C345.211 292 344.864 292.133 344.611 292.387L342.171 294.827L347.17 299.827L349.61 297.387C350.13 296.867 350.13 296 349.61 295.507L346.49 292.387C346.224 292.12 345.891 292 345.544 292ZM340.745 296.253L326 311V316H330.999L345.744 301.253L340.745 296.253Z" fill="#006ACB"/>
<path d="M340.745 260L341.998 261.253L329.893 273.333H328.666V272.107L340.745 260ZM345.544 252C345.211 252 344.864 252.133 344.611 252.387L342.171 254.827L347.17 259.827L349.61 257.387C350.13 256.867 350.13 256 349.61 255.507L346.49 252.387C346.224 252.12 345.891 252 345.544 252ZM340.745 256.253L326 271V276H330.999L345.744 261.253L340.745 256.253Z" fill="#006ACB"/>
<path d="M340.745 220L341.998 221.253L329.893 233.333H328.666V232.107L340.745 220ZM345.544 212C345.211 212 344.864 212.133 344.611 212.387L342.171 214.827L347.17 219.827L349.61 217.387C350.13 216.867 350.13 216 349.61 215.507L346.49 212.387C346.224 212.12 345.891 212 345.544 212ZM340.745 216.253L326 231V236H330.999L345.744 221.253L340.745 216.253Z" fill="#006ACB"/>
<path d="M340.745 180L341.998 181.253L329.893 193.333H328.666V192.107L340.745 180ZM345.544 172C345.211 172 344.864 172.133 344.611 172.387L342.171 174.827L347.17 179.827L349.61 177.387C350.13 176.867 350.13 176 349.61 175.507L346.49 172.387C346.224 172.12 345.891 172 345.544 172ZM340.745 176.253L326 191V196H330.999L345.744 181.253L340.745 176.253Z" fill="#006ACB"/>
<path d="M340.745 140L341.998 141.253L329.893 153.333H328.666V152.107L340.745 140ZM345.544 132C345.211 132 344.864 132.133 344.611 132.387L342.171 134.827L347.17 139.827L349.61 137.387C350.13 136.867 350.13 136 349.61 135.507L346.49 132.387C346.224 132.12 345.891 132 345.544 132ZM340.745 136.253L326 151V156H330.999L345.744 141.253L340.745 136.253Z" fill="#006ACB"/>
<rect x="152" y="288" width="162" height="32" rx="6" fill="white" stroke="#006ACB" stroke-width="2"/>
<rect x="152" y="248" width="162" height="32" rx="6" fill="white" stroke="#006ACB" stroke-width="2"/>
<rect x="152" y="208" width="162" height="32" rx="6" fill="white" stroke="#006ACB" stroke-width="2"/>
<rect x="152" y="168" width="162" height="32" rx="6" fill="white" stroke="#006ACB" stroke-width="2"/>
<rect x="152" y="128" width="162" height="32" rx="6" fill="white" stroke="#006ACB" stroke-width="2"/>
<path d="M16.1035 305.688L18.7793 311H21.7188V310.873L18.6621 305.004C19.0527 304.828 19.4043 304.62 19.7168 304.379C20.0358 304.138 20.3092 303.855 20.5371 303.529C20.7585 303.21 20.9277 302.849 21.0449 302.445C21.1686 302.035 21.2305 301.576 21.2305 301.068C21.2305 300.365 21.1068 299.747 20.8594 299.213C20.6185 298.679 20.2734 298.233 19.8242 297.875C19.3685 297.517 18.8216 297.247 18.1836 297.064C17.5456 296.876 16.8327 296.781 16.0449 296.781H11.2793V311H14.0234V305.688H16.1035ZM14.0234 303.461V299.008H16.0449C16.4225 299.008 16.7578 299.053 17.0508 299.145C17.3438 299.236 17.5911 299.366 17.793 299.535C18.0208 299.724 18.1901 299.965 18.3008 300.258C18.418 300.544 18.4766 300.876 18.4766 301.254C18.4766 301.566 18.431 301.85 18.3398 302.104C18.2552 302.357 18.1283 302.576 17.959 302.758C17.7572 302.986 17.4935 303.161 17.168 303.285C16.849 303.402 16.4779 303.461 16.0547 303.461H14.0234ZM23.0176 305.619V305.824C23.0176 306.599 23.1283 307.315 23.3496 307.973C23.571 308.624 23.8965 309.19 24.3262 309.672C24.7493 310.154 25.2702 310.531 25.8887 310.805C26.5137 311.072 27.2233 311.205 28.0176 311.205C28.8053 311.205 29.5085 311.072 30.127 310.805C30.7454 310.531 31.2663 310.154 31.6895 309.672C32.1126 309.19 32.4349 308.624 32.6562 307.973C32.8776 307.315 32.9883 306.599 32.9883 305.824V305.619C32.9883 304.851 32.8776 304.141 32.6562 303.49C32.4349 302.833 32.1126 302.263 31.6895 301.781C31.2598 301.299 30.7357 300.922 30.1172 300.648C29.4987 300.375 28.7923 300.238 27.998 300.238C27.2038 300.238 26.4974 300.375 25.8789 300.648C25.2669 300.922 24.7493 301.299 24.3262 301.781C23.8965 302.263 23.571 302.833 23.3496 303.49C23.1283 304.141 23.0176 304.851 23.0176 305.619ZM25.7324 305.824V305.619C25.7324 305.189 25.7747 304.783 25.8594 304.398C25.944 304.014 26.0775 303.676 26.2598 303.383C26.4421 303.09 26.6764 302.859 26.9629 302.689C27.2493 302.52 27.5944 302.436 27.998 302.436C28.4082 302.436 28.7565 302.52 29.043 302.689C29.3294 302.859 29.5638 303.09 29.7461 303.383C29.9219 303.676 30.0521 304.014 30.1367 304.398C30.2214 304.783 30.2637 305.189 30.2637 305.619V305.824C30.2637 306.267 30.2214 306.684 30.1367 307.074C30.0521 307.458 29.9219 307.794 29.7461 308.08C29.5638 308.373 29.3294 308.604 29.043 308.773C28.7565 308.943 28.4147 309.027 28.0176 309.027C27.6074 309.027 27.2559 308.943 26.9629 308.773C26.6764 308.604 26.4421 308.373 26.2598 308.08C26.0775 307.794 25.944 307.458 25.8594 307.074C25.7747 306.684 25.7324 306.267 25.7324 305.824ZM35.9668 296V298.217H39.1309V308.793H35.9668V311H44.9023V308.793H41.875V296H35.9668ZM52.5391 311.195C53.5612 311.195 54.4466 310.997 55.1953 310.6C55.944 310.202 56.4909 309.76 56.8359 309.271L55.4785 307.807C55.166 308.21 54.7591 308.513 54.2578 308.715C53.7565 308.917 53.2389 309.018 52.7051 309.018C52.3275 309.018 51.9792 308.959 51.6602 308.842C51.3411 308.725 51.0579 308.559 50.8105 308.344C50.5697 308.135 50.3776 307.904 50.2344 307.65C50.0911 307.39 49.974 307.048 49.8828 306.625V306.596H57.0508V305.443C57.0508 304.669 56.9434 303.962 56.7285 303.324C56.5137 302.68 56.2012 302.13 55.791 301.674C55.3743 301.218 54.8665 300.867 54.2676 300.619C53.6751 300.365 52.998 300.238 52.2363 300.238C51.5007 300.238 50.8203 300.372 50.1953 300.639C49.5703 300.906 49.0299 301.28 48.5742 301.762C48.1185 302.243 47.7637 302.82 47.5098 303.49C47.2559 304.154 47.1289 304.89 47.1289 305.697V306.088C47.1289 306.798 47.2559 307.465 47.5098 308.09C47.7702 308.708 48.138 309.245 48.6133 309.701C49.0885 310.163 49.6582 310.528 50.3223 310.795C50.9863 311.062 51.7253 311.195 52.5391 311.195ZM52.2168 302.436C52.5618 302.436 52.8646 302.491 53.125 302.602C53.3919 302.706 53.6165 302.849 53.7988 303.031C53.9811 303.22 54.1243 303.441 54.2285 303.695C54.3327 303.949 54.3848 304.219 54.3848 304.506V304.721H49.9316C49.9967 304.376 50.0944 304.063 50.2246 303.783C50.3548 303.503 50.5176 303.262 50.7129 303.061C50.9017 302.859 51.123 302.706 51.377 302.602C51.6309 302.491 51.9108 302.436 52.2168 302.436ZM62.3047 309.428C62.3047 309.929 62.474 310.349 62.8125 310.688C63.151 311.026 63.61 311.195 64.1895 311.195C64.7624 311.195 65.2181 311.029 65.5566 310.697C65.9017 310.359 66.0742 309.936 66.0742 309.428C66.0742 308.92 65.9049 308.493 65.5664 308.148C65.2344 307.803 64.7754 307.631 64.1895 307.631C63.597 307.631 63.1348 307.807 62.8027 308.158C62.4707 308.503 62.3047 308.926 62.3047 309.428ZM62.3047 301.361C62.3047 301.863 62.474 302.283 62.8125 302.621C63.151 302.96 63.61 303.129 64.1895 303.129C64.7624 303.129 65.2181 302.963 65.5566 302.631C65.9017 302.292 66.0742 301.869 66.0742 301.361C66.0742 300.854 65.9049 300.427 65.5664 300.082C65.2344 299.737 64.7754 299.564 64.1895 299.564C63.597 299.564 63.1348 299.74 62.8027 300.092C62.4707 300.437 62.3047 300.86 62.3047 301.361Z" fill="white"/>
<path d="M14.2188 268.783V256.781H11.4648V271H20.8789V268.783H14.2188ZM29.9902 271H32.7441V270.834C32.6074 270.567 32.5033 270.248 32.4316 269.877C32.36 269.506 32.3242 269.037 32.3242 268.471V263.939C32.3242 263.327 32.2103 262.79 31.9824 262.328C31.7546 261.859 31.4388 261.472 31.0352 261.166C30.6315 260.86 30.153 260.629 29.5996 260.473C29.0527 260.316 28.4603 260.238 27.8223 260.238C27.1126 260.238 26.4811 260.329 25.9277 260.512C25.3809 260.688 24.9186 260.928 24.541 261.234C24.1569 261.54 23.8639 261.895 23.6621 262.299C23.4668 262.702 23.3691 263.129 23.3691 263.578H26.084C26.084 263.389 26.11 263.217 26.1621 263.061C26.2207 262.904 26.3086 262.771 26.4258 262.66C26.556 262.536 26.7253 262.442 26.9336 262.377C27.1419 262.305 27.3893 262.27 27.6758 262.27C28.0013 262.27 28.2845 262.312 28.5254 262.396C28.7728 262.475 28.9779 262.589 29.1406 262.738C29.2969 262.882 29.4141 263.054 29.4922 263.256C29.5703 263.451 29.6094 263.673 29.6094 263.92V264.545H28.0957C27.3145 264.545 26.6211 264.617 26.0156 264.76C25.4167 264.896 24.9121 265.098 24.502 265.365C24.0462 265.658 23.7044 266.033 23.4766 266.488C23.2487 266.938 23.1348 267.455 23.1348 268.041C23.1348 268.497 23.2259 268.92 23.4082 269.311C23.5905 269.695 23.8444 270.027 24.1699 270.307C24.4954 270.587 24.8828 270.805 25.332 270.961C25.7878 271.117 26.2858 271.195 26.8262 271.195C27.1582 271.195 27.4674 271.163 27.7539 271.098C28.0404 271.039 28.304 270.954 28.5449 270.844C28.7793 270.74 28.9941 270.616 29.1895 270.473C29.3848 270.329 29.5573 270.176 29.707 270.014C29.7396 270.202 29.7786 270.382 29.8242 270.551C29.8698 270.72 29.9251 270.87 29.9902 271ZM27.4023 269.096C27.1484 269.096 26.9238 269.066 26.7285 269.008C26.5397 268.943 26.3802 268.858 26.25 268.754C26.1198 268.643 26.0189 268.51 25.9473 268.354C25.8822 268.191 25.8496 268.015 25.8496 267.826C25.8496 267.585 25.8952 267.364 25.9863 267.162C26.0775 266.954 26.2174 266.775 26.4062 266.625C26.5951 266.482 26.8392 266.371 27.1387 266.293C27.4382 266.208 27.7995 266.166 28.2227 266.166H29.6094V267.982C29.5312 268.119 29.4238 268.256 29.2871 268.393C29.1504 268.523 28.9876 268.64 28.7988 268.744C28.61 268.848 28.3984 268.933 28.1641 268.998C27.9297 269.063 27.6758 269.096 27.4023 269.096ZM42.2168 268.1C42.2168 268.262 42.1745 268.412 42.0898 268.549C42.0117 268.686 41.8913 268.806 41.7285 268.91C41.5592 269.014 41.3411 269.099 41.0742 269.164C40.8138 269.223 40.5078 269.252 40.1562 269.252C39.8633 269.252 39.5768 269.223 39.2969 269.164C39.0234 269.105 38.7793 269.011 38.5645 268.881C38.3496 268.757 38.1738 268.594 38.0371 268.393C37.9004 268.184 37.8223 267.937 37.8027 267.65H35.2148C35.2148 268.08 35.319 268.51 35.5273 268.939C35.7422 269.363 36.0547 269.74 36.4648 270.072C36.875 270.411 37.3828 270.684 37.9883 270.893C38.6003 271.101 39.3034 271.205 40.0977 271.205C40.8203 271.205 41.4746 271.127 42.0605 270.971C42.6465 270.808 43.1478 270.583 43.5645 270.297C43.9746 270.01 44.2904 269.672 44.5117 269.281C44.7396 268.884 44.8535 268.451 44.8535 267.982C44.8535 267.475 44.7396 267.038 44.5117 266.674C44.2904 266.303 43.9811 265.987 43.584 265.727C43.1868 265.473 42.7148 265.264 42.168 265.102C41.6211 264.939 41.0286 264.805 40.3906 264.701C39.9479 264.636 39.5833 264.561 39.2969 264.477C39.0104 264.385 38.7858 264.285 38.623 264.174C38.4538 264.07 38.3366 263.952 38.2715 263.822C38.2064 263.686 38.1738 263.539 38.1738 263.383C38.1738 263.227 38.2096 263.08 38.2812 262.943C38.3594 262.8 38.4701 262.676 38.6133 262.572C38.7695 262.455 38.9714 262.364 39.2188 262.299C39.4661 262.234 39.7559 262.201 40.0879 262.201C40.4785 262.201 40.8105 262.25 41.084 262.348C41.3639 262.445 41.5853 262.576 41.748 262.738C41.8652 262.862 41.9531 263.002 42.0117 263.158C42.0703 263.308 42.0996 263.471 42.0996 263.646H44.8145C44.8145 263.158 44.707 262.706 44.4922 262.289C44.2773 261.872 43.9681 261.511 43.5645 261.205C43.1543 260.906 42.6562 260.671 42.0703 260.502C41.4844 260.326 40.8236 260.238 40.0879 260.238C39.3848 260.238 38.7533 260.326 38.1934 260.502C37.6335 260.678 37.1582 260.915 36.7676 261.215C36.377 261.514 36.0775 261.863 35.8691 262.26C35.6608 262.657 35.5566 263.074 35.5566 263.51C35.5566 263.959 35.6576 264.356 35.8594 264.701C36.0677 265.046 36.3542 265.349 36.7188 265.609C37.0833 265.876 37.5195 266.104 38.0273 266.293C38.5417 266.475 39.1081 266.628 39.7266 266.752C40.2148 266.843 40.6185 266.934 40.9375 267.025C41.2565 267.117 41.5137 267.214 41.709 267.318C41.8978 267.429 42.028 267.546 42.0996 267.67C42.1777 267.794 42.2168 267.937 42.2168 268.1ZM52.3926 257.846H49.6777V260.434H47.2656V262.436H49.6777V267.24C49.6777 267.937 49.7689 268.536 49.9512 269.037C50.1335 269.532 50.3939 269.939 50.7324 270.258C51.0645 270.583 51.4648 270.824 51.9336 270.98C52.4089 271.13 52.9362 271.205 53.5156 271.205C53.8151 271.205 54.1178 271.189 54.4238 271.156C54.7363 271.13 55.0358 271.091 55.3223 271.039C55.6087 270.987 55.8789 270.922 56.1328 270.844C56.3867 270.759 56.6081 270.661 56.7969 270.551L56.5332 268.686C56.4095 268.718 56.2598 268.751 56.084 268.783C55.9147 268.816 55.7324 268.845 55.5371 268.871C55.3353 268.904 55.1237 268.93 54.9023 268.949C54.6875 268.969 54.4759 268.979 54.2676 268.979C53.9811 268.979 53.7207 268.946 53.4863 268.881C53.2585 268.816 53.0632 268.705 52.9004 268.549C52.7376 268.399 52.6107 268.197 52.5195 267.943C52.4349 267.683 52.3926 267.361 52.3926 266.977V262.436H56.3379V260.434H52.3926V257.846ZM71.4355 271H74.1602V263.49C74.2513 263.347 74.3522 263.217 74.4629 263.1C74.5736 262.982 74.6973 262.882 74.834 262.797C75.0033 262.68 75.1953 262.592 75.4102 262.533C75.6315 262.475 75.8724 262.445 76.1328 262.445C76.4453 262.445 76.7253 262.478 76.9727 262.543C77.2201 262.602 77.4316 262.709 77.6074 262.865C77.7832 263.021 77.9167 263.236 78.0078 263.51C78.1055 263.777 78.1543 264.118 78.1543 264.535V271H80.8691V264.496C80.8691 263.728 80.778 263.077 80.5957 262.543C80.4199 262.003 80.1725 261.56 79.8535 261.215C79.528 260.876 79.1439 260.629 78.7012 260.473C78.2585 260.316 77.7702 260.238 77.2363 260.238C76.8197 260.238 76.4258 260.297 76.0547 260.414C75.6836 260.531 75.3418 260.701 75.0293 260.922C74.847 261.052 74.6745 261.199 74.5117 261.361C74.349 261.524 74.1992 261.703 74.0625 261.898L73.8965 260.434H71.4355V271ZM90.0488 271H92.8027V270.834C92.666 270.567 92.5618 270.248 92.4902 269.877C92.4186 269.506 92.3828 269.037 92.3828 268.471V263.939C92.3828 263.327 92.2689 262.79 92.041 262.328C91.8132 261.859 91.4974 261.472 91.0938 261.166C90.6901 260.86 90.2116 260.629 89.6582 260.473C89.1113 260.316 88.5189 260.238 87.8809 260.238C87.1712 260.238 86.5397 260.329 85.9863 260.512C85.4395 260.688 84.9772 260.928 84.5996 261.234C84.2155 261.54 83.9225 261.895 83.7207 262.299C83.5254 262.702 83.4277 263.129 83.4277 263.578H86.1426C86.1426 263.389 86.1686 263.217 86.2207 263.061C86.2793 262.904 86.3672 262.771 86.4844 262.66C86.6146 262.536 86.7839 262.442 86.9922 262.377C87.2005 262.305 87.4479 262.27 87.7344 262.27C88.0599 262.27 88.3431 262.312 88.584 262.396C88.8314 262.475 89.0365 262.589 89.1992 262.738C89.3555 262.882 89.4727 263.054 89.5508 263.256C89.6289 263.451 89.668 263.673 89.668 263.92V264.545H88.1543C87.373 264.545 86.6797 264.617 86.0742 264.76C85.4753 264.896 84.9707 265.098 84.5605 265.365C84.1048 265.658 83.763 266.033 83.5352 266.488C83.3073 266.938 83.1934 267.455 83.1934 268.041C83.1934 268.497 83.2845 268.92 83.4668 269.311C83.6491 269.695 83.903 270.027 84.2285 270.307C84.554 270.587 84.9414 270.805 85.3906 270.961C85.8464 271.117 86.3444 271.195 86.8848 271.195C87.2168 271.195 87.526 271.163 87.8125 271.098C88.099 271.039 88.3626 270.954 88.6035 270.844C88.8379 270.74 89.0527 270.616 89.248 270.473C89.4434 270.329 89.6159 270.176 89.7656 270.014C89.7982 270.202 89.8372 270.382 89.8828 270.551C89.9284 270.72 89.9837 270.87 90.0488 271ZM87.4609 269.096C87.207 269.096 86.9824 269.066 86.7871 269.008C86.5983 268.943 86.4388 268.858 86.3086 268.754C86.1784 268.643 86.0775 268.51 86.0059 268.354C85.9408 268.191 85.9082 268.015 85.9082 267.826C85.9082 267.585 85.9538 267.364 86.0449 267.162C86.1361 266.954 86.276 266.775 86.4648 266.625C86.6536 266.482 86.8978 266.371 87.1973 266.293C87.4967 266.208 87.8581 266.166 88.2812 266.166H89.668V267.982C89.5898 268.119 89.4824 268.256 89.3457 268.393C89.209 268.523 89.0462 268.64 88.8574 268.744C88.6686 268.848 88.457 268.933 88.2227 268.998C87.9883 269.063 87.7344 269.096 87.4609 269.096ZM97.1484 260.434H94.8145V271H97.2852V263.09C97.3177 263.005 97.3535 262.927 97.3926 262.855C97.4316 262.784 97.4772 262.722 97.5293 262.67C97.6009 262.598 97.6823 262.543 97.7734 262.504C97.8646 262.465 97.9688 262.445 98.0859 262.445C98.1901 262.445 98.2878 262.462 98.3789 262.494C98.4701 262.52 98.5514 262.569 98.623 262.641C98.6882 262.712 98.7402 262.813 98.7793 262.943C98.8184 263.074 98.8379 263.24 98.8379 263.441V271H101.23V263.207C101.23 263.129 101.23 263.067 101.23 263.021C101.23 262.976 101.23 262.947 101.23 262.934C101.263 262.862 101.302 262.8 101.348 262.748C101.393 262.689 101.445 262.637 101.504 262.592C101.576 262.546 101.65 262.51 101.729 262.484C101.813 262.458 101.908 262.445 102.012 262.445C102.109 262.445 102.204 262.462 102.295 262.494C102.393 262.52 102.477 262.569 102.549 262.641C102.62 262.719 102.676 262.823 102.715 262.953C102.76 263.083 102.783 263.249 102.783 263.451V271H105.254V263.461C105.254 262.875 105.195 262.38 105.078 261.977C104.967 261.566 104.811 261.231 104.609 260.971C104.401 260.717 104.157 260.531 103.877 260.414C103.604 260.297 103.307 260.238 102.988 260.238C102.734 260.238 102.5 260.271 102.285 260.336C102.07 260.401 101.878 260.492 101.709 260.609C101.572 260.701 101.445 260.811 101.328 260.941C101.217 261.065 101.117 261.205 101.025 261.361C100.967 261.199 100.895 261.055 100.811 260.932C100.732 260.801 100.638 260.691 100.527 260.6C100.384 260.476 100.215 260.385 100.02 260.326C99.8242 260.268 99.6029 260.238 99.3555 260.238C98.8477 260.238 98.4147 260.372 98.0566 260.639C97.7051 260.899 97.4284 261.257 97.2266 261.713L97.1484 260.434ZM112.598 271.195C113.62 271.195 114.505 270.997 115.254 270.6C116.003 270.202 116.549 269.76 116.895 269.271L115.537 267.807C115.225 268.21 114.818 268.513 114.316 268.715C113.815 268.917 113.298 269.018 112.764 269.018C112.386 269.018 112.038 268.959 111.719 268.842C111.4 268.725 111.117 268.559 110.869 268.344C110.628 268.135 110.436 267.904 110.293 267.65C110.15 267.39 110.033 267.048 109.941 266.625V266.596H117.109V265.443C117.109 264.669 117.002 263.962 116.787 263.324C116.572 262.68 116.26 262.13 115.85 261.674C115.433 261.218 114.925 260.867 114.326 260.619C113.734 260.365 113.057 260.238 112.295 260.238C111.559 260.238 110.879 260.372 110.254 260.639C109.629 260.906 109.089 261.28 108.633 261.762C108.177 262.243 107.822 262.82 107.568 263.49C107.314 264.154 107.188 264.89 107.188 265.697V266.088C107.188 266.798 107.314 267.465 107.568 268.09C107.829 268.708 108.197 269.245 108.672 269.701C109.147 270.163 109.717 270.528 110.381 270.795C111.045 271.062 111.784 271.195 112.598 271.195ZM112.275 262.436C112.62 262.436 112.923 262.491 113.184 262.602C113.451 262.706 113.675 262.849 113.857 263.031C114.04 263.22 114.183 263.441 114.287 263.695C114.391 263.949 114.443 264.219 114.443 264.506V264.721H109.99C110.055 264.376 110.153 264.063 110.283 263.783C110.413 263.503 110.576 263.262 110.771 263.061C110.96 262.859 111.182 262.706 111.436 262.602C111.689 262.491 111.969 262.436 112.275 262.436ZM122.363 269.428C122.363 269.929 122.533 270.349 122.871 270.688C123.21 271.026 123.669 271.195 124.248 271.195C124.821 271.195 125.277 271.029 125.615 270.697C125.96 270.359 126.133 269.936 126.133 269.428C126.133 268.92 125.964 268.493 125.625 268.148C125.293 267.803 124.834 267.631 124.248 267.631C123.656 267.631 123.193 267.807 122.861 268.158C122.529 268.503 122.363 268.926 122.363 269.428ZM122.363 261.361C122.363 261.863 122.533 262.283 122.871 262.621C123.21 262.96 123.669 263.129 124.248 263.129C124.821 263.129 125.277 262.963 125.615 262.631C125.96 262.292 126.133 261.869 126.133 261.361C126.133 260.854 125.964 260.427 125.625 260.082C125.293 259.737 124.834 259.564 124.248 259.564C123.656 259.564 123.193 259.74 122.861 260.092C122.529 260.437 122.363 260.86 122.363 261.361Z" fill="white"/>
<path d="M20.3027 225.111V222.885H14.209V219.018H21.0645V216.781H11.4551V231H14.209V225.111H20.3027ZM24.1113 220.434V222.65H27.1191V228.793H24.1113V231H32.7246V228.793H29.8633V220.434H24.1113ZM26.9238 217.729C26.9238 217.937 26.9596 218.132 27.0312 218.314C27.1094 218.49 27.2168 218.64 27.3535 218.764C27.4902 218.894 27.653 218.995 27.8418 219.066C28.0371 219.138 28.252 219.174 28.4863 219.174C28.9681 219.174 29.349 219.04 29.6289 218.773C29.9154 218.5 30.0586 218.152 30.0586 217.729C30.0586 217.305 29.9154 216.96 29.6289 216.693C29.349 216.42 28.9681 216.283 28.4863 216.283C28.252 216.283 28.0371 216.319 27.8418 216.391C27.653 216.462 27.4902 216.56 27.3535 216.684C27.2168 216.814 27.1094 216.97 27.0312 217.152C26.9596 217.328 26.9238 217.52 26.9238 217.729ZM42.9883 220.238C42.2786 220.238 41.6243 220.411 41.0254 220.756C40.4264 221.094 39.9121 221.563 39.4824 222.162L39.4629 221.928L39.3555 220.434H36.8262V231H39.541V224.652C39.6647 224.353 39.821 224.092 40.0098 223.871C40.1986 223.65 40.4264 223.467 40.6934 223.324C40.9147 223.201 41.1654 223.109 41.4453 223.051C41.7318 222.986 42.0508 222.953 42.4023 222.953C42.7409 222.953 43.0957 222.976 43.4668 223.021C43.8444 223.061 44.2122 223.122 44.5703 223.207L44.9707 220.502C44.7559 220.437 44.4727 220.378 44.1211 220.326C43.776 220.268 43.3984 220.238 42.9883 220.238ZM54.2285 228.1C54.2285 228.262 54.1862 228.412 54.1016 228.549C54.0234 228.686 53.903 228.806 53.7402 228.91C53.571 229.014 53.3529 229.099 53.0859 229.164C52.8255 229.223 52.5195 229.252 52.168 229.252C51.875 229.252 51.5885 229.223 51.3086 229.164C51.0352 229.105 50.791 229.011 50.5762 228.881C50.3613 228.757 50.1855 228.594 50.0488 228.393C49.9121 228.184 49.834 227.937 49.8145 227.65H47.2266C47.2266 228.08 47.3307 228.51 47.5391 228.939C47.7539 229.363 48.0664 229.74 48.4766 230.072C48.8867 230.411 49.3945 230.684 50 230.893C50.612 231.101 51.3151 231.205 52.1094 231.205C52.832 231.205 53.4863 231.127 54.0723 230.971C54.6582 230.808 55.1595 230.583 55.5762 230.297C55.9863 230.01 56.3021 229.672 56.5234 229.281C56.7513 228.884 56.8652 228.451 56.8652 227.982C56.8652 227.475 56.7513 227.038 56.5234 226.674C56.3021 226.303 55.9928 225.987 55.5957 225.727C55.1986 225.473 54.7266 225.264 54.1797 225.102C53.6328 224.939 53.0404 224.805 52.4023 224.701C51.9596 224.636 51.5951 224.561 51.3086 224.477C51.0221 224.385 50.7975 224.285 50.6348 224.174C50.4655 224.07 50.3483 223.952 50.2832 223.822C50.2181 223.686 50.1855 223.539 50.1855 223.383C50.1855 223.227 50.2214 223.08 50.293 222.943C50.3711 222.8 50.4818 222.676 50.625 222.572C50.7812 222.455 50.9831 222.364 51.2305 222.299C51.4779 222.234 51.7676 222.201 52.0996 222.201C52.4902 222.201 52.8223 222.25 53.0957 222.348C53.3757 222.445 53.597 222.576 53.7598 222.738C53.877 222.862 53.9648 223.002 54.0234 223.158C54.082 223.308 54.1113 223.471 54.1113 223.646H56.8262C56.8262 223.158 56.7188 222.706 56.5039 222.289C56.2891 221.872 55.9798 221.511 55.5762 221.205C55.166 220.906 54.668 220.671 54.082 220.502C53.4961 220.326 52.8353 220.238 52.0996 220.238C51.3965 220.238 50.765 220.326 50.2051 220.502C49.6452 220.678 49.1699 220.915 48.7793 221.215C48.3887 221.514 48.0892 221.863 47.8809 222.26C47.6725 222.657 47.5684 223.074 47.5684 223.51C47.5684 223.959 47.6693 224.356 47.8711 224.701C48.0794 225.046 48.3659 225.349 48.7305 225.609C49.0951 225.876 49.5312 226.104 50.0391 226.293C50.5534 226.475 51.1198 226.628 51.7383 226.752C52.2266 226.843 52.6302 226.934 52.9492 227.025C53.2682 227.117 53.5254 227.214 53.7207 227.318C53.9095 227.429 54.0397 227.546 54.1113 227.67C54.1895 227.794 54.2285 227.937 54.2285 228.1ZM64.4043 217.846H61.6895V220.434H59.2773V222.436H61.6895V227.24C61.6895 227.937 61.7806 228.536 61.9629 229.037C62.1452 229.532 62.4056 229.939 62.7441 230.258C63.0762 230.583 63.4766 230.824 63.9453 230.98C64.4206 231.13 64.9479 231.205 65.5273 231.205C65.8268 231.205 66.1296 231.189 66.4355 231.156C66.748 231.13 67.0475 231.091 67.334 231.039C67.6204 230.987 67.8906 230.922 68.1445 230.844C68.3984 230.759 68.6198 230.661 68.8086 230.551L68.5449 228.686C68.4212 228.718 68.2715 228.751 68.0957 228.783C67.9264 228.816 67.7441 228.845 67.5488 228.871C67.347 228.904 67.1354 228.93 66.9141 228.949C66.6992 228.969 66.4876 228.979 66.2793 228.979C65.9928 228.979 65.7324 228.946 65.498 228.881C65.2702 228.816 65.0749 228.705 64.9121 228.549C64.7493 228.399 64.6224 228.197 64.5312 227.943C64.4466 227.683 64.4043 227.361 64.4043 226.977V222.436H68.3496V220.434H64.4043V217.846ZM83.4473 231H86.1719V223.49C86.263 223.347 86.3639 223.217 86.4746 223.1C86.5853 222.982 86.709 222.882 86.8457 222.797C87.015 222.68 87.207 222.592 87.4219 222.533C87.6432 222.475 87.8841 222.445 88.1445 222.445C88.457 222.445 88.737 222.478 88.9844 222.543C89.2318 222.602 89.4434 222.709 89.6191 222.865C89.7949 223.021 89.9284 223.236 90.0195 223.51C90.1172 223.777 90.166 224.118 90.166 224.535V231H92.8809V224.496C92.8809 223.728 92.7897 223.077 92.6074 222.543C92.4316 222.003 92.1842 221.56 91.8652 221.215C91.5397 220.876 91.1556 220.629 90.7129 220.473C90.2702 220.316 89.7819 220.238 89.248 220.238C88.8314 220.238 88.4375 220.297 88.0664 220.414C87.6953 220.531 87.3535 220.701 87.041 220.922C86.8587 221.052 86.6862 221.199 86.5234 221.361C86.3607 221.524 86.2109 221.703 86.0742 221.898L85.9082 220.434H83.4473V231ZM102.061 231H104.814V230.834C104.678 230.567 104.574 230.248 104.502 229.877C104.43 229.506 104.395 229.037 104.395 228.471V223.939C104.395 223.327 104.281 222.79 104.053 222.328C103.825 221.859 103.509 221.472 103.105 221.166C102.702 220.86 102.223 220.629 101.67 220.473C101.123 220.316 100.531 220.238 99.8926 220.238C99.1829 220.238 98.5514 220.329 97.998 220.512C97.4512 220.688 96.9889 220.928 96.6113 221.234C96.2272 221.54 95.9342 221.895 95.7324 222.299C95.5371 222.702 95.4395 223.129 95.4395 223.578H98.1543C98.1543 223.389 98.1803 223.217 98.2324 223.061C98.291 222.904 98.3789 222.771 98.4961 222.66C98.6263 222.536 98.7956 222.442 99.0039 222.377C99.2122 222.305 99.4596 222.27 99.7461 222.27C100.072 222.27 100.355 222.312 100.596 222.396C100.843 222.475 101.048 222.589 101.211 222.738C101.367 222.882 101.484 223.054 101.562 223.256C101.641 223.451 101.68 223.673 101.68 223.92V224.545H100.166C99.3848 224.545 98.6914 224.617 98.0859 224.76C97.487 224.896 96.9824 225.098 96.5723 225.365C96.1165 225.658 95.7747 226.033 95.5469 226.488C95.319 226.938 95.2051 227.455 95.2051 228.041C95.2051 228.497 95.2962 228.92 95.4785 229.311C95.6608 229.695 95.9147 230.027 96.2402 230.307C96.5658 230.587 96.9531 230.805 97.4023 230.961C97.8581 231.117 98.3561 231.195 98.8965 231.195C99.2285 231.195 99.5378 231.163 99.8242 231.098C100.111 231.039 100.374 230.954 100.615 230.844C100.85 230.74 101.064 230.616 101.26 230.473C101.455 230.329 101.628 230.176 101.777 230.014C101.81 230.202 101.849 230.382 101.895 230.551C101.94 230.72 101.995 230.87 102.061 231ZM99.4727 229.096C99.2188 229.096 98.9941 229.066 98.7988 229.008C98.61 228.943 98.4505 228.858 98.3203 228.754C98.1901 228.643 98.0892 228.51 98.0176 228.354C97.9525 228.191 97.9199 228.015 97.9199 227.826C97.9199 227.585 97.9655 227.364 98.0566 227.162C98.1478 226.954 98.2878 226.775 98.4766 226.625C98.6654 226.482 98.9095 226.371 99.209 226.293C99.5085 226.208 99.8698 226.166 100.293 226.166H101.68V227.982C101.602 228.119 101.494 228.256 101.357 228.393C101.221 228.523 101.058 228.64 100.869 228.744C100.68 228.848 100.469 228.933 100.234 228.998C100 229.063 99.7461 229.096 99.4727 229.096ZM109.16 220.434H106.826V231H109.297V223.09C109.329 223.005 109.365 222.927 109.404 222.855C109.443 222.784 109.489 222.722 109.541 222.67C109.613 222.598 109.694 222.543 109.785 222.504C109.876 222.465 109.98 222.445 110.098 222.445C110.202 222.445 110.299 222.462 110.391 222.494C110.482 222.52 110.563 222.569 110.635 222.641C110.7 222.712 110.752 222.813 110.791 222.943C110.83 223.074 110.85 223.24 110.85 223.441V231H113.242V223.207C113.242 223.129 113.242 223.067 113.242 223.021C113.242 222.976 113.242 222.947 113.242 222.934C113.275 222.862 113.314 222.8 113.359 222.748C113.405 222.689 113.457 222.637 113.516 222.592C113.587 222.546 113.662 222.51 113.74 222.484C113.825 222.458 113.919 222.445 114.023 222.445C114.121 222.445 114.215 222.462 114.307 222.494C114.404 222.52 114.489 222.569 114.561 222.641C114.632 222.719 114.688 222.823 114.727 222.953C114.772 223.083 114.795 223.249 114.795 223.451V231H117.266V223.461C117.266 222.875 117.207 222.38 117.09 221.977C116.979 221.566 116.823 221.231 116.621 220.971C116.413 220.717 116.169 220.531 115.889 220.414C115.615 220.297 115.319 220.238 115 220.238C114.746 220.238 114.512 220.271 114.297 220.336C114.082 220.401 113.89 220.492 113.721 220.609C113.584 220.701 113.457 220.811 113.34 220.941C113.229 221.065 113.128 221.205 113.037 221.361C112.979 221.199 112.907 221.055 112.822 220.932C112.744 220.801 112.65 220.691 112.539 220.6C112.396 220.476 112.227 220.385 112.031 220.326C111.836 220.268 111.615 220.238 111.367 220.238C110.859 220.238 110.426 220.372 110.068 220.639C109.717 220.899 109.44 221.257 109.238 221.713L109.16 220.434ZM124.609 231.195C125.632 231.195 126.517 230.997 127.266 230.6C128.014 230.202 128.561 229.76 128.906 229.271L127.549 227.807C127.236 228.21 126.829 228.513 126.328 228.715C125.827 228.917 125.309 229.018 124.775 229.018C124.398 229.018 124.049 228.959 123.73 228.842C123.411 228.725 123.128 228.559 122.881 228.344C122.64 228.135 122.448 227.904 122.305 227.65C122.161 227.39 122.044 227.048 121.953 226.625V226.596H129.121V225.443C129.121 224.669 129.014 223.962 128.799 223.324C128.584 222.68 128.271 222.13 127.861 221.674C127.445 221.218 126.937 220.867 126.338 220.619C125.745 220.365 125.068 220.238 124.307 220.238C123.571 220.238 122.891 220.372 122.266 220.639C121.641 220.906 121.1 221.28 120.645 221.762C120.189 222.243 119.834 222.82 119.58 223.49C119.326 224.154 119.199 224.89 119.199 225.697V226.088C119.199 226.798 119.326 227.465 119.58 228.09C119.84 228.708 120.208 229.245 120.684 229.701C121.159 230.163 121.729 230.528 122.393 230.795C123.057 231.062 123.796 231.195 124.609 231.195ZM124.287 222.436C124.632 222.436 124.935 222.491 125.195 222.602C125.462 222.706 125.687 222.849 125.869 223.031C126.051 223.22 126.195 223.441 126.299 223.695C126.403 223.949 126.455 224.219 126.455 224.506V224.721H122.002C122.067 224.376 122.165 224.063 122.295 223.783C122.425 223.503 122.588 223.262 122.783 223.061C122.972 222.859 123.193 222.706 123.447 222.602C123.701 222.491 123.981 222.436 124.287 222.436ZM134.375 229.428C134.375 229.929 134.544 230.349 134.883 230.688C135.221 231.026 135.68 231.195 136.26 231.195C136.833 231.195 137.288 231.029 137.627 230.697C137.972 230.359 138.145 229.936 138.145 229.428C138.145 228.92 137.975 228.493 137.637 228.148C137.305 227.803 136.846 227.631 136.26 227.631C135.667 227.631 135.205 227.807 134.873 228.158C134.541 228.503 134.375 228.926 134.375 229.428ZM134.375 221.361C134.375 221.863 134.544 222.283 134.883 222.621C135.221 222.96 135.68 223.129 136.26 223.129C136.833 223.129 137.288 222.963 137.627 222.631C137.972 222.292 138.145 221.869 138.145 221.361C138.145 220.854 137.975 220.427 137.637 220.082C137.305 219.737 136.846 219.564 136.26 219.564C135.667 219.564 135.205 219.74 134.873 220.092C134.541 220.437 134.375 220.86 134.375 221.361Z" fill="white"/>
<path d="M14.1992 185.785H16.3184C17.0931 185.785 17.793 185.674 18.418 185.453C19.043 185.232 19.5768 184.923 20.0195 184.525C20.4557 184.135 20.791 183.669 21.0254 183.129C21.2663 182.589 21.3867 181.999 21.3867 181.361C21.3867 180.678 21.2663 180.056 21.0254 179.496C20.791 178.936 20.4557 178.454 20.0195 178.051C19.5768 177.654 19.043 177.344 18.418 177.123C17.793 176.895 17.0931 176.781 16.3184 176.781H11.4551V191H14.1992V185.785ZM14.1992 183.559V179.008H16.3184C16.709 179.008 17.0475 179.07 17.334 179.193C17.6204 179.317 17.8613 179.486 18.0566 179.701C18.2454 179.916 18.3854 180.167 18.4766 180.453C18.5742 180.74 18.623 181.049 18.623 181.381C18.623 181.667 18.5742 181.944 18.4766 182.211C18.3854 182.471 18.2454 182.702 18.0566 182.904C17.8613 183.106 17.6204 183.266 17.334 183.383C17.0475 183.5 16.709 183.559 16.3184 183.559H14.1992ZM29.9902 191H32.7441V190.834C32.6074 190.567 32.5033 190.248 32.4316 189.877C32.36 189.506 32.3242 189.037 32.3242 188.471V183.939C32.3242 183.327 32.2103 182.79 31.9824 182.328C31.7546 181.859 31.4388 181.472 31.0352 181.166C30.6315 180.86 30.153 180.629 29.5996 180.473C29.0527 180.316 28.4603 180.238 27.8223 180.238C27.1126 180.238 26.4811 180.329 25.9277 180.512C25.3809 180.688 24.9186 180.928 24.541 181.234C24.1569 181.54 23.8639 181.895 23.6621 182.299C23.4668 182.702 23.3691 183.129 23.3691 183.578H26.084C26.084 183.389 26.11 183.217 26.1621 183.061C26.2207 182.904 26.3086 182.771 26.4258 182.66C26.556 182.536 26.7253 182.442 26.9336 182.377C27.1419 182.305 27.3893 182.27 27.6758 182.27C28.0013 182.27 28.2845 182.312 28.5254 182.396C28.7728 182.475 28.9779 182.589 29.1406 182.738C29.2969 182.882 29.4141 183.054 29.4922 183.256C29.5703 183.451 29.6094 183.673 29.6094 183.92V184.545H28.0957C27.3145 184.545 26.6211 184.617 26.0156 184.76C25.4167 184.896 24.9121 185.098 24.502 185.365C24.0462 185.658 23.7044 186.033 23.4766 186.488C23.2487 186.938 23.1348 187.455 23.1348 188.041C23.1348 188.497 23.2259 188.92 23.4082 189.311C23.5905 189.695 23.8444 190.027 24.1699 190.307C24.4954 190.587 24.8828 190.805 25.332 190.961C25.7878 191.117 26.2858 191.195 26.8262 191.195C27.1582 191.195 27.4674 191.163 27.7539 191.098C28.0404 191.039 28.304 190.954 28.5449 190.844C28.7793 190.74 28.9941 190.616 29.1895 190.473C29.3848 190.329 29.5573 190.176 29.707 190.014C29.7396 190.202 29.7786 190.382 29.8242 190.551C29.8698 190.72 29.9251 190.87 29.9902 191ZM27.4023 189.096C27.1484 189.096 26.9238 189.066 26.7285 189.008C26.5397 188.943 26.3802 188.858 26.25 188.754C26.1198 188.643 26.0189 188.51 25.9473 188.354C25.8822 188.191 25.8496 188.015 25.8496 187.826C25.8496 187.585 25.8952 187.364 25.9863 187.162C26.0775 186.954 26.2174 186.775 26.4062 186.625C26.5951 186.482 26.8392 186.371 27.1387 186.293C27.4382 186.208 27.7995 186.166 28.2227 186.166H29.6094V187.982C29.5312 188.119 29.4238 188.256 29.2871 188.393C29.1504 188.523 28.9876 188.64 28.7988 188.744C28.61 188.848 28.3984 188.933 28.1641 188.998C27.9297 189.063 27.6758 189.096 27.4023 189.096ZM42.2168 188.1C42.2168 188.262 42.1745 188.412 42.0898 188.549C42.0117 188.686 41.8913 188.806 41.7285 188.91C41.5592 189.014 41.3411 189.099 41.0742 189.164C40.8138 189.223 40.5078 189.252 40.1562 189.252C39.8633 189.252 39.5768 189.223 39.2969 189.164C39.0234 189.105 38.7793 189.011 38.5645 188.881C38.3496 188.757 38.1738 188.594 38.0371 188.393C37.9004 188.184 37.8223 187.937 37.8027 187.65H35.2148C35.2148 188.08 35.319 188.51 35.5273 188.939C35.7422 189.363 36.0547 189.74 36.4648 190.072C36.875 190.411 37.3828 190.684 37.9883 190.893C38.6003 191.101 39.3034 191.205 40.0977 191.205C40.8203 191.205 41.4746 191.127 42.0605 190.971C42.6465 190.808 43.1478 190.583 43.5645 190.297C43.9746 190.01 44.2904 189.672 44.5117 189.281C44.7396 188.884 44.8535 188.451 44.8535 187.982C44.8535 187.475 44.7396 187.038 44.5117 186.674C44.2904 186.303 43.9811 185.987 43.584 185.727C43.1868 185.473 42.7148 185.264 42.168 185.102C41.6211 184.939 41.0286 184.805 40.3906 184.701C39.9479 184.636 39.5833 184.561 39.2969 184.477C39.0104 184.385 38.7858 184.285 38.623 184.174C38.4538 184.07 38.3366 183.952 38.2715 183.822C38.2064 183.686 38.1738 183.539 38.1738 183.383C38.1738 183.227 38.2096 183.08 38.2812 182.943C38.3594 182.8 38.4701 182.676 38.6133 182.572C38.7695 182.455 38.9714 182.364 39.2188 182.299C39.4661 182.234 39.7559 182.201 40.0879 182.201C40.4785 182.201 40.8105 182.25 41.084 182.348C41.3639 182.445 41.5853 182.576 41.748 182.738C41.8652 182.862 41.9531 183.002 42.0117 183.158C42.0703 183.308 42.0996 183.471 42.0996 183.646H44.8145C44.8145 183.158 44.707 182.706 44.4922 182.289C44.2773 181.872 43.9681 181.511 43.5645 181.205C43.1543 180.906 42.6562 180.671 42.0703 180.502C41.4844 180.326 40.8236 180.238 40.0879 180.238C39.3848 180.238 38.7533 180.326 38.1934 180.502C37.6335 180.678 37.1582 180.915 36.7676 181.215C36.377 181.514 36.0775 181.863 35.8691 182.26C35.6608 182.657 35.5566 183.074 35.5566 183.51C35.5566 183.959 35.6576 184.356 35.8594 184.701C36.0677 185.046 36.3542 185.349 36.7188 185.609C37.0833 185.876 37.5195 186.104 38.0273 186.293C38.5417 186.475 39.1081 186.628 39.7266 186.752C40.2148 186.843 40.6185 186.934 40.9375 187.025C41.2565 187.117 41.5137 187.214 41.709 187.318C41.8978 187.429 42.028 187.546 42.0996 187.67C42.1777 187.794 42.2168 187.937 42.2168 188.1ZM54.2285 188.1C54.2285 188.262 54.1862 188.412 54.1016 188.549C54.0234 188.686 53.903 188.806 53.7402 188.91C53.571 189.014 53.3529 189.099 53.0859 189.164C52.8255 189.223 52.5195 189.252 52.168 189.252C51.875 189.252 51.5885 189.223 51.3086 189.164C51.0352 189.105 50.791 189.011 50.5762 188.881C50.3613 188.757 50.1855 188.594 50.0488 188.393C49.9121 188.184 49.834 187.937 49.8145 187.65H47.2266C47.2266 188.08 47.3307 188.51 47.5391 188.939C47.7539 189.363 48.0664 189.74 48.4766 190.072C48.8867 190.411 49.3945 190.684 50 190.893C50.612 191.101 51.3151 191.205 52.1094 191.205C52.832 191.205 53.4863 191.127 54.0723 190.971C54.6582 190.808 55.1595 190.583 55.5762 190.297C55.9863 190.01 56.3021 189.672 56.5234 189.281C56.7513 188.884 56.8652 188.451 56.8652 187.982C56.8652 187.475 56.7513 187.038 56.5234 186.674C56.3021 186.303 55.9928 185.987 55.5957 185.727C55.1986 185.473 54.7266 185.264 54.1797 185.102C53.6328 184.939 53.0404 184.805 52.4023 184.701C51.9596 184.636 51.5951 184.561 51.3086 184.477C51.0221 184.385 50.7975 184.285 50.6348 184.174C50.4655 184.07 50.3483 183.952 50.2832 183.822C50.2181 183.686 50.1855 183.539 50.1855 183.383C50.1855 183.227 50.2214 183.08 50.293 182.943C50.3711 182.8 50.4818 182.676 50.625 182.572C50.7812 182.455 50.9831 182.364 51.2305 182.299C51.4779 182.234 51.7676 182.201 52.0996 182.201C52.4902 182.201 52.8223 182.25 53.0957 182.348C53.3757 182.445 53.597 182.576 53.7598 182.738C53.877 182.862 53.9648 183.002 54.0234 183.158C54.082 183.308 54.1113 183.471 54.1113 183.646H56.8262C56.8262 183.158 56.7188 182.706 56.5039 182.289C56.2891 181.872 55.9798 181.511 55.5762 181.205C55.166 180.906 54.668 180.671 54.082 180.502C53.4961 180.326 52.8353 180.238 52.0996 180.238C51.3965 180.238 50.765 180.326 50.2051 180.502C49.6452 180.678 49.1699 180.915 48.7793 181.215C48.3887 181.514 48.0892 181.863 47.8809 182.26C47.6725 182.657 47.5684 183.074 47.5684 183.51C47.5684 183.959 47.6693 184.356 47.8711 184.701C48.0794 185.046 48.3659 185.349 48.7305 185.609C49.0951 185.876 49.5312 186.104 50.0391 186.293C50.5534 186.475 51.1198 186.628 51.7383 186.752C52.2266 186.843 52.6302 186.934 52.9492 187.025C53.2682 187.117 53.5254 187.214 53.7207 187.318C53.9095 187.429 54.0397 187.546 54.1113 187.67C54.1895 187.794 54.2285 187.937 54.2285 188.1ZM60.2051 191H62.5879L63.7109 185.355L63.9258 184.281L64.1504 185.355L65.3125 191H67.6953L69.5898 180.434H67.0996L66.3184 186.664L66.1816 187.689L65.9961 186.684L64.8535 180.434H63.0371L61.8945 186.713L61.709 187.719L61.582 186.713L60.791 180.434H58.3105L60.2051 191ZM71.0645 185.619V185.824C71.0645 186.599 71.1751 187.315 71.3965 187.973C71.6178 188.624 71.9434 189.19 72.373 189.672C72.7962 190.154 73.3171 190.531 73.9355 190.805C74.5605 191.072 75.2702 191.205 76.0645 191.205C76.8522 191.205 77.5553 191.072 78.1738 190.805C78.7923 190.531 79.3132 190.154 79.7363 189.672C80.1595 189.19 80.4818 188.624 80.7031 187.973C80.9245 187.315 81.0352 186.599 81.0352 185.824V185.619C81.0352 184.851 80.9245 184.141 80.7031 183.49C80.4818 182.833 80.1595 182.263 79.7363 181.781C79.3066 181.299 78.7826 180.922 78.1641 180.648C77.5456 180.375 76.8392 180.238 76.0449 180.238C75.2507 180.238 74.5443 180.375 73.9258 180.648C73.3138 180.922 72.7962 181.299 72.373 181.781C71.9434 182.263 71.6178 182.833 71.3965 183.49C71.1751 184.141 71.0645 184.851 71.0645 185.619ZM73.7793 185.824V185.619C73.7793 185.189 73.8216 184.783 73.9062 184.398C73.9909 184.014 74.1243 183.676 74.3066 183.383C74.4889 183.09 74.7233 182.859 75.0098 182.689C75.2962 182.52 75.6413 182.436 76.0449 182.436C76.4551 182.436 76.8034 182.52 77.0898 182.689C77.3763 182.859 77.6107 183.09 77.793 183.383C77.9688 183.676 78.099 184.014 78.1836 184.398C78.2682 184.783 78.3105 185.189 78.3105 185.619V185.824C78.3105 186.267 78.2682 186.684 78.1836 187.074C78.099 187.458 77.9688 187.794 77.793 188.08C77.6107 188.373 77.3763 188.604 77.0898 188.773C76.8034 188.943 76.4616 189.027 76.0645 189.027C75.6543 189.027 75.3027 188.943 75.0098 188.773C74.7233 188.604 74.4889 188.373 74.3066 188.08C74.1243 187.794 73.9909 187.458 73.9062 187.074C73.8216 186.684 73.7793 186.267 73.7793 185.824ZM91.0352 180.238C90.3255 180.238 89.6712 180.411 89.0723 180.756C88.4733 181.094 87.959 181.563 87.5293 182.162L87.5098 181.928L87.4023 180.434H84.873V191H87.5879V184.652C87.7116 184.353 87.8678 184.092 88.0566 183.871C88.2454 183.65 88.4733 183.467 88.7402 183.324C88.9616 183.201 89.2122 183.109 89.4922 183.051C89.7786 182.986 90.0977 182.953 90.4492 182.953C90.7878 182.953 91.1426 182.976 91.5137 183.021C91.8913 183.061 92.2591 183.122 92.6172 183.207L93.0176 180.502C92.8027 180.437 92.5195 180.378 92.168 180.326C91.8229 180.268 91.4453 180.238 91.0352 180.238ZM95.1758 185.639V185.844C95.1758 186.612 95.2702 187.325 95.459 187.982C95.6478 188.633 95.9212 189.197 96.2793 189.672C96.6309 190.147 97.0605 190.521 97.5684 190.795C98.0827 191.062 98.6621 191.195 99.3066 191.195C99.8991 191.195 100.42 191.081 100.869 190.854C101.318 190.626 101.709 190.307 102.041 189.896L102.178 191H104.629V176H101.904V181.381C101.579 181.016 101.204 180.736 100.781 180.541C100.365 180.339 99.8796 180.238 99.3262 180.238C98.6686 180.238 98.0827 180.368 97.5684 180.629C97.0605 180.889 96.6276 181.257 96.2695 181.732C95.9115 182.208 95.638 182.777 95.4492 183.441C95.2669 184.105 95.1758 184.838 95.1758 185.639ZM97.8906 185.844V185.639C97.8906 185.196 97.9297 184.783 98.0078 184.398C98.0859 184.008 98.2096 183.666 98.3789 183.373C98.5482 183.087 98.7663 182.862 99.0332 182.699C99.3066 182.53 99.6354 182.445 100.02 182.445C100.482 182.445 100.866 182.546 101.172 182.748C101.478 182.943 101.722 183.22 101.904 183.578V187.855C101.722 188.207 101.475 188.484 101.162 188.686C100.856 188.887 100.469 188.988 100 188.988C99.6159 188.988 99.2904 188.907 99.0234 188.744C98.7565 188.581 98.5384 188.357 98.3691 188.07C98.1999 187.79 98.0762 187.462 97.998 187.084C97.9264 186.7 97.8906 186.286 97.8906 185.844ZM110.352 189.428C110.352 189.929 110.521 190.349 110.859 190.688C111.198 191.026 111.657 191.195 112.236 191.195C112.809 191.195 113.265 191.029 113.604 190.697C113.949 190.359 114.121 189.936 114.121 189.428C114.121 188.92 113.952 188.493 113.613 188.148C113.281 187.803 112.822 187.631 112.236 187.631C111.644 187.631 111.182 187.807 110.85 188.158C110.518 188.503 110.352 188.926 110.352 189.428ZM110.352 181.361C110.352 181.863 110.521 182.283 110.859 182.621C111.198 182.96 111.657 183.129 112.236 183.129C112.809 183.129 113.265 182.963 113.604 182.631C113.949 182.292 114.121 181.869 114.121 181.361C114.121 180.854 113.952 180.427 113.613 180.082C113.281 179.737 112.822 179.564 112.236 179.564C111.644 179.564 111.182 179.74 110.85 180.092C110.518 180.437 110.352 180.86 110.352 181.361Z" fill="white"/>
<path d="M20.6543 151V136.781H17.9004L17.8906 145.912L13.9648 136.781H11.2012V151H13.9648V141.83L17.9199 151H20.6543ZM29.9902 151H32.7441V150.834C32.6074 150.567 32.5033 150.248 32.4316 149.877C32.36 149.506 32.3242 149.037 32.3242 148.471V143.939C32.3242 143.327 32.2103 142.79 31.9824 142.328C31.7546 141.859 31.4388 141.472 31.0352 141.166C30.6315 140.86 30.153 140.629 29.5996 140.473C29.0527 140.316 28.4603 140.238 27.8223 140.238C27.1126 140.238 26.4811 140.329 25.9277 140.512C25.3809 140.688 24.9186 140.928 24.541 141.234C24.1569 141.54 23.8639 141.895 23.6621 142.299C23.4668 142.702 23.3691 143.129 23.3691 143.578H26.084C26.084 143.389 26.11 143.217 26.1621 143.061C26.2207 142.904 26.3086 142.771 26.4258 142.66C26.556 142.536 26.7253 142.442 26.9336 142.377C27.1419 142.305 27.3893 142.27 27.6758 142.27C28.0013 142.27 28.2845 142.312 28.5254 142.396C28.7728 142.475 28.9779 142.589 29.1406 142.738C29.2969 142.882 29.4141 143.054 29.4922 143.256C29.5703 143.451 29.6094 143.673 29.6094 143.92V144.545H28.0957C27.3145 144.545 26.6211 144.617 26.0156 144.76C25.4167 144.896 24.9121 145.098 24.502 145.365C24.0462 145.658 23.7044 146.033 23.4766 146.488C23.2487 146.938 23.1348 147.455 23.1348 148.041C23.1348 148.497 23.2259 148.92 23.4082 149.311C23.5905 149.695 23.8444 150.027 24.1699 150.307C24.4954 150.587 24.8828 150.805 25.332 150.961C25.7878 151.117 26.2858 151.195 26.8262 151.195C27.1582 151.195 27.4674 151.163 27.7539 151.098C28.0404 151.039 28.304 150.954 28.5449 150.844C28.7793 150.74 28.9941 150.616 29.1895 150.473C29.3848 150.329 29.5573 150.176 29.707 150.014C29.7396 150.202 29.7786 150.382 29.8242 150.551C29.8698 150.72 29.9251 150.87 29.9902 151ZM27.4023 149.096C27.1484 149.096 26.9238 149.066 26.7285 149.008C26.5397 148.943 26.3802 148.858 26.25 148.754C26.1198 148.643 26.0189 148.51 25.9473 148.354C25.8822 148.191 25.8496 148.015 25.8496 147.826C25.8496 147.585 25.8952 147.364 25.9863 147.162C26.0775 146.954 26.2174 146.775 26.4062 146.625C26.5951 146.482 26.8392 146.371 27.1387 146.293C27.4382 146.208 27.7995 146.166 28.2227 146.166H29.6094V147.982C29.5312 148.119 29.4238 148.256 29.2871 148.393C29.1504 148.523 28.9876 148.64 28.7988 148.744C28.61 148.848 28.3984 148.933 28.1641 148.998C27.9297 149.063 27.6758 149.096 27.4023 149.096ZM37.0898 140.434H34.7559V151H37.2266V143.09C37.2591 143.005 37.2949 142.927 37.334 142.855C37.373 142.784 37.4186 142.722 37.4707 142.67C37.5423 142.598 37.6237 142.543 37.7148 142.504C37.806 142.465 37.9102 142.445 38.0273 142.445C38.1315 142.445 38.2292 142.462 38.3203 142.494C38.4115 142.52 38.4928 142.569 38.5645 142.641C38.6296 142.712 38.6816 142.813 38.7207 142.943C38.7598 143.074 38.7793 143.24 38.7793 143.441V151H41.1719V143.207C41.1719 143.129 41.1719 143.067 41.1719 143.021C41.1719 142.976 41.1719 142.947 41.1719 142.934C41.2044 142.862 41.2435 142.8 41.2891 142.748C41.3346 142.689 41.3867 142.637 41.4453 142.592C41.5169 142.546 41.5918 142.51 41.6699 142.484C41.7546 142.458 41.849 142.445 41.9531 142.445C42.0508 142.445 42.1452 142.462 42.2363 142.494C42.334 142.52 42.4186 142.569 42.4902 142.641C42.5618 142.719 42.6172 142.823 42.6562 142.953C42.7018 143.083 42.7246 143.249 42.7246 143.451V151H45.1953V143.461C45.1953 142.875 45.1367 142.38 45.0195 141.977C44.9089 141.566 44.7526 141.231 44.5508 140.971C44.3424 140.717 44.0983 140.531 43.8184 140.414C43.5449 140.297 43.2487 140.238 42.9297 140.238C42.6758 140.238 42.4414 140.271 42.2266 140.336C42.0117 140.401 41.8197 140.492 41.6504 140.609C41.5137 140.701 41.3867 140.811 41.2695 140.941C41.1589 141.065 41.0579 141.205 40.9668 141.361C40.9082 141.199 40.8366 141.055 40.752 140.932C40.6738 140.801 40.5794 140.691 40.4688 140.6C40.3255 140.476 40.1562 140.385 39.9609 140.326C39.7656 140.268 39.5443 140.238 39.2969 140.238C38.7891 140.238 38.3561 140.372 37.998 140.639C37.6465 140.899 37.3698 141.257 37.168 141.713L37.0898 140.434ZM52.5391 151.195C53.5612 151.195 54.4466 150.997 55.1953 150.6C55.944 150.202 56.4909 149.76 56.8359 149.271L55.4785 147.807C55.166 148.21 54.7591 148.513 54.2578 148.715C53.7565 148.917 53.2389 149.018 52.7051 149.018C52.3275 149.018 51.9792 148.959 51.6602 148.842C51.3411 148.725 51.0579 148.559 50.8105 148.344C50.5697 148.135 50.3776 147.904 50.2344 147.65C50.0911 147.39 49.974 147.048 49.8828 146.625V146.596H57.0508V145.443C57.0508 144.669 56.9434 143.962 56.7285 143.324C56.5137 142.68 56.2012 142.13 55.791 141.674C55.3743 141.218 54.8665 140.867 54.2676 140.619C53.6751 140.365 52.998 140.238 52.2363 140.238C51.5007 140.238 50.8203 140.372 50.1953 140.639C49.5703 140.906 49.0299 141.28 48.5742 141.762C48.1185 142.243 47.7637 142.82 47.5098 143.49C47.2559 144.154 47.1289 144.89 47.1289 145.697V146.088C47.1289 146.798 47.2559 147.465 47.5098 148.09C47.7702 148.708 48.138 149.245 48.6133 149.701C49.0885 150.163 49.6582 150.528 50.3223 150.795C50.9863 151.062 51.7253 151.195 52.5391 151.195ZM52.2168 142.436C52.5618 142.436 52.8646 142.491 53.125 142.602C53.3919 142.706 53.6165 142.849 53.7988 143.031C53.9811 143.22 54.1243 143.441 54.2285 143.695C54.3327 143.949 54.3848 144.219 54.3848 144.506V144.721H49.9316C49.9967 144.376 50.0944 144.063 50.2246 143.783C50.3548 143.503 50.5176 143.262 50.7129 143.061C50.9017 142.859 51.123 142.706 51.377 142.602C51.6309 142.491 51.9108 142.436 52.2168 142.436ZM62.3047 149.428C62.3047 149.929 62.474 150.349 62.8125 150.688C63.151 151.026 63.61 151.195 64.1895 151.195C64.7624 151.195 65.2181 151.029 65.5566 150.697C65.9017 150.359 66.0742 149.936 66.0742 149.428C66.0742 148.92 65.9049 148.493 65.5664 148.148C65.2344 147.803 64.7754 147.631 64.1895 147.631C63.597 147.631 63.1348 147.807 62.8027 148.158C62.4707 148.503 62.3047 148.926 62.3047 149.428ZM62.3047 141.361C62.3047 141.863 62.474 142.283 62.8125 142.621C63.151 142.96 63.61 143.129 64.1895 143.129C64.7624 143.129 65.2181 142.963 65.5566 142.631C65.9017 142.292 66.0742 141.869 66.0742 141.361C66.0742 140.854 65.9049 140.427 65.5664 140.082C65.2344 139.737 64.7754 139.564 64.1895 139.564C63.597 139.564 63.1348 139.74 62.8027 140.092C62.4707 140.437 62.3047 140.86 62.3047 141.361Z" fill="white"/>
<path d="M143.34 49.1875H135.711L135.684 75.5742C135.665 76.8685 135.529 78.0078 135.273 78.9922C135.018 79.9766 134.635 80.7969 134.125 81.4531C133.651 82.0911 133.049 82.5742 132.32 82.9023C131.609 83.2122 130.789 83.3672 129.859 83.3672C129.003 83.3672 128.246 83.2214 127.59 82.9297C126.934 82.6198 126.378 82.1641 125.922 81.5625C125.43 80.9062 125.056 80.0768 124.801 79.0742C124.564 78.0716 124.436 76.9049 124.418 75.5742L124.391 49.1875H116.707L116.68 75.5742C116.68 77.7982 116.99 79.7852 117.609 81.5352C118.247 83.2669 119.141 84.7253 120.289 85.9102C121.438 87.0951 122.814 87.9974 124.418 88.6172C126.04 89.237 127.854 89.5469 129.859 89.5469C131.992 89.5469 133.888 89.237 135.547 88.6172C137.224 87.9974 138.646 87.0859 139.812 85.8828C140.961 84.6979 141.836 83.2396 142.438 81.5078C143.057 79.776 143.367 77.7982 143.367 75.5742L143.34 49.1875ZM169.809 80.8789C169.809 81.3346 169.69 81.7539 169.453 82.1367C169.234 82.5195 168.897 82.8568 168.441 83.1484C167.967 83.4401 167.357 83.6771 166.609 83.8594C165.88 84.0234 165.023 84.1055 164.039 84.1055C163.219 84.1055 162.417 84.0234 161.633 83.8594C160.867 83.6953 160.184 83.431 159.582 83.0664C158.98 82.7201 158.488 82.2643 158.105 81.6992C157.723 81.1159 157.504 80.4232 157.449 79.6211H150.203C150.203 80.8242 150.495 82.0273 151.078 83.2305C151.68 84.4154 152.555 85.4727 153.703 86.4023C154.852 87.3503 156.273 88.1159 157.969 88.6992C159.682 89.2826 161.651 89.5742 163.875 89.5742C165.898 89.5742 167.73 89.3555 169.371 88.918C171.012 88.4622 172.415 87.8333 173.582 87.0312C174.73 86.2292 175.615 85.2812 176.234 84.1875C176.872 83.0755 177.191 81.8633 177.191 80.5508C177.191 79.1289 176.872 77.9076 176.234 76.8867C175.615 75.8477 174.749 74.9635 173.637 74.2344C172.525 73.5234 171.203 72.9401 169.672 72.4844C168.141 72.0286 166.482 71.6549 164.695 71.3633C163.456 71.181 162.435 70.9714 161.633 70.7344C160.831 70.4792 160.202 70.1966 159.746 69.8867C159.272 69.5951 158.944 69.2669 158.762 68.9023C158.579 68.5195 158.488 68.1094 158.488 67.6719C158.488 67.2344 158.589 66.8242 158.789 66.4414C159.008 66.0404 159.318 65.694 159.719 65.4023C160.156 65.0742 160.721 64.819 161.414 64.6367C162.107 64.4544 162.918 64.3633 163.848 64.3633C164.941 64.3633 165.871 64.5 166.637 64.7734C167.421 65.0469 168.04 65.4115 168.496 65.8672C168.824 66.2135 169.07 66.6055 169.234 67.043C169.398 67.4622 169.48 67.918 169.48 68.4102H177.082C177.082 67.043 176.781 65.776 176.18 64.6094C175.578 63.4427 174.712 62.431 173.582 61.5742C172.434 60.7357 171.039 60.0794 169.398 59.6055C167.758 59.1133 165.908 58.8672 163.848 58.8672C161.879 58.8672 160.111 59.1133 158.543 59.6055C156.975 60.0977 155.645 60.763 154.551 61.6016C153.457 62.4401 152.618 63.4154 152.035 64.5273C151.452 65.6393 151.16 66.806 151.16 68.0273C151.16 69.2852 151.443 70.3971 152.008 71.3633C152.591 72.3294 153.393 73.1771 154.414 73.9062C155.435 74.6536 156.656 75.2917 158.078 75.8203C159.518 76.3307 161.104 76.7591 162.836 77.1055C164.203 77.3607 165.333 77.6159 166.227 77.8711C167.12 78.1263 167.84 78.3997 168.387 78.6914C168.915 79.0013 169.28 79.3294 169.48 79.6758C169.699 80.0221 169.809 80.4232 169.809 80.8789ZM198.711 89.5469C201.573 89.5469 204.052 88.9909 206.148 87.8789C208.245 86.7669 209.776 85.5273 210.742 84.1602L206.941 80.0586C206.066 81.1888 204.927 82.0365 203.523 82.6016C202.12 83.1667 200.671 83.4492 199.176 83.4492C198.118 83.4492 197.143 83.2852 196.25 82.957C195.357 82.6289 194.564 82.1641 193.871 81.5625C193.197 80.9792 192.659 80.332 192.258 79.6211C191.857 78.8919 191.529 77.9349 191.273 76.75V76.668H211.344V73.4414C211.344 71.2721 211.043 69.2943 210.441 67.5078C209.84 65.7031 208.965 64.1628 207.816 62.8867C206.65 61.6107 205.228 60.6263 203.551 59.9336C201.892 59.2227 199.996 58.8672 197.863 58.8672C195.803 58.8672 193.898 59.2409 192.148 59.9883C190.398 60.7357 188.885 61.7839 187.609 63.1328C186.333 64.4818 185.34 66.0951 184.629 67.9727C183.918 69.832 183.562 71.8919 183.562 74.1523V75.2461C183.562 77.2331 183.918 79.1016 184.629 80.8516C185.358 82.5833 186.388 84.0872 187.719 85.3633C189.049 86.6576 190.645 87.6784 192.504 88.4258C194.363 89.1732 196.432 89.5469 198.711 89.5469ZM197.809 65.0195C198.775 65.0195 199.622 65.1745 200.352 65.4844C201.099 65.776 201.728 66.1771 202.238 66.6875C202.749 67.2161 203.15 67.8359 203.441 68.5469C203.733 69.2578 203.879 70.0143 203.879 70.8164V71.418H191.41C191.592 70.4518 191.866 69.5768 192.23 68.793C192.595 68.0091 193.051 67.3346 193.598 66.7695C194.126 66.2044 194.746 65.776 195.457 65.4844C196.168 65.1745 196.952 65.0195 197.809 65.0195ZM239.234 58.8672C237.247 58.8672 235.415 59.3503 233.738 60.3164C232.061 61.2643 230.621 62.5768 229.418 64.2539L229.363 63.5977L229.062 59.4141H221.98V89H229.582V71.2266C229.928 70.388 230.366 69.6589 230.895 69.0391C231.423 68.4193 232.061 67.9089 232.809 67.5078C233.428 67.1615 234.13 66.9062 234.914 66.7422C235.716 66.5599 236.609 66.4688 237.594 66.4688C238.542 66.4688 239.535 66.5326 240.574 66.6602C241.632 66.7695 242.661 66.9427 243.664 67.1797L244.785 59.6055C244.184 59.4232 243.391 59.2591 242.406 59.1133C241.44 58.9492 240.383 58.8672 239.234 58.8672Z" fill="white"/>
<path d="M350 14.365L345.635 10L338 17.635L330.365 10L326 14.365L333.635 22L326 29.635L330.365 34L338 26.365L345.635 34L350 29.635L342.365 22L350 14.365Z" fill="white"/>
</svg>
