<svg width="360" height="640" viewBox="0 0 360 640" fill="none" xmlns="http://www.w3.org/2000/svg">
<rect width="360" height="640" fill="#0D1117"/>
<path d="M302.745 293L303.998 294.253L291.893 306.333H290.666V305.107L302.745 293ZM307.544 285C307.211 285 306.864 285.133 306.611 285.387L304.171 287.827L309.17 292.827L311.61 290.387C312.13 289.867 312.13 289 311.61 288.507L308.49 285.387C308.224 285.12 307.891 285 307.544 285ZM302.745 289.253L288 304V309H292.999L307.744 294.253L302.745 289.253Z" fill="#006ACB"/>
<path d="M139.406 299.199L142.199 305H144.104L144.113 304.883L141.096 298.809C141.486 298.639 141.844 298.434 142.17 298.193C142.495 297.952 142.775 297.676 143.01 297.363C143.244 297.051 143.426 296.702 143.557 296.318C143.693 295.934 143.762 295.511 143.762 295.049C143.762 294.333 143.635 293.711 143.381 293.184C143.133 292.65 142.792 292.207 142.355 291.855C141.913 291.504 141.398 291.24 140.812 291.064C140.227 290.889 139.602 290.794 138.938 290.781H134.768V305H136.564V299.199H139.406ZM136.564 297.715V292.266H138.938C139.374 292.272 139.774 292.334 140.139 292.451C140.51 292.568 140.829 292.741 141.096 292.969C141.363 293.203 141.571 293.493 141.721 293.838C141.87 294.176 141.945 294.574 141.945 295.029C141.945 295.459 141.867 295.84 141.711 296.172C141.555 296.497 141.343 296.774 141.076 297.002C140.803 297.23 140.487 297.406 140.129 297.529C139.771 297.646 139.39 297.708 138.986 297.715H136.564ZM146.203 299.619V299.834C146.203 300.596 146.314 301.302 146.535 301.953C146.757 302.604 147.076 303.171 147.492 303.652C147.902 304.134 148.404 304.512 148.996 304.785C149.595 305.059 150.269 305.195 151.018 305.195C151.76 305.195 152.427 305.059 153.02 304.785C153.612 304.512 154.117 304.134 154.533 303.652C154.943 303.171 155.259 302.604 155.48 301.953C155.702 301.302 155.812 300.596 155.812 299.834V299.619C155.812 298.857 155.702 298.151 155.48 297.5C155.259 296.842 154.943 296.273 154.533 295.791C154.117 295.309 153.609 294.932 153.01 294.658C152.417 294.378 151.747 294.238 150.998 294.238C150.256 294.238 149.589 294.378 148.996 294.658C148.404 294.932 147.902 295.309 147.492 295.791C147.076 296.273 146.757 296.842 146.535 297.5C146.314 298.151 146.203 298.857 146.203 299.619ZM148.01 299.834V299.619C148.01 299.105 148.072 298.613 148.195 298.145C148.319 297.669 148.508 297.253 148.762 296.895C149.009 296.536 149.318 296.253 149.689 296.045C150.061 295.83 150.497 295.723 150.998 295.723C151.499 295.723 151.936 295.83 152.307 296.045C152.684 296.253 153 296.536 153.254 296.895C153.501 297.253 153.687 297.669 153.811 298.145C153.941 298.613 154.006 299.105 154.006 299.619V299.834C154.006 300.355 153.944 300.853 153.82 301.328C153.697 301.797 153.511 302.21 153.264 302.568C153.01 302.926 152.694 303.21 152.316 303.418C151.945 303.626 151.512 303.73 151.018 303.73C150.516 303.73 150.077 303.626 149.699 303.418C149.322 303.21 149.009 302.926 148.762 302.568C148.508 302.21 148.319 301.797 148.195 301.328C148.072 300.853 148.01 300.355 148.01 299.834ZM159.006 290V291.572H162.6V303.438H159.006V305H167.854V303.438H164.406V290H159.006ZM175.402 305.195C176.431 305.195 177.294 304.99 177.99 304.58C178.693 304.163 179.221 303.688 179.572 303.154L178.469 302.295C178.137 302.725 177.72 303.07 177.219 303.33C176.717 303.59 176.145 303.721 175.5 303.721C175.012 303.721 174.566 303.63 174.162 303.447C173.758 303.265 173.413 303.014 173.127 302.695C172.847 302.396 172.626 302.051 172.463 301.66C172.307 301.27 172.206 300.817 172.16 300.303V300.234H179.709V299.424C179.709 298.688 179.615 298.005 179.426 297.373C179.243 296.742 178.964 296.191 178.586 295.723C178.208 295.26 177.733 294.899 177.16 294.639C176.594 294.372 175.93 294.238 175.168 294.238C174.562 294.238 173.97 294.362 173.391 294.609C172.818 294.857 172.307 295.212 171.857 295.674C171.402 296.143 171.037 296.715 170.764 297.393C170.49 298.063 170.354 298.825 170.354 299.678V300.088C170.354 300.824 170.477 301.504 170.725 302.129C170.972 302.754 171.317 303.294 171.76 303.75C172.202 304.206 172.733 304.561 173.352 304.814C173.977 305.068 174.66 305.195 175.402 305.195ZM175.168 295.723C175.63 295.723 176.027 295.807 176.359 295.977C176.698 296.146 176.978 296.367 177.199 296.641C177.421 296.914 177.593 297.24 177.717 297.617C177.84 297.988 177.902 298.337 177.902 298.662V298.75H172.219C172.29 298.262 172.414 297.832 172.59 297.461C172.772 297.083 172.993 296.764 173.254 296.504C173.514 296.25 173.807 296.058 174.133 295.928C174.458 295.791 174.803 295.723 175.168 295.723Z" fill="white"/>
<path d="M18.6426 305H20.5273V304.844C20.4102 304.551 20.319 304.209 20.2539 303.818C20.1888 303.421 20.1562 303.047 20.1562 302.695V297.783C20.1562 297.191 20.0488 296.673 19.834 296.23C19.6191 295.788 19.3262 295.417 18.9551 295.117C18.5775 294.824 18.1315 294.606 17.6172 294.463C17.1029 294.313 16.5462 294.238 15.9473 294.238C15.2897 294.238 14.7005 294.329 14.1797 294.512C13.6654 294.694 13.2292 294.932 12.8711 295.225C12.5065 295.524 12.2266 295.859 12.0312 296.23C11.8424 296.602 11.7448 296.979 11.7383 297.363H13.5547C13.5547 297.142 13.6068 296.93 13.7109 296.729C13.8216 296.52 13.9746 296.341 14.1699 296.191C14.3652 296.042 14.6029 295.921 14.8828 295.83C15.1693 295.739 15.4915 295.693 15.8496 295.693C16.2337 295.693 16.5788 295.742 16.8848 295.84C17.1973 295.938 17.4609 296.074 17.6758 296.25C17.8906 296.432 18.0566 296.65 18.1738 296.904C18.291 297.158 18.3496 297.445 18.3496 297.764V298.594H16.377C15.6413 298.594 14.974 298.665 14.375 298.809C13.7826 298.952 13.2747 299.167 12.8516 299.453C12.4284 299.746 12.0996 300.111 11.8652 300.547C11.6374 300.983 11.5234 301.491 11.5234 302.07C11.5234 302.513 11.6081 302.926 11.7773 303.311C11.9531 303.688 12.2005 304.014 12.5195 304.287C12.832 304.567 13.2129 304.788 13.6621 304.951C14.1178 305.114 14.6257 305.195 15.1855 305.195C15.5306 305.195 15.8561 305.16 16.1621 305.088C16.4681 305.016 16.7578 304.919 17.0312 304.795C17.2982 304.671 17.5423 304.528 17.7637 304.365C17.9915 304.202 18.1966 304.03 18.3789 303.848C18.3984 304.069 18.4277 304.284 18.4668 304.492C18.5124 304.694 18.571 304.863 18.6426 305ZM15.4492 303.623C15.0977 303.623 14.7884 303.577 14.5215 303.486C14.2546 303.395 14.0332 303.268 13.8574 303.105C13.6816 302.949 13.5482 302.76 13.457 302.539C13.3724 302.318 13.3301 302.077 13.3301 301.816C13.3301 301.543 13.3789 301.299 13.4766 301.084C13.5807 300.869 13.7305 300.684 13.9258 300.527C14.1992 300.306 14.5671 300.143 15.0293 300.039C15.498 299.928 16.0449 299.873 16.6699 299.873H18.3496V302.012C18.2454 302.22 18.1022 302.422 17.9199 302.617C17.7376 302.806 17.5228 302.975 17.2754 303.125C17.0215 303.275 16.7415 303.395 16.4355 303.486C16.1296 303.577 15.8008 303.623 15.4492 303.623ZM23.9941 290V291.572H27.5879V303.438H23.9941V305H32.8418V303.438H29.3945V290H23.9941ZM40.3906 305.195C41.4193 305.195 42.2819 304.99 42.9785 304.58C43.6816 304.163 44.209 303.688 44.5605 303.154L43.457 302.295C43.125 302.725 42.7083 303.07 42.207 303.33C41.7057 303.59 41.1328 303.721 40.4883 303.721C40 303.721 39.554 303.63 39.1504 303.447C38.7467 303.265 38.4017 303.014 38.1152 302.695C37.8353 302.396 37.6139 302.051 37.4512 301.66C37.2949 301.27 37.194 300.817 37.1484 300.303V300.234H44.6973V299.424C44.6973 298.688 44.6029 298.005 44.4141 297.373C44.2318 296.742 43.9518 296.191 43.5742 295.723C43.1966 295.26 42.7214 294.899 42.1484 294.639C41.582 294.372 40.918 294.238 40.1562 294.238C39.5508 294.238 38.9583 294.362 38.3789 294.609C37.806 294.857 37.2949 295.212 36.8457 295.674C36.39 296.143 36.0254 296.715 35.752 297.393C35.4785 298.063 35.3418 298.825 35.3418 299.678V300.088C35.3418 300.824 35.4655 301.504 35.7129 302.129C35.9603 302.754 36.3053 303.294 36.748 303.75C37.1908 304.206 37.7214 304.561 38.3398 304.814C38.9648 305.068 39.6484 305.195 40.3906 305.195ZM40.1562 295.723C40.6185 295.723 41.0156 295.807 41.3477 295.977C41.6862 296.146 41.9661 296.367 42.1875 296.641C42.4089 296.914 42.5814 297.24 42.7051 297.617C42.8288 297.988 42.8906 298.337 42.8906 298.662V298.75H37.207C37.2786 298.262 37.4023 297.832 37.5781 297.461C37.7604 297.083 37.9818 296.764 38.2422 296.504C38.5026 296.25 38.7956 296.058 39.1211 295.928C39.4466 295.791 39.7917 295.723 40.1562 295.723ZM52.0996 298.35L49.3066 294.434H47.2168L51.1523 299.658L47.1094 305H49.2188L52.1387 300.977L55.0586 305H57.1484L53.1055 299.658L57.041 294.434H54.9219L52.0996 298.35Z" fill="white"/>
<path d="M302.745 257L303.998 258.253L291.893 270.333H290.666V269.107L302.745 257ZM307.544 249C307.211 249 306.864 249.133 306.611 249.387L304.171 251.827L309.17 256.827L311.61 254.387C312.13 253.867 312.13 253 311.61 252.507L308.49 249.387C308.224 249.12 307.891 249 307.544 249ZM302.745 253.253L288 268V273H292.999L307.744 258.253L302.745 253.253Z" fill="#006ACB"/>
<path d="M139.406 263.199L142.199 269H144.104L144.113 268.883L141.096 262.809C141.486 262.639 141.844 262.434 142.17 262.193C142.495 261.952 142.775 261.676 143.01 261.363C143.244 261.051 143.426 260.702 143.557 260.318C143.693 259.934 143.762 259.511 143.762 259.049C143.762 258.333 143.635 257.711 143.381 257.184C143.133 256.65 142.792 256.207 142.355 255.855C141.913 255.504 141.398 255.24 140.812 255.064C140.227 254.889 139.602 254.794 138.938 254.781H134.768V269H136.564V263.199H139.406ZM136.564 261.715V256.266H138.938C139.374 256.272 139.774 256.334 140.139 256.451C140.51 256.568 140.829 256.741 141.096 256.969C141.363 257.203 141.571 257.493 141.721 257.838C141.87 258.176 141.945 258.574 141.945 259.029C141.945 259.459 141.867 259.84 141.711 260.172C141.555 260.497 141.343 260.774 141.076 261.002C140.803 261.23 140.487 261.406 140.129 261.529C139.771 261.646 139.39 261.708 138.986 261.715H136.564ZM146.203 263.619V263.834C146.203 264.596 146.314 265.302 146.535 265.953C146.757 266.604 147.076 267.171 147.492 267.652C147.902 268.134 148.404 268.512 148.996 268.785C149.595 269.059 150.269 269.195 151.018 269.195C151.76 269.195 152.427 269.059 153.02 268.785C153.612 268.512 154.117 268.134 154.533 267.652C154.943 267.171 155.259 266.604 155.48 265.953C155.702 265.302 155.812 264.596 155.812 263.834V263.619C155.812 262.857 155.702 262.151 155.48 261.5C155.259 260.842 154.943 260.273 154.533 259.791C154.117 259.309 153.609 258.932 153.01 258.658C152.417 258.378 151.747 258.238 150.998 258.238C150.256 258.238 149.589 258.378 148.996 258.658C148.404 258.932 147.902 259.309 147.492 259.791C147.076 260.273 146.757 260.842 146.535 261.5C146.314 262.151 146.203 262.857 146.203 263.619ZM148.01 263.834V263.619C148.01 263.105 148.072 262.613 148.195 262.145C148.319 261.669 148.508 261.253 148.762 260.895C149.009 260.536 149.318 260.253 149.689 260.045C150.061 259.83 150.497 259.723 150.998 259.723C151.499 259.723 151.936 259.83 152.307 260.045C152.684 260.253 153 260.536 153.254 260.895C153.501 261.253 153.687 261.669 153.811 262.145C153.941 262.613 154.006 263.105 154.006 263.619V263.834C154.006 264.355 153.944 264.853 153.82 265.328C153.697 265.797 153.511 266.21 153.264 266.568C153.01 266.926 152.694 267.21 152.316 267.418C151.945 267.626 151.512 267.73 151.018 267.73C150.516 267.73 150.077 267.626 149.699 267.418C149.322 267.21 149.009 266.926 148.762 266.568C148.508 266.21 148.319 265.797 148.195 265.328C148.072 264.853 148.01 264.355 148.01 263.834ZM159.006 254V255.572H162.6V267.438H159.006V269H167.854V267.438H164.406V254H159.006ZM175.402 269.195C176.431 269.195 177.294 268.99 177.99 268.58C178.693 268.163 179.221 267.688 179.572 267.154L178.469 266.295C178.137 266.725 177.72 267.07 177.219 267.33C176.717 267.59 176.145 267.721 175.5 267.721C175.012 267.721 174.566 267.63 174.162 267.447C173.758 267.265 173.413 267.014 173.127 266.695C172.847 266.396 172.626 266.051 172.463 265.66C172.307 265.27 172.206 264.817 172.16 264.303V264.234H179.709V263.424C179.709 262.688 179.615 262.005 179.426 261.373C179.243 260.742 178.964 260.191 178.586 259.723C178.208 259.26 177.733 258.899 177.16 258.639C176.594 258.372 175.93 258.238 175.168 258.238C174.562 258.238 173.97 258.362 173.391 258.609C172.818 258.857 172.307 259.212 171.857 259.674C171.402 260.143 171.037 260.715 170.764 261.393C170.49 262.063 170.354 262.825 170.354 263.678V264.088C170.354 264.824 170.477 265.504 170.725 266.129C170.972 266.754 171.317 267.294 171.76 267.75C172.202 268.206 172.733 268.561 173.352 268.814C173.977 269.068 174.66 269.195 175.402 269.195ZM175.168 259.723C175.63 259.723 176.027 259.807 176.359 259.977C176.698 260.146 176.978 260.367 177.199 260.641C177.421 260.914 177.593 261.24 177.717 261.617C177.84 261.988 177.902 262.337 177.902 262.662V262.75H172.219C172.29 262.262 172.414 261.832 172.59 261.461C172.772 261.083 172.993 260.764 173.254 260.504C173.514 260.25 173.807 260.058 174.133 259.928C174.458 259.791 174.803 259.723 175.168 259.723Z" fill="white"/>
<path d="M18.6426 269H20.5273V268.844C20.4102 268.551 20.319 268.209 20.2539 267.818C20.1888 267.421 20.1562 267.047 20.1562 266.695V261.783C20.1562 261.191 20.0488 260.673 19.834 260.23C19.6191 259.788 19.3262 259.417 18.9551 259.117C18.5775 258.824 18.1315 258.606 17.6172 258.463C17.1029 258.313 16.5462 258.238 15.9473 258.238C15.2897 258.238 14.7005 258.329 14.1797 258.512C13.6654 258.694 13.2292 258.932 12.8711 259.225C12.5065 259.524 12.2266 259.859 12.0312 260.23C11.8424 260.602 11.7448 260.979 11.7383 261.363H13.5547C13.5547 261.142 13.6068 260.93 13.7109 260.729C13.8216 260.52 13.9746 260.341 14.1699 260.191C14.3652 260.042 14.6029 259.921 14.8828 259.83C15.1693 259.739 15.4915 259.693 15.8496 259.693C16.2337 259.693 16.5788 259.742 16.8848 259.84C17.1973 259.938 17.4609 260.074 17.6758 260.25C17.8906 260.432 18.0566 260.65 18.1738 260.904C18.291 261.158 18.3496 261.445 18.3496 261.764V262.594H16.377C15.6413 262.594 14.974 262.665 14.375 262.809C13.7826 262.952 13.2747 263.167 12.8516 263.453C12.4284 263.746 12.0996 264.111 11.8652 264.547C11.6374 264.983 11.5234 265.491 11.5234 266.07C11.5234 266.513 11.6081 266.926 11.7773 267.311C11.9531 267.688 12.2005 268.014 12.5195 268.287C12.832 268.567 13.2129 268.788 13.6621 268.951C14.1178 269.114 14.6257 269.195 15.1855 269.195C15.5306 269.195 15.8561 269.16 16.1621 269.088C16.4681 269.016 16.7578 268.919 17.0312 268.795C17.2982 268.671 17.5423 268.528 17.7637 268.365C17.9915 268.202 18.1966 268.03 18.3789 267.848C18.3984 268.069 18.4277 268.284 18.4668 268.492C18.5124 268.694 18.571 268.863 18.6426 269ZM15.4492 267.623C15.0977 267.623 14.7884 267.577 14.5215 267.486C14.2546 267.395 14.0332 267.268 13.8574 267.105C13.6816 266.949 13.5482 266.76 13.457 266.539C13.3724 266.318 13.3301 266.077 13.3301 265.816C13.3301 265.543 13.3789 265.299 13.4766 265.084C13.5807 264.869 13.7305 264.684 13.9258 264.527C14.1992 264.306 14.5671 264.143 15.0293 264.039C15.498 263.928 16.0449 263.873 16.6699 263.873H18.3496V266.012C18.2454 266.22 18.1022 266.422 17.9199 266.617C17.7376 266.806 17.5228 266.975 17.2754 267.125C17.0215 267.275 16.7415 267.395 16.4355 267.486C16.1296 267.577 15.8008 267.623 15.4492 267.623ZM23.9941 254V255.572H27.5879V267.438H23.9941V269H32.8418V267.438H29.3945V254H23.9941ZM40.3906 269.195C41.4193 269.195 42.2819 268.99 42.9785 268.58C43.6816 268.163 44.209 267.688 44.5605 267.154L43.457 266.295C43.125 266.725 42.7083 267.07 42.207 267.33C41.7057 267.59 41.1328 267.721 40.4883 267.721C40 267.721 39.554 267.63 39.1504 267.447C38.7467 267.265 38.4017 267.014 38.1152 266.695C37.8353 266.396 37.6139 266.051 37.4512 265.66C37.2949 265.27 37.194 264.817 37.1484 264.303V264.234H44.6973V263.424C44.6973 262.688 44.6029 262.005 44.4141 261.373C44.2318 260.742 43.9518 260.191 43.5742 259.723C43.1966 259.26 42.7214 258.899 42.1484 258.639C41.582 258.372 40.918 258.238 40.1562 258.238C39.5508 258.238 38.9583 258.362 38.3789 258.609C37.806 258.857 37.2949 259.212 36.8457 259.674C36.39 260.143 36.0254 260.715 35.752 261.393C35.4785 262.063 35.3418 262.825 35.3418 263.678V264.088C35.3418 264.824 35.4655 265.504 35.7129 266.129C35.9603 266.754 36.3053 267.294 36.748 267.75C37.1908 268.206 37.7214 268.561 38.3398 268.814C38.9648 269.068 39.6484 269.195 40.3906 269.195ZM40.1562 259.723C40.6185 259.723 41.0156 259.807 41.3477 259.977C41.6862 260.146 41.9661 260.367 42.1875 260.641C42.4089 260.914 42.5814 261.24 42.7051 261.617C42.8288 261.988 42.8906 262.337 42.8906 262.662V262.75H37.207C37.2786 262.262 37.4023 261.832 37.5781 261.461C37.7604 261.083 37.9818 260.764 38.2422 260.504C38.5026 260.25 38.7956 260.058 39.1211 259.928C39.4466 259.791 39.7917 259.723 40.1562 259.723ZM52.0996 262.35L49.3066 258.434H47.2168L51.1523 263.658L47.1094 269H49.2188L52.1387 264.977L55.0586 269H57.1484L53.1055 263.658L57.041 258.434H54.9219L52.0996 262.35Z" fill="white"/>
<path d="M302.745 221L303.998 222.253L291.893 234.333H290.666V233.107L302.745 221ZM307.544 213C307.211 213 306.864 213.133 306.611 213.387L304.171 215.827L309.17 220.827L311.61 218.387C312.13 217.867 312.13 217 311.61 216.507L308.49 213.387C308.224 213.12 307.891 213 307.544 213ZM302.745 217.253L288 232V237H292.999L307.744 222.253L302.745 217.253Z" fill="#006ACB"/>
<path d="M139.406 227.199L142.199 233H144.104L144.113 232.883L141.096 226.809C141.486 226.639 141.844 226.434 142.17 226.193C142.495 225.952 142.775 225.676 143.01 225.363C143.244 225.051 143.426 224.702 143.557 224.318C143.693 223.934 143.762 223.511 143.762 223.049C143.762 222.333 143.635 221.711 143.381 221.184C143.133 220.65 142.792 220.207 142.355 219.855C141.913 219.504 141.398 219.24 140.812 219.064C140.227 218.889 139.602 218.794 138.938 218.781H134.768V233H136.564V227.199H139.406ZM136.564 225.715V220.266H138.938C139.374 220.272 139.774 220.334 140.139 220.451C140.51 220.568 140.829 220.741 141.096 220.969C141.363 221.203 141.571 221.493 141.721 221.838C141.87 222.176 141.945 222.574 141.945 223.029C141.945 223.459 141.867 223.84 141.711 224.172C141.555 224.497 141.343 224.774 141.076 225.002C140.803 225.23 140.487 225.406 140.129 225.529C139.771 225.646 139.39 225.708 138.986 225.715H136.564ZM146.203 227.619V227.834C146.203 228.596 146.314 229.302 146.535 229.953C146.757 230.604 147.076 231.171 147.492 231.652C147.902 232.134 148.404 232.512 148.996 232.785C149.595 233.059 150.269 233.195 151.018 233.195C151.76 233.195 152.427 233.059 153.02 232.785C153.612 232.512 154.117 232.134 154.533 231.652C154.943 231.171 155.259 230.604 155.48 229.953C155.702 229.302 155.812 228.596 155.812 227.834V227.619C155.812 226.857 155.702 226.151 155.48 225.5C155.259 224.842 154.943 224.273 154.533 223.791C154.117 223.309 153.609 222.932 153.01 222.658C152.417 222.378 151.747 222.238 150.998 222.238C150.256 222.238 149.589 222.378 148.996 222.658C148.404 222.932 147.902 223.309 147.492 223.791C147.076 224.273 146.757 224.842 146.535 225.5C146.314 226.151 146.203 226.857 146.203 227.619ZM148.01 227.834V227.619C148.01 227.105 148.072 226.613 148.195 226.145C148.319 225.669 148.508 225.253 148.762 224.895C149.009 224.536 149.318 224.253 149.689 224.045C150.061 223.83 150.497 223.723 150.998 223.723C151.499 223.723 151.936 223.83 152.307 224.045C152.684 224.253 153 224.536 153.254 224.895C153.501 225.253 153.687 225.669 153.811 226.145C153.941 226.613 154.006 227.105 154.006 227.619V227.834C154.006 228.355 153.944 228.853 153.82 229.328C153.697 229.797 153.511 230.21 153.264 230.568C153.01 230.926 152.694 231.21 152.316 231.418C151.945 231.626 151.512 231.73 151.018 231.73C150.516 231.73 150.077 231.626 149.699 231.418C149.322 231.21 149.009 230.926 148.762 230.568C148.508 230.21 148.319 229.797 148.195 229.328C148.072 228.853 148.01 228.355 148.01 227.834ZM159.006 218V219.572H162.6V231.438H159.006V233H167.854V231.438H164.406V218H159.006ZM175.402 233.195C176.431 233.195 177.294 232.99 177.99 232.58C178.693 232.163 179.221 231.688 179.572 231.154L178.469 230.295C178.137 230.725 177.72 231.07 177.219 231.33C176.717 231.59 176.145 231.721 175.5 231.721C175.012 231.721 174.566 231.63 174.162 231.447C173.758 231.265 173.413 231.014 173.127 230.695C172.847 230.396 172.626 230.051 172.463 229.66C172.307 229.27 172.206 228.817 172.16 228.303V228.234H179.709V227.424C179.709 226.688 179.615 226.005 179.426 225.373C179.243 224.742 178.964 224.191 178.586 223.723C178.208 223.26 177.733 222.899 177.16 222.639C176.594 222.372 175.93 222.238 175.168 222.238C174.562 222.238 173.97 222.362 173.391 222.609C172.818 222.857 172.307 223.212 171.857 223.674C171.402 224.143 171.037 224.715 170.764 225.393C170.49 226.063 170.354 226.825 170.354 227.678V228.088C170.354 228.824 170.477 229.504 170.725 230.129C170.972 230.754 171.317 231.294 171.76 231.75C172.202 232.206 172.733 232.561 173.352 232.814C173.977 233.068 174.66 233.195 175.402 233.195ZM175.168 223.723C175.63 223.723 176.027 223.807 176.359 223.977C176.698 224.146 176.978 224.367 177.199 224.641C177.421 224.914 177.593 225.24 177.717 225.617C177.84 225.988 177.902 226.337 177.902 226.662V226.75H172.219C172.29 226.262 172.414 225.832 172.59 225.461C172.772 225.083 172.993 224.764 173.254 224.504C173.514 224.25 173.807 224.058 174.133 223.928C174.458 223.791 174.803 223.723 175.168 223.723Z" fill="white"/>
<path d="M18.6426 233H20.5273V232.844C20.4102 232.551 20.319 232.209 20.2539 231.818C20.1888 231.421 20.1562 231.047 20.1562 230.695V225.783C20.1562 225.191 20.0488 224.673 19.834 224.23C19.6191 223.788 19.3262 223.417 18.9551 223.117C18.5775 222.824 18.1315 222.606 17.6172 222.463C17.1029 222.313 16.5462 222.238 15.9473 222.238C15.2897 222.238 14.7005 222.329 14.1797 222.512C13.6654 222.694 13.2292 222.932 12.8711 223.225C12.5065 223.524 12.2266 223.859 12.0312 224.23C11.8424 224.602 11.7448 224.979 11.7383 225.363H13.5547C13.5547 225.142 13.6068 224.93 13.7109 224.729C13.8216 224.52 13.9746 224.341 14.1699 224.191C14.3652 224.042 14.6029 223.921 14.8828 223.83C15.1693 223.739 15.4915 223.693 15.8496 223.693C16.2337 223.693 16.5788 223.742 16.8848 223.84C17.1973 223.938 17.4609 224.074 17.6758 224.25C17.8906 224.432 18.0566 224.65 18.1738 224.904C18.291 225.158 18.3496 225.445 18.3496 225.764V226.594H16.377C15.6413 226.594 14.974 226.665 14.375 226.809C13.7826 226.952 13.2747 227.167 12.8516 227.453C12.4284 227.746 12.0996 228.111 11.8652 228.547C11.6374 228.983 11.5234 229.491 11.5234 230.07C11.5234 230.513 11.6081 230.926 11.7773 231.311C11.9531 231.688 12.2005 232.014 12.5195 232.287C12.832 232.567 13.2129 232.788 13.6621 232.951C14.1178 233.114 14.6257 233.195 15.1855 233.195C15.5306 233.195 15.8561 233.16 16.1621 233.088C16.4681 233.016 16.7578 232.919 17.0312 232.795C17.2982 232.671 17.5423 232.528 17.7637 232.365C17.9915 232.202 18.1966 232.03 18.3789 231.848C18.3984 232.069 18.4277 232.284 18.4668 232.492C18.5124 232.694 18.571 232.863 18.6426 233ZM15.4492 231.623C15.0977 231.623 14.7884 231.577 14.5215 231.486C14.2546 231.395 14.0332 231.268 13.8574 231.105C13.6816 230.949 13.5482 230.76 13.457 230.539C13.3724 230.318 13.3301 230.077 13.3301 229.816C13.3301 229.543 13.3789 229.299 13.4766 229.084C13.5807 228.869 13.7305 228.684 13.9258 228.527C14.1992 228.306 14.5671 228.143 15.0293 228.039C15.498 227.928 16.0449 227.873 16.6699 227.873H18.3496V230.012C18.2454 230.22 18.1022 230.422 17.9199 230.617C17.7376 230.806 17.5228 230.975 17.2754 231.125C17.0215 231.275 16.7415 231.395 16.4355 231.486C16.1296 231.577 15.8008 231.623 15.4492 231.623ZM23.9941 218V219.572H27.5879V231.438H23.9941V233H32.8418V231.438H29.3945V218H23.9941ZM40.3906 233.195C41.4193 233.195 42.2819 232.99 42.9785 232.58C43.6816 232.163 44.209 231.688 44.5605 231.154L43.457 230.295C43.125 230.725 42.7083 231.07 42.207 231.33C41.7057 231.59 41.1328 231.721 40.4883 231.721C40 231.721 39.554 231.63 39.1504 231.447C38.7467 231.265 38.4017 231.014 38.1152 230.695C37.8353 230.396 37.6139 230.051 37.4512 229.66C37.2949 229.27 37.194 228.817 37.1484 228.303V228.234H44.6973V227.424C44.6973 226.688 44.6029 226.005 44.4141 225.373C44.2318 224.742 43.9518 224.191 43.5742 223.723C43.1966 223.26 42.7214 222.899 42.1484 222.639C41.582 222.372 40.918 222.238 40.1562 222.238C39.5508 222.238 38.9583 222.362 38.3789 222.609C37.806 222.857 37.2949 223.212 36.8457 223.674C36.39 224.143 36.0254 224.715 35.752 225.393C35.4785 226.063 35.3418 226.825 35.3418 227.678V228.088C35.3418 228.824 35.4655 229.504 35.7129 230.129C35.9603 230.754 36.3053 231.294 36.748 231.75C37.1908 232.206 37.7214 232.561 38.3398 232.814C38.9648 233.068 39.6484 233.195 40.3906 233.195ZM40.1562 223.723C40.6185 223.723 41.0156 223.807 41.3477 223.977C41.6862 224.146 41.9661 224.367 42.1875 224.641C42.4089 224.914 42.5814 225.24 42.7051 225.617C42.8288 225.988 42.8906 226.337 42.8906 226.662V226.75H37.207C37.2786 226.262 37.4023 225.832 37.5781 225.461C37.7604 225.083 37.9818 224.764 38.2422 224.504C38.5026 224.25 38.7956 224.058 39.1211 223.928C39.4466 223.791 39.7917 223.723 40.1562 223.723ZM52.0996 226.35L49.3066 222.434H47.2168L51.1523 227.658L47.1094 233H49.2188L52.1387 228.977L55.0586 233H57.1484L53.1055 227.658L57.041 222.434H54.9219L52.0996 226.35Z" fill="white"/>
<path d="M302.745 185L303.998 186.253L291.893 198.333H290.666V197.107L302.745 185ZM307.544 177C307.211 177 306.864 177.133 306.611 177.387L304.171 179.827L309.17 184.827L311.61 182.387C312.13 181.867 312.13 181 311.61 180.507L308.49 177.387C308.224 177.12 307.891 177 307.544 177ZM302.745 181.253L288 196V201H292.999L307.744 186.253L302.745 181.253Z" fill="#006ACB"/>
<path d="M139.406 191.199L142.199 197H144.104L144.113 196.883L141.096 190.809C141.486 190.639 141.844 190.434 142.17 190.193C142.495 189.952 142.775 189.676 143.01 189.363C143.244 189.051 143.426 188.702 143.557 188.318C143.693 187.934 143.762 187.511 143.762 187.049C143.762 186.333 143.635 185.711 143.381 185.184C143.133 184.65 142.792 184.207 142.355 183.855C141.913 183.504 141.398 183.24 140.812 183.064C140.227 182.889 139.602 182.794 138.938 182.781H134.768V197H136.564V191.199H139.406ZM136.564 189.715V184.266H138.938C139.374 184.272 139.774 184.334 140.139 184.451C140.51 184.568 140.829 184.741 141.096 184.969C141.363 185.203 141.571 185.493 141.721 185.838C141.87 186.176 141.945 186.574 141.945 187.029C141.945 187.459 141.867 187.84 141.711 188.172C141.555 188.497 141.343 188.774 141.076 189.002C140.803 189.23 140.487 189.406 140.129 189.529C139.771 189.646 139.39 189.708 138.986 189.715H136.564ZM146.203 191.619V191.834C146.203 192.596 146.314 193.302 146.535 193.953C146.757 194.604 147.076 195.171 147.492 195.652C147.902 196.134 148.404 196.512 148.996 196.785C149.595 197.059 150.269 197.195 151.018 197.195C151.76 197.195 152.427 197.059 153.02 196.785C153.612 196.512 154.117 196.134 154.533 195.652C154.943 195.171 155.259 194.604 155.48 193.953C155.702 193.302 155.812 192.596 155.812 191.834V191.619C155.812 190.857 155.702 190.151 155.48 189.5C155.259 188.842 154.943 188.273 154.533 187.791C154.117 187.309 153.609 186.932 153.01 186.658C152.417 186.378 151.747 186.238 150.998 186.238C150.256 186.238 149.589 186.378 148.996 186.658C148.404 186.932 147.902 187.309 147.492 187.791C147.076 188.273 146.757 188.842 146.535 189.5C146.314 190.151 146.203 190.857 146.203 191.619ZM148.01 191.834V191.619C148.01 191.105 148.072 190.613 148.195 190.145C148.319 189.669 148.508 189.253 148.762 188.895C149.009 188.536 149.318 188.253 149.689 188.045C150.061 187.83 150.497 187.723 150.998 187.723C151.499 187.723 151.936 187.83 152.307 188.045C152.684 188.253 153 188.536 153.254 188.895C153.501 189.253 153.687 189.669 153.811 190.145C153.941 190.613 154.006 191.105 154.006 191.619V191.834C154.006 192.355 153.944 192.853 153.82 193.328C153.697 193.797 153.511 194.21 153.264 194.568C153.01 194.926 152.694 195.21 152.316 195.418C151.945 195.626 151.512 195.73 151.018 195.73C150.516 195.73 150.077 195.626 149.699 195.418C149.322 195.21 149.009 194.926 148.762 194.568C148.508 194.21 148.319 193.797 148.195 193.328C148.072 192.853 148.01 192.355 148.01 191.834ZM159.006 182V183.572H162.6V195.438H159.006V197H167.854V195.438H164.406V182H159.006ZM175.402 197.195C176.431 197.195 177.294 196.99 177.99 196.58C178.693 196.163 179.221 195.688 179.572 195.154L178.469 194.295C178.137 194.725 177.72 195.07 177.219 195.33C176.717 195.59 176.145 195.721 175.5 195.721C175.012 195.721 174.566 195.63 174.162 195.447C173.758 195.265 173.413 195.014 173.127 194.695C172.847 194.396 172.626 194.051 172.463 193.66C172.307 193.27 172.206 192.817 172.16 192.303V192.234H179.709V191.424C179.709 190.688 179.615 190.005 179.426 189.373C179.243 188.742 178.964 188.191 178.586 187.723C178.208 187.26 177.733 186.899 177.16 186.639C176.594 186.372 175.93 186.238 175.168 186.238C174.562 186.238 173.97 186.362 173.391 186.609C172.818 186.857 172.307 187.212 171.857 187.674C171.402 188.143 171.037 188.715 170.764 189.393C170.49 190.063 170.354 190.825 170.354 191.678V192.088C170.354 192.824 170.477 193.504 170.725 194.129C170.972 194.754 171.317 195.294 171.76 195.75C172.202 196.206 172.733 196.561 173.352 196.814C173.977 197.068 174.66 197.195 175.402 197.195ZM175.168 187.723C175.63 187.723 176.027 187.807 176.359 187.977C176.698 188.146 176.978 188.367 177.199 188.641C177.421 188.914 177.593 189.24 177.717 189.617C177.84 189.988 177.902 190.337 177.902 190.662V190.75H172.219C172.29 190.262 172.414 189.832 172.59 189.461C172.772 189.083 172.993 188.764 173.254 188.504C173.514 188.25 173.807 188.058 174.133 187.928C174.458 187.791 174.803 187.723 175.168 187.723Z" fill="white"/>
<path d="M18.6426 197H20.5273V196.844C20.4102 196.551 20.319 196.209 20.2539 195.818C20.1888 195.421 20.1562 195.047 20.1562 194.695V189.783C20.1562 189.191 20.0488 188.673 19.834 188.23C19.6191 187.788 19.3262 187.417 18.9551 187.117C18.5775 186.824 18.1315 186.606 17.6172 186.463C17.1029 186.313 16.5462 186.238 15.9473 186.238C15.2897 186.238 14.7005 186.329 14.1797 186.512C13.6654 186.694 13.2292 186.932 12.8711 187.225C12.5065 187.524 12.2266 187.859 12.0312 188.23C11.8424 188.602 11.7448 188.979 11.7383 189.363H13.5547C13.5547 189.142 13.6068 188.93 13.7109 188.729C13.8216 188.52 13.9746 188.341 14.1699 188.191C14.3652 188.042 14.6029 187.921 14.8828 187.83C15.1693 187.739 15.4915 187.693 15.8496 187.693C16.2337 187.693 16.5788 187.742 16.8848 187.84C17.1973 187.938 17.4609 188.074 17.6758 188.25C17.8906 188.432 18.0566 188.65 18.1738 188.904C18.291 189.158 18.3496 189.445 18.3496 189.764V190.594H16.377C15.6413 190.594 14.974 190.665 14.375 190.809C13.7826 190.952 13.2747 191.167 12.8516 191.453C12.4284 191.746 12.0996 192.111 11.8652 192.547C11.6374 192.983 11.5234 193.491 11.5234 194.07C11.5234 194.513 11.6081 194.926 11.7773 195.311C11.9531 195.688 12.2005 196.014 12.5195 196.287C12.832 196.567 13.2129 196.788 13.6621 196.951C14.1178 197.114 14.6257 197.195 15.1855 197.195C15.5306 197.195 15.8561 197.16 16.1621 197.088C16.4681 197.016 16.7578 196.919 17.0312 196.795C17.2982 196.671 17.5423 196.528 17.7637 196.365C17.9915 196.202 18.1966 196.03 18.3789 195.848C18.3984 196.069 18.4277 196.284 18.4668 196.492C18.5124 196.694 18.571 196.863 18.6426 197ZM15.4492 195.623C15.0977 195.623 14.7884 195.577 14.5215 195.486C14.2546 195.395 14.0332 195.268 13.8574 195.105C13.6816 194.949 13.5482 194.76 13.457 194.539C13.3724 194.318 13.3301 194.077 13.3301 193.816C13.3301 193.543 13.3789 193.299 13.4766 193.084C13.5807 192.869 13.7305 192.684 13.9258 192.527C14.1992 192.306 14.5671 192.143 15.0293 192.039C15.498 191.928 16.0449 191.873 16.6699 191.873H18.3496V194.012C18.2454 194.22 18.1022 194.422 17.9199 194.617C17.7376 194.806 17.5228 194.975 17.2754 195.125C17.0215 195.275 16.7415 195.395 16.4355 195.486C16.1296 195.577 15.8008 195.623 15.4492 195.623ZM23.9941 182V183.572H27.5879V195.438H23.9941V197H32.8418V195.438H29.3945V182H23.9941ZM40.3906 197.195C41.4193 197.195 42.2819 196.99 42.9785 196.58C43.6816 196.163 44.209 195.688 44.5605 195.154L43.457 194.295C43.125 194.725 42.7083 195.07 42.207 195.33C41.7057 195.59 41.1328 195.721 40.4883 195.721C40 195.721 39.554 195.63 39.1504 195.447C38.7467 195.265 38.4017 195.014 38.1152 194.695C37.8353 194.396 37.6139 194.051 37.4512 193.66C37.2949 193.27 37.194 192.817 37.1484 192.303V192.234H44.6973V191.424C44.6973 190.688 44.6029 190.005 44.4141 189.373C44.2318 188.742 43.9518 188.191 43.5742 187.723C43.1966 187.26 42.7214 186.899 42.1484 186.639C41.582 186.372 40.918 186.238 40.1562 186.238C39.5508 186.238 38.9583 186.362 38.3789 186.609C37.806 186.857 37.2949 187.212 36.8457 187.674C36.39 188.143 36.0254 188.715 35.752 189.393C35.4785 190.063 35.3418 190.825 35.3418 191.678V192.088C35.3418 192.824 35.4655 193.504 35.7129 194.129C35.9603 194.754 36.3053 195.294 36.748 195.75C37.1908 196.206 37.7214 196.561 38.3398 196.814C38.9648 197.068 39.6484 197.195 40.3906 197.195ZM40.1562 187.723C40.6185 187.723 41.0156 187.807 41.3477 187.977C41.6862 188.146 41.9661 188.367 42.1875 188.641C42.4089 188.914 42.5814 189.24 42.7051 189.617C42.8288 189.988 42.8906 190.337 42.8906 190.662V190.75H37.207C37.2786 190.262 37.4023 189.832 37.5781 189.461C37.7604 189.083 37.9818 188.764 38.2422 188.504C38.5026 188.25 38.7956 188.058 39.1211 187.928C39.4466 187.791 39.7917 187.723 40.1562 187.723ZM52.0996 190.35L49.3066 186.434H47.2168L51.1523 191.658L47.1094 197H49.2188L52.1387 192.977L55.0586 197H57.1484L53.1055 191.658L57.041 186.434H54.9219L52.0996 190.35Z" fill="white"/>
<path d="M265.271 148.031L266.102 151H268.992L264.422 136.781H261.932L257.273 151H260.164L261.004 148.031H265.271ZM261.678 145.697L263.172 140.463L264.627 145.697H261.678ZM275.066 149.027C274.63 149.027 274.269 148.939 273.982 148.764C273.702 148.588 273.481 148.354 273.318 148.061C273.149 147.774 273.032 147.442 272.967 147.064C272.902 146.68 272.869 146.283 272.869 145.873V145.58C272.869 145.176 272.902 144.786 272.967 144.408C273.038 144.031 273.159 143.695 273.328 143.402C273.491 143.109 273.712 142.875 273.992 142.699C274.272 142.523 274.627 142.436 275.057 142.436C275.35 142.436 275.62 142.488 275.867 142.592C276.115 142.689 276.326 142.823 276.502 142.992C276.678 143.161 276.811 143.363 276.902 143.598C276.993 143.832 277.033 144.079 277.02 144.34H279.578C279.591 143.715 279.487 143.152 279.266 142.65C279.044 142.143 278.735 141.71 278.338 141.352C277.934 141 277.456 140.727 276.902 140.531C276.349 140.336 275.747 140.238 275.096 140.238C274.282 140.238 273.566 140.378 272.947 140.658C272.335 140.938 271.821 141.319 271.404 141.801C270.988 142.283 270.675 142.849 270.467 143.5C270.258 144.145 270.154 144.838 270.154 145.58V145.873C270.154 146.615 270.258 147.312 270.467 147.963C270.682 148.607 270.997 149.171 271.414 149.652C271.824 150.134 272.339 150.515 272.957 150.795C273.576 151.068 274.295 151.205 275.115 151.205C275.721 151.205 276.294 151.111 276.834 150.922C277.381 150.727 277.859 150.46 278.27 150.121C278.68 149.783 279.002 149.379 279.236 148.91C279.477 148.441 279.591 147.934 279.578 147.387H277.02C277.033 147.634 276.987 147.859 276.883 148.061C276.785 148.262 276.645 148.435 276.463 148.578C276.281 148.721 276.069 148.832 275.828 148.91C275.587 148.988 275.333 149.027 275.066 149.027ZM287.381 137.846H284.666V140.434H282.254V142.436H284.666V147.24C284.666 147.937 284.757 148.536 284.939 149.037C285.122 149.532 285.382 149.939 285.721 150.258C286.053 150.583 286.453 150.824 286.922 150.98C287.397 151.13 287.924 151.205 288.504 151.205C288.803 151.205 289.106 151.189 289.412 151.156C289.725 151.13 290.024 151.091 290.311 151.039C290.597 150.987 290.867 150.922 291.121 150.844C291.375 150.759 291.596 150.661 291.785 150.551L291.521 148.686C291.398 148.718 291.248 148.751 291.072 148.783C290.903 148.816 290.721 148.845 290.525 148.871C290.324 148.904 290.112 148.93 289.891 148.949C289.676 148.969 289.464 148.979 289.256 148.979C288.969 148.979 288.709 148.946 288.475 148.881C288.247 148.816 288.051 148.705 287.889 148.549C287.726 148.399 287.599 148.197 287.508 147.943C287.423 147.683 287.381 147.361 287.381 146.977V142.436H291.326V140.434H287.381V137.846ZM295.135 140.434V142.65H298.143V148.793H295.135V151H303.748V148.793H300.887V140.434H295.135ZM297.947 137.729C297.947 137.937 297.983 138.132 298.055 138.314C298.133 138.49 298.24 138.64 298.377 138.764C298.514 138.894 298.676 138.995 298.865 139.066C299.061 139.138 299.275 139.174 299.51 139.174C299.992 139.174 300.372 139.04 300.652 138.773C300.939 138.5 301.082 138.152 301.082 137.729C301.082 137.305 300.939 136.96 300.652 136.693C300.372 136.42 299.992 136.283 299.51 136.283C299.275 136.283 299.061 136.319 298.865 136.391C298.676 136.462 298.514 136.56 298.377 136.684C298.24 136.814 298.133 136.97 298.055 137.152C297.983 137.328 297.947 137.52 297.947 137.729ZM306.053 145.619V145.824C306.053 146.599 306.163 147.315 306.385 147.973C306.606 148.624 306.932 149.19 307.361 149.672C307.785 150.154 308.305 150.531 308.924 150.805C309.549 151.072 310.258 151.205 311.053 151.205C311.84 151.205 312.544 151.072 313.162 150.805C313.781 150.531 314.301 150.154 314.725 149.672C315.148 149.19 315.47 148.624 315.691 147.973C315.913 147.315 316.023 146.599 316.023 145.824V145.619C316.023 144.851 315.913 144.141 315.691 143.49C315.47 142.833 315.148 142.263 314.725 141.781C314.295 141.299 313.771 140.922 313.152 140.648C312.534 140.375 311.827 140.238 311.033 140.238C310.239 140.238 309.533 140.375 308.914 140.648C308.302 140.922 307.785 141.299 307.361 141.781C306.932 142.263 306.606 142.833 306.385 143.49C306.163 144.141 306.053 144.851 306.053 145.619ZM308.768 145.824V145.619C308.768 145.189 308.81 144.783 308.895 144.398C308.979 144.014 309.113 143.676 309.295 143.383C309.477 143.09 309.712 142.859 309.998 142.689C310.285 142.52 310.63 142.436 311.033 142.436C311.443 142.436 311.792 142.52 312.078 142.689C312.365 142.859 312.599 143.09 312.781 143.383C312.957 143.676 313.087 144.014 313.172 144.398C313.257 144.783 313.299 145.189 313.299 145.619V145.824C313.299 146.267 313.257 146.684 313.172 147.074C313.087 147.458 312.957 147.794 312.781 148.08C312.599 148.373 312.365 148.604 312.078 148.773C311.792 148.943 311.45 149.027 311.053 149.027C310.643 149.027 310.291 148.943 309.998 148.773C309.712 148.604 309.477 148.373 309.295 148.08C309.113 147.794 308.979 147.458 308.895 147.074C308.81 146.684 308.768 146.267 308.768 145.824ZM318.436 151H321.16V143.49C321.251 143.347 321.352 143.217 321.463 143.1C321.574 142.982 321.697 142.882 321.834 142.797C322.003 142.68 322.195 142.592 322.41 142.533C322.632 142.475 322.872 142.445 323.133 142.445C323.445 142.445 323.725 142.478 323.973 142.543C324.22 142.602 324.432 142.709 324.607 142.865C324.783 143.021 324.917 143.236 325.008 143.51C325.105 143.777 325.154 144.118 325.154 144.535V151H327.869V144.496C327.869 143.728 327.778 143.077 327.596 142.543C327.42 142.003 327.173 141.56 326.854 141.215C326.528 140.876 326.144 140.629 325.701 140.473C325.258 140.316 324.77 140.238 324.236 140.238C323.82 140.238 323.426 140.297 323.055 140.414C322.684 140.531 322.342 140.701 322.029 140.922C321.847 141.052 321.674 141.199 321.512 141.361C321.349 141.524 321.199 141.703 321.062 141.898L320.896 140.434H318.436V151ZM337.264 148.1C337.264 148.262 337.221 148.412 337.137 148.549C337.059 148.686 336.938 148.806 336.775 148.91C336.606 149.014 336.388 149.099 336.121 149.164C335.861 149.223 335.555 149.252 335.203 149.252C334.91 149.252 334.624 149.223 334.344 149.164C334.07 149.105 333.826 149.011 333.611 148.881C333.396 148.757 333.221 148.594 333.084 148.393C332.947 148.184 332.869 147.937 332.85 147.65H330.262C330.262 148.08 330.366 148.51 330.574 148.939C330.789 149.363 331.102 149.74 331.512 150.072C331.922 150.411 332.43 150.684 333.035 150.893C333.647 151.101 334.35 151.205 335.145 151.205C335.867 151.205 336.521 151.127 337.107 150.971C337.693 150.808 338.195 150.583 338.611 150.297C339.021 150.01 339.337 149.672 339.559 149.281C339.786 148.884 339.9 148.451 339.9 147.982C339.9 147.475 339.786 147.038 339.559 146.674C339.337 146.303 339.028 145.987 338.631 145.727C338.234 145.473 337.762 145.264 337.215 145.102C336.668 144.939 336.076 144.805 335.438 144.701C334.995 144.636 334.63 144.561 334.344 144.477C334.057 144.385 333.833 144.285 333.67 144.174C333.501 144.07 333.383 143.952 333.318 143.822C333.253 143.686 333.221 143.539 333.221 143.383C333.221 143.227 333.257 143.08 333.328 142.943C333.406 142.8 333.517 142.676 333.66 142.572C333.816 142.455 334.018 142.364 334.266 142.299C334.513 142.234 334.803 142.201 335.135 142.201C335.525 142.201 335.857 142.25 336.131 142.348C336.411 142.445 336.632 142.576 336.795 142.738C336.912 142.862 337 143.002 337.059 143.158C337.117 143.308 337.146 143.471 337.146 143.646H339.861C339.861 143.158 339.754 142.706 339.539 142.289C339.324 141.872 339.015 141.511 338.611 141.205C338.201 140.906 337.703 140.671 337.117 140.502C336.531 140.326 335.87 140.238 335.135 140.238C334.432 140.238 333.8 140.326 333.24 140.502C332.68 140.678 332.205 140.915 331.814 141.215C331.424 141.514 331.124 141.863 330.916 142.26C330.708 142.657 330.604 143.074 330.604 143.51C330.604 143.959 330.704 144.356 330.906 144.701C331.115 145.046 331.401 145.349 331.766 145.609C332.13 145.876 332.566 146.104 333.074 146.293C333.589 146.475 334.155 146.628 334.773 146.752C335.262 146.843 335.665 146.934 335.984 147.025C336.303 147.117 336.561 147.214 336.756 147.318C336.945 147.429 337.075 147.546 337.146 147.67C337.225 147.794 337.264 147.937 337.264 148.1Z" fill="white"/>
<path d="M139.104 145.688L141.779 151H144.719V150.873L141.662 145.004C142.053 144.828 142.404 144.62 142.717 144.379C143.036 144.138 143.309 143.855 143.537 143.529C143.758 143.21 143.928 142.849 144.045 142.445C144.169 142.035 144.23 141.576 144.23 141.068C144.23 140.365 144.107 139.747 143.859 139.213C143.618 138.679 143.273 138.233 142.824 137.875C142.368 137.517 141.822 137.247 141.184 137.064C140.546 136.876 139.833 136.781 139.045 136.781H134.279V151H137.023V145.688H139.104ZM137.023 143.461V139.008H139.045C139.423 139.008 139.758 139.053 140.051 139.145C140.344 139.236 140.591 139.366 140.793 139.535C141.021 139.724 141.19 139.965 141.301 140.258C141.418 140.544 141.477 140.876 141.477 141.254C141.477 141.566 141.431 141.85 141.34 142.104C141.255 142.357 141.128 142.576 140.959 142.758C140.757 142.986 140.493 143.161 140.168 143.285C139.849 143.402 139.478 143.461 139.055 143.461H137.023ZM146.018 145.619V145.824C146.018 146.599 146.128 147.315 146.35 147.973C146.571 148.624 146.896 149.19 147.326 149.672C147.749 150.154 148.27 150.531 148.889 150.805C149.514 151.072 150.223 151.205 151.018 151.205C151.805 151.205 152.508 151.072 153.127 150.805C153.745 150.531 154.266 150.154 154.689 149.672C155.113 149.19 155.435 148.624 155.656 147.973C155.878 147.315 155.988 146.599 155.988 145.824V145.619C155.988 144.851 155.878 144.141 155.656 143.49C155.435 142.833 155.113 142.263 154.689 141.781C154.26 141.299 153.736 140.922 153.117 140.648C152.499 140.375 151.792 140.238 150.998 140.238C150.204 140.238 149.497 140.375 148.879 140.648C148.267 140.922 147.749 141.299 147.326 141.781C146.896 142.263 146.571 142.833 146.35 143.49C146.128 144.141 146.018 144.851 146.018 145.619ZM148.732 145.824V145.619C148.732 145.189 148.775 144.783 148.859 144.398C148.944 144.014 149.077 143.676 149.26 143.383C149.442 143.09 149.676 142.859 149.963 142.689C150.249 142.52 150.594 142.436 150.998 142.436C151.408 142.436 151.757 142.52 152.043 142.689C152.329 142.859 152.564 143.09 152.746 143.383C152.922 143.676 153.052 144.014 153.137 144.398C153.221 144.783 153.264 145.189 153.264 145.619V145.824C153.264 146.267 153.221 146.684 153.137 147.074C153.052 147.458 152.922 147.794 152.746 148.08C152.564 148.373 152.329 148.604 152.043 148.773C151.757 148.943 151.415 149.027 151.018 149.027C150.607 149.027 150.256 148.943 149.963 148.773C149.676 148.604 149.442 148.373 149.26 148.08C149.077 147.794 148.944 147.458 148.859 147.074C148.775 146.684 148.732 146.267 148.732 145.824ZM158.967 136V138.217H162.131V148.793H158.967V151H167.902V148.793H164.875V136H158.967ZM175.539 151.195C176.561 151.195 177.447 150.997 178.195 150.6C178.944 150.202 179.491 149.76 179.836 149.271L178.479 147.807C178.166 148.21 177.759 148.513 177.258 148.715C176.757 148.917 176.239 149.018 175.705 149.018C175.327 149.018 174.979 148.959 174.66 148.842C174.341 148.725 174.058 148.559 173.811 148.344C173.57 148.135 173.378 147.904 173.234 147.65C173.091 147.39 172.974 147.048 172.883 146.625V146.596H180.051V145.443C180.051 144.669 179.943 143.962 179.729 143.324C179.514 142.68 179.201 142.13 178.791 141.674C178.374 141.218 177.867 140.867 177.268 140.619C176.675 140.365 175.998 140.238 175.236 140.238C174.501 140.238 173.82 140.372 173.195 140.639C172.57 140.906 172.03 141.28 171.574 141.762C171.118 142.243 170.764 142.82 170.51 143.49C170.256 144.154 170.129 144.89 170.129 145.697V146.088C170.129 146.798 170.256 147.465 170.51 148.09C170.77 148.708 171.138 149.245 171.613 149.701C172.089 150.163 172.658 150.528 173.322 150.795C173.986 151.062 174.725 151.195 175.539 151.195ZM175.217 142.436C175.562 142.436 175.865 142.491 176.125 142.602C176.392 142.706 176.617 142.849 176.799 143.031C176.981 143.22 177.124 143.441 177.229 143.695C177.333 143.949 177.385 144.219 177.385 144.506V144.721H172.932C172.997 144.376 173.094 144.063 173.225 143.783C173.355 143.503 173.518 143.262 173.713 143.061C173.902 142.859 174.123 142.706 174.377 142.602C174.631 142.491 174.911 142.436 175.217 142.436Z" fill="white"/>
<path d="M20.6543 151V136.781H17.9004L17.8906 145.912L13.9648 136.781H11.2012V151H13.9648V141.83L17.9199 151H20.6543ZM29.9902 151H32.7441V150.834C32.6074 150.567 32.5033 150.248 32.4316 149.877C32.36 149.506 32.3242 149.037 32.3242 148.471V143.939C32.3242 143.327 32.2103 142.79 31.9824 142.328C31.7546 141.859 31.4388 141.472 31.0352 141.166C30.6315 140.86 30.153 140.629 29.5996 140.473C29.0527 140.316 28.4603 140.238 27.8223 140.238C27.1126 140.238 26.4811 140.329 25.9277 140.512C25.3809 140.688 24.9186 140.928 24.541 141.234C24.1569 141.54 23.8639 141.895 23.6621 142.299C23.4668 142.702 23.3691 143.129 23.3691 143.578H26.084C26.084 143.389 26.11 143.217 26.1621 143.061C26.2207 142.904 26.3086 142.771 26.4258 142.66C26.556 142.536 26.7253 142.442 26.9336 142.377C27.1419 142.305 27.3893 142.27 27.6758 142.27C28.0013 142.27 28.2845 142.312 28.5254 142.396C28.7728 142.475 28.9779 142.589 29.1406 142.738C29.2969 142.882 29.4141 143.054 29.4922 143.256C29.5703 143.451 29.6094 143.673 29.6094 143.92V144.545H28.0957C27.3145 144.545 26.6211 144.617 26.0156 144.76C25.4167 144.896 24.9121 145.098 24.502 145.365C24.0462 145.658 23.7044 146.033 23.4766 146.488C23.2487 146.938 23.1348 147.455 23.1348 148.041C23.1348 148.497 23.2259 148.92 23.4082 149.311C23.5905 149.695 23.8444 150.027 24.1699 150.307C24.4954 150.587 24.8828 150.805 25.332 150.961C25.7878 151.117 26.2858 151.195 26.8262 151.195C27.1582 151.195 27.4674 151.163 27.7539 151.098C28.0404 151.039 28.304 150.954 28.5449 150.844C28.7793 150.74 28.9941 150.616 29.1895 150.473C29.3848 150.329 29.5573 150.176 29.707 150.014C29.7396 150.202 29.7786 150.382 29.8242 150.551C29.8698 150.72 29.9251 150.87 29.9902 151ZM27.4023 149.096C27.1484 149.096 26.9238 149.066 26.7285 149.008C26.5397 148.943 26.3802 148.858 26.25 148.754C26.1198 148.643 26.0189 148.51 25.9473 148.354C25.8822 148.191 25.8496 148.015 25.8496 147.826C25.8496 147.585 25.8952 147.364 25.9863 147.162C26.0775 146.954 26.2174 146.775 26.4062 146.625C26.5951 146.482 26.8392 146.371 27.1387 146.293C27.4382 146.208 27.7995 146.166 28.2227 146.166H29.6094V147.982C29.5312 148.119 29.4238 148.256 29.2871 148.393C29.1504 148.523 28.9876 148.64 28.7988 148.744C28.61 148.848 28.3984 148.933 28.1641 148.998C27.9297 149.063 27.6758 149.096 27.4023 149.096ZM37.0898 140.434H34.7559V151H37.2266V143.09C37.2591 143.005 37.2949 142.927 37.334 142.855C37.373 142.784 37.4186 142.722 37.4707 142.67C37.5423 142.598 37.6237 142.543 37.7148 142.504C37.806 142.465 37.9102 142.445 38.0273 142.445C38.1315 142.445 38.2292 142.462 38.3203 142.494C38.4115 142.52 38.4928 142.569 38.5645 142.641C38.6296 142.712 38.6816 142.813 38.7207 142.943C38.7598 143.074 38.7793 143.24 38.7793 143.441V151H41.1719V143.207C41.1719 143.129 41.1719 143.067 41.1719 143.021C41.1719 142.976 41.1719 142.947 41.1719 142.934C41.2044 142.862 41.2435 142.8 41.2891 142.748C41.3346 142.689 41.3867 142.637 41.4453 142.592C41.5169 142.546 41.5918 142.51 41.6699 142.484C41.7546 142.458 41.849 142.445 41.9531 142.445C42.0508 142.445 42.1452 142.462 42.2363 142.494C42.334 142.52 42.4186 142.569 42.4902 142.641C42.5618 142.719 42.6172 142.823 42.6562 142.953C42.7018 143.083 42.7246 143.249 42.7246 143.451V151H45.1953V143.461C45.1953 142.875 45.1367 142.38 45.0195 141.977C44.9089 141.566 44.7526 141.231 44.5508 140.971C44.3424 140.717 44.0983 140.531 43.8184 140.414C43.5449 140.297 43.2487 140.238 42.9297 140.238C42.6758 140.238 42.4414 140.271 42.2266 140.336C42.0117 140.401 41.8197 140.492 41.6504 140.609C41.5137 140.701 41.3867 140.811 41.2695 140.941C41.1589 141.065 41.0579 141.205 40.9668 141.361C40.9082 141.199 40.8366 141.055 40.752 140.932C40.6738 140.801 40.5794 140.691 40.4688 140.6C40.3255 140.476 40.1562 140.385 39.9609 140.326C39.7656 140.268 39.5443 140.238 39.2969 140.238C38.7891 140.238 38.3561 140.372 37.998 140.639C37.6465 140.899 37.3698 141.257 37.168 141.713L37.0898 140.434ZM52.5391 151.195C53.5612 151.195 54.4466 150.997 55.1953 150.6C55.944 150.202 56.4909 149.76 56.8359 149.271L55.4785 147.807C55.166 148.21 54.7591 148.513 54.2578 148.715C53.7565 148.917 53.2389 149.018 52.7051 149.018C52.3275 149.018 51.9792 148.959 51.6602 148.842C51.3411 148.725 51.0579 148.559 50.8105 148.344C50.5697 148.135 50.3776 147.904 50.2344 147.65C50.0911 147.39 49.974 147.048 49.8828 146.625V146.596H57.0508V145.443C57.0508 144.669 56.9434 143.962 56.7285 143.324C56.5137 142.68 56.2012 142.13 55.791 141.674C55.3743 141.218 54.8665 140.867 54.2676 140.619C53.6751 140.365 52.998 140.238 52.2363 140.238C51.5007 140.238 50.8203 140.372 50.1953 140.639C49.5703 140.906 49.0299 141.28 48.5742 141.762C48.1185 142.243 47.7637 142.82 47.5098 143.49C47.2559 144.154 47.1289 144.89 47.1289 145.697V146.088C47.1289 146.798 47.2559 147.465 47.5098 148.09C47.7702 148.708 48.138 149.245 48.6133 149.701C49.0885 150.163 49.6582 150.528 50.3223 150.795C50.9863 151.062 51.7253 151.195 52.5391 151.195ZM52.2168 142.436C52.5618 142.436 52.8646 142.491 53.125 142.602C53.3919 142.706 53.6165 142.849 53.7988 143.031C53.9811 143.22 54.1243 143.441 54.2285 143.695C54.3327 143.949 54.3848 144.219 54.3848 144.506V144.721H49.9316C49.9967 144.376 50.0944 144.063 50.2246 143.783C50.3548 143.503 50.5176 143.262 50.7129 143.061C50.9017 142.859 51.123 142.706 51.377 142.602C51.6309 142.491 51.9108 142.436 52.2168 142.436Z" fill="white"/>
<path d="M126.523 49.1875H118.895L118.867 75.5742C118.849 76.8685 118.712 78.0078 118.457 78.9922C118.202 79.9766 117.819 80.7969 117.309 81.4531C116.835 82.0911 116.233 82.5742 115.504 82.9023C114.793 83.2122 113.973 83.3672 113.043 83.3672C112.186 83.3672 111.43 83.2214 110.773 82.9297C110.117 82.6198 109.561 82.1641 109.105 81.5625C108.613 80.9062 108.24 80.0768 107.984 79.0742C107.747 78.0716 107.62 76.9049 107.602 75.5742L107.574 49.1875H99.8906L99.8633 75.5742C99.8633 77.7982 100.173 79.7852 100.793 81.5352C101.431 83.2669 102.324 84.7253 103.473 85.9102C104.621 87.0951 105.997 87.9974 107.602 88.6172C109.224 89.237 111.038 89.5469 113.043 89.5469C115.176 89.5469 117.072 89.237 118.73 88.6172C120.408 87.9974 121.829 87.0859 122.996 85.8828C124.145 84.6979 125.02 83.2396 125.621 81.5078C126.241 79.776 126.551 77.7982 126.551 75.5742L126.523 49.1875ZM152.992 80.8789C152.992 81.3346 152.874 81.7539 152.637 82.1367C152.418 82.5195 152.081 82.8568 151.625 83.1484C151.151 83.4401 150.54 83.6771 149.793 83.8594C149.064 84.0234 148.207 84.1055 147.223 84.1055C146.402 84.1055 145.6 84.0234 144.816 83.8594C144.051 83.6953 143.367 83.431 142.766 83.0664C142.164 82.7201 141.672 82.2643 141.289 81.6992C140.906 81.1159 140.688 80.4232 140.633 79.6211H133.387C133.387 80.8242 133.678 82.0273 134.262 83.2305C134.863 84.4154 135.738 85.4727 136.887 86.4023C138.035 87.3503 139.457 88.1159 141.152 88.6992C142.866 89.2826 144.835 89.5742 147.059 89.5742C149.082 89.5742 150.914 89.3555 152.555 88.918C154.195 88.4622 155.599 87.8333 156.766 87.0312C157.914 86.2292 158.798 85.2812 159.418 84.1875C160.056 83.0755 160.375 81.8633 160.375 80.5508C160.375 79.1289 160.056 77.9076 159.418 76.8867C158.798 75.8477 157.932 74.9635 156.82 74.2344C155.708 73.5234 154.387 72.9401 152.855 72.4844C151.324 72.0286 149.665 71.6549 147.879 71.3633C146.639 71.181 145.618 70.9714 144.816 70.7344C144.014 70.4792 143.385 70.1966 142.93 69.8867C142.456 69.5951 142.128 69.2669 141.945 68.9023C141.763 68.5195 141.672 68.1094 141.672 67.6719C141.672 67.2344 141.772 66.8242 141.973 66.4414C142.191 66.0404 142.501 65.694 142.902 65.4023C143.34 65.0742 143.905 64.819 144.598 64.6367C145.29 64.4544 146.102 64.3633 147.031 64.3633C148.125 64.3633 149.055 64.5 149.82 64.7734C150.604 65.0469 151.224 65.4115 151.68 65.8672C152.008 66.2135 152.254 66.6055 152.418 67.043C152.582 67.4622 152.664 67.918 152.664 68.4102H160.266C160.266 67.043 159.965 65.776 159.363 64.6094C158.762 63.4427 157.896 62.431 156.766 61.5742C155.617 60.7357 154.223 60.0794 152.582 59.6055C150.941 59.1133 149.091 58.8672 147.031 58.8672C145.062 58.8672 143.294 59.1133 141.727 59.6055C140.159 60.0977 138.828 60.763 137.734 61.6016C136.641 62.4401 135.802 63.4154 135.219 64.5273C134.635 65.6393 134.344 66.806 134.344 68.0273C134.344 69.2852 134.626 70.3971 135.191 71.3633C135.775 72.3294 136.577 73.1771 137.598 73.9062C138.618 74.6536 139.84 75.2917 141.262 75.8203C142.702 76.3307 144.288 76.7591 146.02 77.1055C147.387 77.3607 148.517 77.6159 149.41 77.8711C150.303 78.1263 151.023 78.3997 151.57 78.6914C152.099 79.0013 152.464 79.3294 152.664 79.6758C152.883 80.0221 152.992 80.4232 152.992 80.8789ZM181.895 89.5469C184.757 89.5469 187.236 88.9909 189.332 87.8789C191.428 86.7669 192.96 85.5273 193.926 84.1602L190.125 80.0586C189.25 81.1888 188.111 82.0365 186.707 82.6016C185.303 83.1667 183.854 83.4492 182.359 83.4492C181.302 83.4492 180.327 83.2852 179.434 82.957C178.54 82.6289 177.747 82.1641 177.055 81.5625C176.38 80.9792 175.842 80.332 175.441 79.6211C175.04 78.8919 174.712 77.9349 174.457 76.75V76.668H194.527V73.4414C194.527 71.2721 194.227 69.2943 193.625 67.5078C193.023 65.7031 192.148 64.1628 191 62.8867C189.833 61.6107 188.411 60.6263 186.734 59.9336C185.076 59.2227 183.18 58.8672 181.047 58.8672C178.987 58.8672 177.082 59.2409 175.332 59.9883C173.582 60.7357 172.069 61.7839 170.793 63.1328C169.517 64.4818 168.523 66.0951 167.812 67.9727C167.102 69.832 166.746 71.8919 166.746 74.1523V75.2461C166.746 77.2331 167.102 79.1016 167.812 80.8516C168.542 82.5833 169.572 84.0872 170.902 85.3633C172.233 86.6576 173.828 87.6784 175.688 88.4258C177.547 89.1732 179.616 89.5469 181.895 89.5469ZM180.992 65.0195C181.958 65.0195 182.806 65.1745 183.535 65.4844C184.283 65.776 184.911 66.1771 185.422 66.6875C185.932 67.2161 186.333 67.8359 186.625 68.5469C186.917 69.2578 187.062 70.0143 187.062 70.8164V71.418H174.594C174.776 70.4518 175.049 69.5768 175.414 68.793C175.779 68.0091 176.234 67.3346 176.781 66.7695C177.31 66.2044 177.93 65.776 178.641 65.4844C179.352 65.1745 180.135 65.0195 180.992 65.0195ZM222.418 58.8672C220.431 58.8672 218.599 59.3503 216.922 60.3164C215.245 61.2643 213.805 62.5768 212.602 64.2539L212.547 63.5977L212.246 59.4141H205.164V89H212.766V71.2266C213.112 70.388 213.549 69.6589 214.078 69.0391C214.607 68.4193 215.245 67.9089 215.992 67.5078C216.612 67.1615 217.314 66.9062 218.098 66.7422C218.9 66.5599 219.793 66.4688 220.777 66.4688C221.725 66.4688 222.719 66.5326 223.758 66.6602C224.815 66.7695 225.845 66.9427 226.848 67.1797L227.969 59.6055C227.367 59.4232 226.574 59.2591 225.59 59.1133C224.624 58.9492 223.566 58.8672 222.418 58.8672ZM253.891 80.8789C253.891 81.3346 253.772 81.7539 253.535 82.1367C253.316 82.5195 252.979 82.8568 252.523 83.1484C252.049 83.4401 251.439 83.6771 250.691 83.8594C249.962 84.0234 249.105 84.1055 248.121 84.1055C247.301 84.1055 246.499 84.0234 245.715 83.8594C244.949 83.6953 244.266 83.431 243.664 83.0664C243.062 82.7201 242.57 82.2643 242.188 81.6992C241.805 81.1159 241.586 80.4232 241.531 79.6211H234.285C234.285 80.8242 234.577 82.0273 235.16 83.2305C235.762 84.4154 236.637 85.4727 237.785 86.4023C238.934 87.3503 240.355 88.1159 242.051 88.6992C243.764 89.2826 245.733 89.5742 247.957 89.5742C249.98 89.5742 251.812 89.3555 253.453 88.918C255.094 88.4622 256.497 87.8333 257.664 87.0312C258.812 86.2292 259.697 85.2812 260.316 84.1875C260.954 83.0755 261.273 81.8633 261.273 80.5508C261.273 79.1289 260.954 77.9076 260.316 76.8867C259.697 75.8477 258.831 74.9635 257.719 74.2344C256.607 73.5234 255.285 72.9401 253.754 72.4844C252.223 72.0286 250.564 71.6549 248.777 71.3633C247.538 71.181 246.517 70.9714 245.715 70.7344C244.913 70.4792 244.284 70.1966 243.828 69.8867C243.354 69.5951 243.026 69.2669 242.844 68.9023C242.661 68.5195 242.57 68.1094 242.57 67.6719C242.57 67.2344 242.671 66.8242 242.871 66.4414C243.09 66.0404 243.4 65.694 243.801 65.4023C244.238 65.0742 244.803 64.819 245.496 64.6367C246.189 64.4544 247 64.3633 247.93 64.3633C249.023 64.3633 249.953 64.5 250.719 64.7734C251.503 65.0469 252.122 65.4115 252.578 65.8672C252.906 66.2135 253.152 66.6055 253.316 67.043C253.48 67.4622 253.562 67.918 253.562 68.4102H261.164C261.164 67.043 260.863 65.776 260.262 64.6094C259.66 63.4427 258.794 62.431 257.664 61.5742C256.516 60.7357 255.121 60.0794 253.48 59.6055C251.84 59.1133 249.99 58.8672 247.93 58.8672C245.961 58.8672 244.193 59.1133 242.625 59.6055C241.057 60.0977 239.727 60.763 238.633 61.6016C237.539 62.4401 236.701 63.4154 236.117 64.5273C235.534 65.6393 235.242 66.806 235.242 68.0273C235.242 69.2852 235.525 70.3971 236.09 71.3633C236.673 72.3294 237.475 73.1771 238.496 73.9062C239.517 74.6536 240.738 75.2917 242.16 75.8203C243.6 76.3307 245.186 76.7591 246.918 77.1055C248.285 77.3607 249.415 77.6159 250.309 77.8711C251.202 78.1263 251.922 78.3997 252.469 78.6914C252.997 79.0013 253.362 79.3294 253.562 79.6758C253.781 80.0221 253.891 80.4232 253.891 80.8789Z" fill="white"/>
<path d="M350 14.365L345.635 10L338 17.635L330.365 10L326 14.365L333.635 22L326 29.635L330.365 34L338 26.365L345.635 34L350 29.635L342.365 22L350 14.365Z" fill="white"/>
</svg>
